<?xml version="1.0" encoding="utf-8" ?>
<svg baseProfile="full" height="890" version="1.1" width="4762" xmlns="http://www.w3.org/2000/svg" xmlns:ev="http://www.w3.org/2001/xml-events" xmlns:xlink="http://www.w3.org/1999/xlink"><defs /><rect fill="#ffcccc" height="150" stroke="#000000" width="150" x="110" y="70" /><text lengthAdjust="spacing" textLength="[150]" writing-mode="tb" x="120" y="80">Routing Area</text><rect fill="#ffe6cc" height="300" stroke="#000000" width="150" x="110" y="220" /><text lengthAdjust="spacing" textLength="[150]" writing-mode="tb" x="120" y="230">Internet Engineering Steering Group</text><rect fill="#d9ffcc" height="150" stroke="#000000" width="150" x="110" y="520" /><text lengthAdjust="spacing" textLength="[150]" writing-mode="tb" x="120" y="530">General Area</text><rect fill="#ffcccc" height="150" stroke="#000000" width="4762" x="260" y="70" /><text lengthAdjust="spacing" textLength="[150]" x="270" y="90">Open Shortest Path First IGP</text><rect fill="#ffe6cc" height="150" stroke="#000000" width="4762" x="260" y="220" /><text lengthAdjust="spacing" textLength="[150]" x="270" y="240">General Area</text><rect fill="#ffe6cc" height="150" stroke="#000000" width="4762" x="260" y="370" /><text lengthAdjust="spacing" textLength="[150]" x="270" y="390">Routing Area</text><rect fill="#d9ffcc" height="150" stroke="#000000" width="4762" x="260" y="520" /><text lengthAdjust="spacing" textLength="[150]" x="270" y="540">Individual Submissions</text><ellipse cx="4562" cy="145.0" fill="#ff6666" rx="90" ry="50" stroke="#000000" stroke-dasharray="10, 0" stroke-width="4" /><text dy="0 . 3 5 e m" lengthAdjust="spacingAndGlyphs" textLength="180" x="4472" y="145.0">draft-ietf-ospf-ospfv3-update</text><ellipse cx="3792" cy="145.0" fill="#ff6666" rx="90" ry="50" stroke="#000000" stroke-dasharray="10, 0" stroke-width="4" /><text dy="0 . 3 5 e m" lengthAdjust="spacingAndGlyphs" textLength="180" x="3702" y="145.0">draft-ietf-ospf-ospfv3-auth</text><ellipse cx="796" cy="145.0" fill="#ff6666" rx="90" ry="50" stroke="#000000" stroke-dasharray="10, 0" stroke-width="4" /><text dy="0 . 3 5 e m" lengthAdjust="spacingAndGlyphs" textLength="180" x="706" y="145.0">draft-ietf-ospf-vers2</text><ellipse cx="4497" cy="295.0" fill="#ffb366" rx="90" ry="50" stroke="#000000" stroke-dasharray="10, 0" stroke-width="4" /><text dy="0 . 3 5 e m" lengthAdjust="spacingAndGlyphs" textLength="180" x="4407" y="295.0">draft-narten-iana-considerations-rfc2434bis</text><ellipse cx="4497" cy="295.0" fill="#ffb366" rx="90" ry="50" stroke="#000000" stroke-dasharray="10, 0" stroke-width="4" /><text dy="0 . 3 5 e m" lengthAdjust="spacingAndGlyphs" textLength="180" x="4407" y="295.0">draft-narten-iana-considerations-rfc2434bis</text><ellipse cx="4072" cy="445.0" fill="#ffb366" rx="90" ry="50" stroke="#000000" stroke-dasharray="10, 0" stroke-width="1" /><text dy="0 . 3 5 e m" lengthAdjust="spacingAndGlyphs" textLength="180" x="3982" y="445.0">draft-nguyen-ospf-oob-resync</text><ellipse cx="4072" cy="445.0" fill="#ffb366" rx="90" ry="50" stroke="#000000" stroke-dasharray="10, 0" stroke-width="1" /><text dy="0 . 3 5 e m" lengthAdjust="spacingAndGlyphs" textLength="180" x="3982" y="445.0">draft-nguyen-ospf-restart</text><ellipse cx="4072" cy="445.0" fill="#ffb366" rx="90" ry="50" stroke="#000000" stroke-dasharray="10, 0" stroke-width="1" /><text dy="0 . 3 5 e m" lengthAdjust="spacingAndGlyphs" textLength="180" x="3982" y="445.0">draft-nguyen-ospf-lls</text><ellipse cx="4486" cy="595.0" fill="#8cff66" rx="90" ry="50" stroke="#000000" stroke-dasharray="10, 5" stroke-width="4" /><text dy="0 . 3 5 e m" lengthAdjust="spacingAndGlyphs" textLength="180" x="4396" y="595.0">rfc5000</text><ellipse cx="400" cy="595.0" fill="#8cff66" rx="90" ry="50" stroke="#000000" stroke-dasharray="10, 0" stroke-width="4" /><text dy="0 . 3 5 e m" lengthAdjust="spacingAndGlyphs" textLength="180" x="310" y="595.0">draft-bradner-key-words</text><line stroke="#000000" stroke-width="2" x1="400" x2="4562" y1="745.0" y2="745.0" /><line stroke="#000000" stroke-width="2" x1="400" x2="400" y1="765.0" y2="725.0" /><line stroke="#000000" stroke-width="2" x1="4562" x2="4562" y1="765.0" y2="725.0" /></svg>