<?xml version="1.0" encoding="utf-8" ?>
<svg baseProfile="full" height="1340" version="1.1" width="7827" xmlns="http://www.w3.org/2000/svg" xmlns:ev="http://www.w3.org/2001/xml-events" xmlns:xlink="http://www.w3.org/1999/xlink"><defs /><rect fill="#ffcccc" height="450" stroke="#000000" width="150" x="110" y="70" /><text lengthAdjust="spacing" textLength="[150]" writing-mode="tb" x="120" y="80">Applications and Real-Time Area</text><rect fill="#ffe6cc" height="150" stroke="#000000" width="150" x="110" y="520" /><text lengthAdjust="spacing" textLength="[150]" writing-mode="tb" x="120" y="530">Applications Area</text><rect fill="#d9ffcc" height="150" stroke="#000000" width="150" x="110" y="670" /><text lengthAdjust="spacing" textLength="[150]" writing-mode="tb" x="120" y="680">Internet Engineering Steering Group</text><rect fill="#ccffe6" height="150" stroke="#000000" width="150" x="110" y="820" /><text lengthAdjust="spacing" textLength="[150]" writing-mode="tb" x="120" y="830">Security Area</text><rect fill="#ccf2ff" height="150" stroke="#000000" width="150" x="110" y="970" /><text lengthAdjust="spacing" textLength="[150]" writing-mode="tb" x="120" y="980">General Area</text><rect fill="#ffcccc" height="150" stroke="#000000" width="7827" x="260" y="70" /><text lengthAdjust="spacing" textLength="[150]" x="270" y="90">Content Delivery Networks Interconnection</text><rect fill="#ffcccc" height="150" stroke="#000000" width="7827" x="260" y="220" /><text lengthAdjust="spacing" textLength="[150]" x="270" y="240">Using TLS in Applications</text><rect fill="#ffcccc" height="150" stroke="#000000" width="7827" x="260" y="370" /><text lengthAdjust="spacing" textLength="[150]" x="270" y="390">Hypertext Transfer Protocol</text><rect fill="#ffe6cc" height="150" stroke="#000000" width="7827" x="260" y="520" /><text lengthAdjust="spacing" textLength="[150]" x="270" y="540">JavaScript Object Notation</text><rect fill="#d9ffcc" height="150" stroke="#000000" width="7827" x="260" y="670" /><text lengthAdjust="spacing" textLength="[150]" x="270" y="690">General Area</text><rect fill="#ccffe6" height="150" stroke="#000000" width="7827" x="260" y="820" /><text lengthAdjust="spacing" textLength="[150]" x="270" y="840">Transport Layer Security</text><rect fill="#ccf2ff" height="150" stroke="#000000" width="7827" x="260" y="970" /><text lengthAdjust="spacing" textLength="[150]" x="270" y="990">Individual Submissions</text><ellipse cx="7627" cy="145.0" fill="#ff6666" rx="90" ry="50" stroke="#000000" stroke-dasharray="10, 0" stroke-width="4" /><text dy="0 . 3 5 e m" lengthAdjust="spacingAndGlyphs" textLength="180" x="7537" y="145.0">draft-ietf-cdni-metadata</text><ellipse cx="7521" cy="145.0" fill="#ff6666" rx="90" ry="50" stroke="#000000" stroke-dasharray="10, 0" stroke-width="4" /><text dy="0 . 3 5 e m" lengthAdjust="spacingAndGlyphs" textLength="180" x="7431" y="145.0">draft-ietf-cdni-logging</text><ellipse cx="7271" cy="145.0" fill="#ff6666" rx="90" ry="50" stroke="#000000" stroke-dasharray="10, 0" stroke-width="1" /><text dy="0 . 3 5 e m" lengthAdjust="spacingAndGlyphs" textLength="180" x="7181" y="145.0">draft-ietf-cdni-media-type</text><ellipse cx="6773" cy="145.0" fill="#ff6666" rx="90" ry="50" stroke="#000000" stroke-dasharray="10, 0" stroke-width="1" /><text dy="0 . 3 5 e m" lengthAdjust="spacingAndGlyphs" textLength="180" x="6683" y="145.0">draft-ietf-cdni-requirements</text><ellipse cx="6773" cy="145.0" fill="#ff6666" rx="90" ry="50" stroke="#000000" stroke-dasharray="10, 0" stroke-width="4" /><text dy="0 . 3 5 e m" lengthAdjust="spacingAndGlyphs" textLength="180" x="6683" y="145.0">draft-ietf-cdni-framework</text><ellipse cx="6143" cy="145.0" fill="#ff6666" rx="90" ry="50" stroke="#000000" stroke-dasharray="10, 0" stroke-width="1" /><text dy="0 . 3 5 e m" lengthAdjust="spacingAndGlyphs" textLength="180" x="6053" y="145.0">draft-ietf-cdni-use-cases</text><ellipse cx="6088" cy="145.0" fill="#ff6666" rx="90" ry="50" stroke="#000000" stroke-dasharray="10, 0" stroke-width="1" /><text dy="0 . 3 5 e m" lengthAdjust="spacingAndGlyphs" textLength="180" x="5998" y="145.0">draft-ietf-cdni-problem-statement</text><ellipse cx="7038" cy="295.0" fill="#ff6666" rx="90" ry="50" stroke="#000000" stroke-dasharray="10, 0" stroke-width="1" /><text dy="0 . 3 5 e m" lengthAdjust="spacingAndGlyphs" textLength="180" x="6948" y="295.0">draft-ietf-uta-tls-bcp</text><ellipse cx="7038" cy="295.0" fill="#ff6666" rx="90" ry="50" stroke="#000000" stroke-dasharray="10, 0" stroke-width="1" /><text dy="0 . 3 5 e m" lengthAdjust="spacingAndGlyphs" textLength="180" x="6948" y="295.0">draft-ietf-uta-tls-bcp</text><ellipse cx="6706" cy="445.0" fill="#ff6666" rx="90" ry="50" stroke="#000000" stroke-dasharray="10, 0" stroke-width="1" /><text dy="0 . 3 5 e m" lengthAdjust="spacingAndGlyphs" textLength="180" x="6616" y="445.0">draft-ietf-httpbis-p1-messaging</text><ellipse cx="6995" cy="595.0" fill="#ffb366" rx="90" ry="50" stroke="#000000" stroke-dasharray="10, 0" stroke-width="4" /><text dy="0 . 3 5 e m" lengthAdjust="spacingAndGlyphs" textLength="180" x="6905" y="595.0">draft-ietf-json-i-json</text><ellipse cx="6611" cy="595.0" fill="#ffb366" rx="90" ry="50" stroke="#000000" stroke-dasharray="10, 0" stroke-width="4" /><text dy="0 . 3 5 e m" lengthAdjust="spacingAndGlyphs" textLength="180" x="6521" y="595.0">rfc7159</text><ellipse cx="4497" cy="745.0" fill="#8cff66" rx="90" ry="50" stroke="#000000" stroke-dasharray="10, 0" stroke-width="4" /><text dy="0 . 3 5 e m" lengthAdjust="spacingAndGlyphs" textLength="180" x="4407" y="745.0">draft-narten-iana-considerations-rfc2434bis</text><ellipse cx="4497" cy="745.0" fill="#8cff66" rx="90" ry="50" stroke="#000000" stroke-dasharray="10, 0" stroke-width="4" /><text dy="0 . 3 5 e m" lengthAdjust="spacingAndGlyphs" textLength="180" x="4407" y="745.0">draft-narten-iana-considerations-rfc2434bis</text><ellipse cx="1557" cy="895.0" fill="#66ffb3" rx="90" ry="50" stroke="#000000" stroke-dasharray="10, 0" stroke-width="1" /><text dy="0 . 3 5 e m" lengthAdjust="spacingAndGlyphs" textLength="180" x="1467" y="895.0">draft-ietf-tls-https</text><ellipse cx="400" cy="1045.0" fill="#66d9ff" rx="90" ry="50" stroke="#000000" stroke-dasharray="10, 0" stroke-width="4" /><text dy="0 . 3 5 e m" lengthAdjust="spacingAndGlyphs" textLength="180" x="310" y="1045.0">draft-bradner-key-words</text><ellipse cx="400" cy="1045.0" fill="#66d9ff" rx="90" ry="50" stroke="#000000" stroke-dasharray="10, 0" stroke-width="4" /><text dy="0 . 3 5 e m" lengthAdjust="spacingAndGlyphs" textLength="180" x="310" y="1045.0">draft-bradner-key-words</text><line stroke="#000000" stroke-width="2" x1="400" x2="7627" y1="1195.0" y2="1195.0" /><line stroke="#000000" stroke-width="2" x1="400" x2="400" y1="1215.0" y2="1175.0" /><line stroke="#000000" stroke-width="2" x1="7627" x2="7627" y1="1215.0" y2="1175.0" /></svg>