<?xml version="1.0" encoding="utf-8" ?>
<svg baseProfile="full" height="890" version="1.1" width="5389" xmlns="http://www.w3.org/2000/svg" xmlns:ev="http://www.w3.org/2001/xml-events" xmlns:xlink="http://www.w3.org/1999/xlink"><defs /><rect fill="#ffcccc" height="150" stroke="#000000" width="150" x="170" y="70" /><text lengthAdjust="spacing" textLength="[150]" writing-mode="tb" x="180" y="80">Routing Area</text><rect fill="#ffe6cc" height="300" stroke="#000000" width="150" x="170" y="220" /><text lengthAdjust="spacing" textLength="[150]" writing-mode="tb" x="180" y="230">Internet Engineering Steering Group</text><rect fill="#d9ffcc" height="150" stroke="#000000" width="150" x="170" y="520" /><text lengthAdjust="spacing" textLength="[150]" writing-mode="tb" x="180" y="530">General Area</text><rect fill="#ffcccc" height="150" stroke="#000000" width="4999" x="320" y="70" /><text lengthAdjust="spacing" textLength="[150]" x="330" y="90">Open Shortest Path First IGP</text><rect fill="#ffe6cc" height="150" stroke="#000000" width="4999" x="320" y="220" /><text lengthAdjust="spacing" textLength="[150]" x="330" y="240">General Area</text><rect fill="#ffe6cc" height="150" stroke="#000000" width="4999" x="320" y="370" /><text lengthAdjust="spacing" textLength="[150]" x="330" y="390">Routing Area</text><rect fill="#d9ffcc" height="150" stroke="#000000" width="4999" x="320" y="520" /><text lengthAdjust="spacing" textLength="[150]" x="330" y="540">Individual Submissions</text><line stroke="#000000" stroke-width="2" x1="520" x2="5069" y1="745.0" y2="745.0" /><line stroke="#000000" stroke-width="2" x1="520" x2="520" y1="765.0" y2="725.0" /><line stroke="#000000" stroke-width="2" x1="5069" x2="5069" y1="765.0" y2="725.0" /><text x="450" y="780.0">1997-03-01 00:00:00</text><text x="4999" y="780.0">2009-08-14 16:13:03</text><line stroke="#111111" stroke-opacity="0.3" stroke-width="2" x1="826" x2="826" y1="670" y2="70" /><line stroke="#000000" stroke-width="2" x1="826" x2="826" y1="755.0" y2="735.0" /><text x="756" y="710.0">1998-01-01 00:00:00</text><line stroke="#111111" stroke-opacity="0.3" stroke-width="2" x1="1191" x2="1191" y1="670" y2="70" /><line stroke="#000000" stroke-width="2" x1="1191" x2="1191" y1="755.0" y2="735.0" /><text x="1121" y="710.0">1999-01-01 00:00:00</text><line stroke="#111111" stroke-opacity="0.3" stroke-width="2" x1="1556" x2="1556" y1="670" y2="70" /><line stroke="#000000" stroke-width="2" x1="1556" x2="1556" y1="755.0" y2="735.0" /><text x="1486" y="710.0">2000-01-01 00:00:00</text><line stroke="#111111" stroke-opacity="0.3" stroke-width="2" x1="1922" x2="1922" y1="670" y2="70" /><line stroke="#000000" stroke-width="2" x1="1922" x2="1922" y1="755.0" y2="735.0" /><text x="1852" y="710.0">2001-01-01 00:00:00</text><line stroke="#111111" stroke-opacity="0.3" stroke-width="2" x1="2287" x2="2287" y1="670" y2="70" /><line stroke="#000000" stroke-width="2" x1="2287" x2="2287" y1="755.0" y2="735.0" /><text x="2217" y="710.0">2002-01-01 00:00:00</text><line stroke="#111111" stroke-opacity="0.3" stroke-width="2" x1="2652" x2="2652" y1="670" y2="70" /><line stroke="#000000" stroke-width="2" x1="2652" x2="2652" y1="755.0" y2="735.0" /><text x="2582" y="710.0">2003-01-01 00:00:00</text><line stroke="#111111" stroke-opacity="0.3" stroke-width="2" x1="3017" x2="3017" y1="670" y2="70" /><line stroke="#000000" stroke-width="2" x1="3017" x2="3017" y1="755.0" y2="735.0" /><text x="2947" y="710.0">2004-01-01 00:00:00</text><line stroke="#111111" stroke-opacity="0.3" stroke-width="2" x1="3383" x2="3383" y1="670" y2="70" /><line stroke="#000000" stroke-width="2" x1="3383" x2="3383" y1="755.0" y2="735.0" /><text x="3313" y="710.0">2005-01-01 00:00:00</text><line stroke="#111111" stroke-opacity="0.3" stroke-width="2" x1="3748" x2="3748" y1="670" y2="70" /><line stroke="#000000" stroke-width="2" x1="3748" x2="3748" y1="755.0" y2="735.0" /><text x="3678" y="710.0">2006-01-01 00:00:00</text><line stroke="#111111" stroke-opacity="0.3" stroke-width="2" x1="4113" x2="4113" y1="670" y2="70" /><line stroke="#000000" stroke-width="2" x1="4113" x2="4113" y1="755.0" y2="735.0" /><text x="4043" y="710.0">2007-01-01 00:00:00</text><line stroke="#111111" stroke-opacity="0.3" stroke-width="2" x1="4478" x2="4478" y1="670" y2="70" /><line stroke="#000000" stroke-width="2" x1="4478" x2="4478" y1="755.0" y2="735.0" /><text x="4408" y="710.0">2008-01-01 00:00:00</text><line stroke="#111111" stroke-opacity="0.3" stroke-width="2" x1="4844" x2="4844" y1="670" y2="70" /><line stroke="#000000" stroke-width="2" x1="4844" x2="4844" y1="755.0" y2="735.0" /><text x="4774" y="710.0">2009-01-01 00:00:00</text><rect fill="#ff6666" height="37.5" stroke="#000000" stroke-dasharray="10, 0" stroke-width="4" width="300" x="4532" y="70.0" /><text lengthAdjust="spacingAndGlyphs" textLength="300" x="4532" y="88.75">OSPF for IPv6</text><rect fill="#ff6666" height="37.5" stroke="#000000" stroke-dasharray="10, 0" stroke-width="4" width="300" x="3762" y="107.5" /><text lengthAdjust="spacingAndGlyphs" textLength="300" x="3762" y="126.25">Authentication/Confidentiality for OSPFv3</text><rect fill="#ff6666" height="37.5" stroke="#000000" stroke-dasharray="10, 0" stroke-width="4" width="300" x="766" y="145.0" /><text lengthAdjust="spacingAndGlyphs" textLength="300" x="766" y="163.75">OSPF Version 2</text><rect fill="#ff6666" height="37.5" stroke="#000000" stroke-dasharray="10, 0" stroke-width="10" width="300" x="4919" y="182.5" /><text lengthAdjust="spacingAndGlyphs" textLength="300" x="4919" y="201.25">OSPF Link-Local Signaling</text><rect fill="#ffb366" height="75.0" stroke="#000000" stroke-dasharray="10, 0" stroke-width="4" width="300" x="4467" y="220.0" /><text lengthAdjust="spacingAndGlyphs" textLength="300" x="4467" y="257.5">Guidelines for Writing an IANA Considerations Section in RFCs</text><rect fill="#ffb366" height="75.0" stroke="#000000" stroke-dasharray="10, 0" stroke-width="4" width="300" x="4467" y="295.0" /><text lengthAdjust="spacingAndGlyphs" textLength="300" x="4467" y="332.5">Guidelines for Writing an IANA Considerations Section in RFCs</text><rect fill="#ffb366" height="50.0" stroke="#000000" stroke-dasharray="10, 0" stroke-width="1" width="300" x="4042" y="370.0" /><text lengthAdjust="spacingAndGlyphs" textLength="300" x="4042" y="395.0">OSPF Out-of-Band Link State Database (LSDB) Resynchronization</text><rect fill="#ffb366" height="50.0" stroke="#000000" stroke-dasharray="10, 0" stroke-width="1" width="300" x="4042" y="420.0" /><text lengthAdjust="spacingAndGlyphs" textLength="300" x="4042" y="445.0">OSPF Restart Signaling</text><rect fill="#ffb366" height="50.0" stroke="#000000" stroke-dasharray="10, 0" stroke-width="1" width="300" x="4042" y="470.0" /><text lengthAdjust="spacingAndGlyphs" textLength="300" x="4042" y="495.0">OSPF Link-Local Signaling</text><rect fill="#8cff66" height="75.0" stroke="#000000" stroke-dasharray="10, 5" stroke-width="4" width="300" x="4456" y="520.0" /><text lengthAdjust="spacingAndGlyphs" textLength="300" x="4456" y="557.5">Internet Official Protocol Standards</text><rect fill="#8cff66" height="75.0" stroke="#000000" stroke-dasharray="10, 0" stroke-width="4" width="300" x="370" y="595.0" /><text lengthAdjust="spacingAndGlyphs" textLength="300" x="370" y="632.5">Key words for use in RFCs to Indicate Requirement Levels</text></svg>