<?xml version="1.0" encoding="utf-8" ?>
<svg baseProfile="full" height="1940" version="1.1" width="5355" xmlns="http://www.w3.org/2000/svg" xmlns:ev="http://www.w3.org/2001/xml-events" xmlns:xlink="http://www.w3.org/1999/xlink"><defs /><rect fill="#ffcccc" height="450" stroke="#000000" width="150" x="170" y="70" /><text lengthAdjust="spacing" textLength="[150]" writing-mode="tb" x="180" y="80">General Area</text><rect fill="#ffe6cc" height="225" stroke="#000000" width="150" x="170" y="520" /><text lengthAdjust="spacing" textLength="[150]" writing-mode="tb" x="180" y="530">Internet Engineering Steering Group</text><rect fill="#d9ffcc" height="450" stroke="#000000" width="150" x="170" y="745" /><text lengthAdjust="spacing" textLength="[150]" writing-mode="tb" x="180" y="755">Operations and Management Area</text><rect fill="#ccffe6" height="450" stroke="#000000" width="150" x="170" y="1195" /><text lengthAdjust="spacing" textLength="[150]" writing-mode="tb" x="180" y="1205">Security Area</text><rect fill="#ccf2ff" height="75" stroke="#000000" width="150" x="170" y="1645" /><text lengthAdjust="spacing" textLength="[150]" writing-mode="tb" x="180" y="1655">Transport Area</text><rect fill="#ccccff" height="75" stroke="#000000" width="150" x="170" y="1720" /><text lengthAdjust="spacing" textLength="[150]" writing-mode="tb" x="180" y="1730">IETF</text><rect fill="#ffcccc" height="375" stroke="#000000" width="4965" x="320" y="70" /><text lengthAdjust="spacing" textLength="[150]" x="330" y="90">Individual Submissions</text><line stroke="#000000" stroke-width="2" x1="520" x2="520" y1="70" y2="445" /><rect fill="#ffcccc" height="75" stroke="#000000" width="4965" x="320" y="445" /><text lengthAdjust="spacing" textLength="[150]" x="330" y="465">Poised 95</text><line stroke="#000000" stroke-width="2" x1="520" x2="520" y1="445" y2="520" /><rect fill="#ffe6cc" height="75" stroke="#000000" width="4965" x="320" y="520" /><text lengthAdjust="spacing" textLength="[150]" x="330" y="540">General Area</text><line stroke="#000000" stroke-width="2" x1="520" x2="520" y1="520" y2="595" /><rect fill="#ffe6cc" height="150" stroke="#000000" width="4965" x="320" y="595" /><text lengthAdjust="spacing" textLength="[150]" x="330" y="615">Operations and Management Area</text><line stroke="#000000" stroke-width="2" x1="520" x2="520" y1="595" y2="745" /><rect fill="#d9ffcc" height="75" stroke="#000000" width="4965" x="320" y="745" /><text lengthAdjust="spacing" textLength="[150]" x="330" y="765">Authentication, Authorization and Accounting</text><line stroke="#000000" stroke-width="2" x1="520" x2="520" y1="745" y2="820" /><rect fill="#d9ffcc" height="75" stroke="#000000" width="4965" x="320" y="820" /><text lengthAdjust="spacing" textLength="[150]" x="330" y="840">Network Access Server Requirements</text><line stroke="#000000" stroke-width="2" x1="520" x2="520" y1="820" y2="895" /><rect fill="#d9ffcc" height="225" stroke="#000000" width="4965" x="320" y="895" /><text lengthAdjust="spacing" textLength="[150]" x="330" y="915">Remote Authentication Dial-In User Service</text><line stroke="#000000" stroke-width="2" x1="520" x2="520" y1="895" y2="1120" /><rect fill="#d9ffcc" height="75" stroke="#000000" width="4965" x="320" y="1120" /><text lengthAdjust="spacing" textLength="[150]" x="330" y="1140">Roaming Operations</text><line stroke="#000000" stroke-width="2" x1="520" x2="520" y1="1120" y2="1195" /><rect fill="#ccffe6" height="75" stroke="#000000" width="4965" x="320" y="1195" /><text lengthAdjust="spacing" textLength="[150]" x="330" y="1215">Public-Key Infrastructure (X.509)</text><line stroke="#000000" stroke-width="2" x1="520" x2="520" y1="1195" y2="1270" /><rect fill="#ccffe6" height="300" stroke="#000000" width="4965" x="320" y="1270" /><text lengthAdjust="spacing" textLength="[150]" x="330" y="1290">IP Security Protocol</text><line stroke="#000000" stroke-width="2" x1="520" x2="520" y1="1270" y2="1570" /><rect fill="#ccffe6" height="75" stroke="#000000" width="4965" x="320" y="1570" /><text lengthAdjust="spacing" textLength="[150]" x="330" y="1590">Privacy-Enhanced Electronic Mail</text><line stroke="#000000" stroke-width="2" x1="520" x2="520" y1="1570" y2="1645" /><rect fill="#ccf2ff" height="75" stroke="#000000" width="4965" x="320" y="1645" /><text lengthAdjust="spacing" textLength="[150]" x="330" y="1665">Differentiated Services</text><line stroke="#000000" stroke-width="2" x1="520" x2="520" y1="1645" y2="1720" /><rect fill="#ccccff" height="75" stroke="#000000" width="4965" x="320" y="1720" /><text lengthAdjust="spacing" textLength="[150]" x="330" y="1740">Internet Engineering Steering Group</text><line stroke="#000000" stroke-width="2" x1="520" x2="520" y1="1720" y2="1795" /><line stroke="#000000" stroke-width="2" x1="520" x2="5035" y1="1870" y2="1870" /><line stroke="#000000" stroke-width="2" x1="520" x2="520" y1="1890" y2="1850" /><line stroke="#000000" stroke-width="2" x1="5035" x2="5035" y1="1890" y2="1850" /><text x="450" y="1905">1991-07-08 00:00:01</text><text x="4965" y="1905">2003-11-17 00:00:20</text><line stroke="#111111" stroke-opacity="0.3" stroke-width="2" x1="696" x2="696" y1="1795" y2="70" /><line stroke="#000000" stroke-width="2" x1="696" x2="696" y1="1880" y2="1860" /><text x="626" y="1835">1992-01-01 00:00:00</text><line stroke="#111111" stroke-opacity="0.3" stroke-width="2" x1="1062" x2="1062" y1="1795" y2="70" /><line stroke="#000000" stroke-width="2" x1="1062" x2="1062" y1="1880" y2="1860" /><text x="992" y="1835">1993-01-01 00:00:00</text><line stroke="#111111" stroke-opacity="0.3" stroke-width="2" x1="1427" x2="1427" y1="1795" y2="70" /><line stroke="#000000" stroke-width="2" x1="1427" x2="1427" y1="1880" y2="1860" /><text x="1357" y="1835">1994-01-01 00:00:00</text><line stroke="#111111" stroke-opacity="0.3" stroke-width="2" x1="1792" x2="1792" y1="1795" y2="70" /><line stroke="#000000" stroke-width="2" x1="1792" x2="1792" y1="1880" y2="1860" /><text x="1722" y="1835">1995-01-01 00:00:00</text><line stroke="#111111" stroke-opacity="0.3" stroke-width="2" x1="2157" x2="2157" y1="1795" y2="70" /><line stroke="#000000" stroke-width="2" x1="2157" x2="2157" y1="1880" y2="1860" /><text x="2087" y="1835">1996-01-01 00:00:00</text><line stroke="#111111" stroke-opacity="0.3" stroke-width="2" x1="2523" x2="2523" y1="1795" y2="70" /><line stroke="#000000" stroke-width="2" x1="2523" x2="2523" y1="1880" y2="1860" /><text x="2453" y="1835">1997-01-01 00:00:00</text><line stroke="#111111" stroke-opacity="0.3" stroke-width="2" x1="2888" x2="2888" y1="1795" y2="70" /><line stroke="#000000" stroke-width="2" x1="2888" x2="2888" y1="1880" y2="1860" /><text x="2818" y="1835">1998-01-01 00:00:00</text><line stroke="#111111" stroke-opacity="0.3" stroke-width="2" x1="3253" x2="3253" y1="1795" y2="70" /><line stroke="#000000" stroke-width="2" x1="3253" x2="3253" y1="1880" y2="1860" /><text x="3183" y="1835">1999-01-01 00:00:00</text><line stroke="#111111" stroke-opacity="0.3" stroke-width="2" x1="3618" x2="3618" y1="1795" y2="70" /><line stroke="#000000" stroke-width="2" x1="3618" x2="3618" y1="1880" y2="1860" /><text x="3548" y="1835">2000-01-01 00:00:00</text><line stroke="#111111" stroke-opacity="0.3" stroke-width="2" x1="3984" x2="3984" y1="1795" y2="70" /><line stroke="#000000" stroke-width="2" x1="3984" x2="3984" y1="1880" y2="1860" /><text x="3914" y="1835">2001-01-01 00:00:00</text><line stroke="#111111" stroke-opacity="0.3" stroke-width="2" x1="4349" x2="4349" y1="1795" y2="70" /><line stroke="#000000" stroke-width="2" x1="4349" x2="4349" y1="1880" y2="1860" /><text x="4279" y="1835">2002-01-01 00:00:00</text><line stroke="#111111" stroke-opacity="0.3" stroke-width="2" x1="4714" x2="4714" y1="1795" y2="70" /><line stroke="#000000" stroke-width="2" x1="4714" x2="4714" y1="1880" y2="1860" /><text x="4644" y="1835">2003-01-01 00:00:00</text><rect fill="#ff6666" height="75" stroke="#000000" stroke-dasharray="10, 5" stroke-width="4" width="150" x="-3474" y="70" /><text lengthAdjust="spacingAndGlyphs" textLength="150" x="-3474" y="107.5">User Datagram Protocol</text><line stroke="#111111" stroke-opacity="0.3" stroke-width="1" x1="520" x2="5035" y1="145" y2="145" /><rect fill="#ff6666" height="75" stroke="#000000" stroke-dasharray="10, 0" stroke-width="4" width="355" x="3841" y="145" /><text lengthAdjust="spacingAndGlyphs" textLength="355" x="3841" y="182.5">RADIUS and IPv6</text><line stroke="#111111" stroke-opacity="0.3" stroke-width="1" x1="520" x2="5035" y1="220" y2="220" /><circle centre="(4160, 257.5)" cx="0" cy="0" fill="#ffffff" r="10" /><circle centre="(4149, 257.5)" cx="0" cy="0" fill="#ffffff" r="10" /><circle centre="(4140, 257.5)" cx="0" cy="0" fill="#ffffff" r="10" /><circle centre="(4049, 257.5)" cx="0" cy="0" fill="#ffffff" r="10" /><circle centre="(4045, 257.5)" cx="0" cy="0" fill="#ffffff" r="10" /><circle centre="(3994, 257.5)" cx="0" cy="0" fill="#ffffff" r="10" /><circle centre="(3993, 257.5)" cx="0" cy="0" fill="#ffffff" r="10" /><circle centre="(3950, 257.5)" cx="0" cy="0" fill="#ffffff" r="10" /><circle centre="(3860, 257.5)" cx="0" cy="0" fill="#ffffff" r="10" /><circle centre="(3859, 257.5)" cx="0" cy="0" fill="#ffffff" r="10" /><circle centre="(3841, 257.5)" cx="0" cy="0" fill="#ffffff" r="10" /><rect fill="#ff6666" height="75" stroke="#000000" stroke-dasharray="10, 0" stroke-width="4" width="179" x="2403" y="220" /><text lengthAdjust="spacingAndGlyphs" textLength="179" x="2403" y="257.5">Key words for use in RFCs to Indicate Requirement Levels</text><line stroke="#111111" stroke-opacity="0.3" stroke-width="1" x1="520" x2="5035" y1="295" y2="295" /><circle centre="(2403, 332.5)" cx="0" cy="0" fill="#ffffff" r="10" /><rect fill="#ff6666" height="75" stroke="#000000" stroke-dasharray="10, 0" stroke-width="4" width="179" x="2403" y="295" /><text lengthAdjust="spacingAndGlyphs" textLength="179" x="2403" y="332.5">Key words for use in RFCs to Indicate Requirement Levels</text><line stroke="#111111" stroke-opacity="0.3" stroke-width="1" x1="520" x2="5035" y1="370" y2="370" /><circle centre="(2403, 407.5)" cx="0" cy="0" fill="#ffffff" r="10" /><rect fill="#ff6666" height="75" stroke="#000000" stroke-dasharray="10, 0" stroke-width="4" width="236" x="520" y="370" /><text lengthAdjust="spacingAndGlyphs" textLength="236" x="520" y="407.5">Network Time Protocol (Version 3) Specification, Implementation and Analysis</text><line stroke="#111111" stroke-opacity="0.3" stroke-width="1" x1="520" x2="5035" y1="445" y2="445" /><circle centre="(520, 482.5)" cx="0" cy="0" fill="#ffffff" r="10" /><rect fill="#ff6666" height="75" stroke="#000000" stroke-dasharray="10, 0" stroke-width="1" width="222" x="2209" y="445" /><text lengthAdjust="spacingAndGlyphs" textLength="222" x="2209" y="482.5">The Organizations Involved in the IETF Standards Process</text><line stroke="#111111" stroke-opacity="0.3" stroke-width="1" x1="520" x2="5035" y1="520" y2="520" /><circle centre="(2292, 557.5)" cx="0" cy="0" fill="#ffffff" r="10" /><circle centre="(2278, 557.5)" cx="0" cy="0" fill="#ffffff" r="10" /><circle centre="(2209, 557.5)" cx="0" cy="0" fill="#ffffff" r="10" /><rect fill="#ffb366" height="75" stroke="#000000" stroke-dasharray="10, 0" stroke-width="4" width="1379" x="5300" y="520" /><text lengthAdjust="spacingAndGlyphs" textLength="1379" x="5300" y="557.5">Guidelines for Writing an IANA Considerations Section in RFCs</text><line stroke="#111111" stroke-opacity="0.3" stroke-width="1" x1="520" x2="5035" y1="595" y2="595" /><circle centre="(6626, 632.5)" cx="0" cy="0" fill="#ffffff" r="10" /><circle centre="(6453, 632.5)" cx="0" cy="0" fill="#ffffff" r="10" /><circle centre="(6368, 632.5)" cx="0" cy="0" fill="#ffffff" r="10" /><circle centre="(6243, 632.5)" cx="0" cy="0" fill="#ffffff" r="10" /><circle centre="(6072, 632.5)" cx="0" cy="0" fill="#ffffff" r="10" /><circle centre="(5876, 632.5)" cx="0" cy="0" fill="#ffffff" r="10" /><circle centre="(5745, 632.5)" cx="0" cy="0" fill="#ffffff" r="10" /><circle centre="(5624, 632.5)" cx="0" cy="0" fill="#ffffff" r="10" /><circle centre="(5340, 632.5)" cx="0" cy="0" fill="#ffffff" r="10" /><circle centre="(5300, 632.5)" cx="0" cy="0" fill="#ffffff" r="10" /><rect fill="#ffb366" height="75" stroke="#000000" stroke-dasharray="10, 0" stroke-width="4" width="170" x="4754" y="595" /><text lengthAdjust="spacingAndGlyphs" textLength="170" x="4754" y="632.5">IANA Considerations for RADIUS (Remote Authentication Dial In User Service)</text><line stroke="#111111" stroke-opacity="0.3" stroke-width="1" x1="520" x2="5035" y1="670" y2="670" /><circle centre="(4828, 707.5)" cx="0" cy="0" fill="#ffffff" r="10" /><circle centre="(4822, 707.5)" cx="0" cy="0" fill="#ffffff" r="10" /><circle centre="(4813, 707.5)" cx="0" cy="0" fill="#ffffff" r="10" /><circle centre="(4806, 707.5)" cx="0" cy="0" fill="#ffffff" r="10" /><circle centre="(4804, 707.5)" cx="0" cy="0" fill="#ffffff" r="10" /><circle centre="(4797, 707.5)" cx="0" cy="0" fill="#ffffff" r="10" /><circle centre="(4757, 707.5)" cx="0" cy="0" fill="#ffffff" r="10" /><circle centre="(4754, 707.5)" cx="0" cy="0" fill="#ffffff" r="10" /><rect fill="#ffb366" height="75" stroke="#000000" stroke-dasharray="10, 0" stroke-width="10" width="1000" x="3924" y="670" /><text lengthAdjust="spacingAndGlyphs" textLength="1000" x="3924" y="707.5">Dynamic Authorization Extensions to Remote Authentication Dial In User Service (RADIUS)</text><line stroke="#111111" stroke-opacity="0.3" stroke-width="1" x1="520" x2="5035" y1="745" y2="745" /><circle centre="(4850, 782.5)" cx="0" cy="0" fill="#ffffff" r="10" /><circle centre="(4848, 782.5)" cx="0" cy="0" fill="#ffffff" r="10" /><circle centre="(4827, 782.5)" cx="0" cy="0" fill="#ffffff" r="10" /><circle centre="(4826, 782.5)" cx="0" cy="0" fill="#ffffff" r="10" /><circle centre="(4822, 782.5)" cx="0" cy="0" fill="#ffffff" r="10" /><circle centre="(4820, 782.5)" cx="0" cy="0" fill="#ffffff" r="10" /><circle centre="(4818, 782.5)" cx="0" cy="0" fill="#ffffff" r="10" /><circle centre="(4814, 782.5)" cx="0" cy="0" fill="#ffffff" r="10" /><circle centre="(4813, 782.5)" cx="0" cy="0" fill="#ffffff" r="10" /><circle centre="(4811, 782.5)" cx="0" cy="0" fill="#ffffff" r="10" /><circle centre="(4807, 782.5)" cx="0" cy="0" fill="#ffffff" r="10" /><circle centre="(4797, 782.5)" cx="0" cy="0" fill="#ffffff" r="10" /><circle centre="(4764, 782.5)" cx="0" cy="0" fill="#ffffff" r="10" /><circle centre="(4735, 782.5)" cx="0" cy="0" fill="#ffffff" r="10" /><circle centre="(4589, 782.5)" cx="0" cy="0" fill="#ffffff" r="10" /><circle centre="(4518, 782.5)" cx="0" cy="0" fill="#ffffff" r="10" /><circle centre="(4511, 782.5)" cx="0" cy="0" fill="#ffffff" r="10" /><circle centre="(4486, 782.5)" cx="0" cy="0" fill="#ffffff" r="10" /><circle centre="(4415, 782.5)" cx="0" cy="0" fill="#ffffff" r="10" /><circle centre="(3924, 782.5)" cx="0" cy="0" fill="#ffffff" r="10" /><rect fill="#8cff66" height="75" stroke="#000000" stroke-dasharray="10, 0" stroke-width="1" width="942" x="3942" y="745" /><text lengthAdjust="spacingAndGlyphs" textLength="942" x="3942" y="782.5">Authentication, Authorization and Accounting (AAA) Transport Profile</text><line stroke="#111111" stroke-opacity="0.3" stroke-width="1" x1="520" x2="5035" y1="820" y2="820" /><circle centre="(4721, 857.5)" cx="0" cy="0" fill="#ffffff" r="10" /><circle centre="(4720, 857.5)" cx="0" cy="0" fill="#ffffff" r="10" /><circle centre="(4706, 857.5)" cx="0" cy="0" fill="#ffffff" r="10" /><circle centre="(4692, 857.5)" cx="0" cy="0" fill="#ffffff" r="10" /><circle centre="(4629, 857.5)" cx="0" cy="0" fill="#ffffff" r="10" /><circle centre="(4454, 857.5)" cx="0" cy="0" fill="#ffffff" r="10" /><circle centre="(4447, 857.5)" cx="0" cy="0" fill="#ffffff" r="10" /><circle centre="(4315, 857.5)" cx="0" cy="0" fill="#ffffff" r="10" /><circle centre="(4149, 857.5)" cx="0" cy="0" fill="#ffffff" r="10" /><circle centre="(4134, 857.5)" cx="0" cy="0" fill="#ffffff" r="10" /><circle centre="(4122, 857.5)" cx="0" cy="0" fill="#ffffff" r="10" /><circle centre="(4037, 857.5)" cx="0" cy="0" fill="#ffffff" r="10" /><circle centre="(3942, 857.5)" cx="0" cy="0" fill="#ffffff" r="10" /><rect fill="#8cff66" height="75" stroke="#000000" stroke-dasharray="10, 0" stroke-width="1" width="367" x="3433" y="820" /><text lengthAdjust="spacingAndGlyphs" textLength="367" x="3433" y="857.5">Network Access Servers Requirements: Extended RADIUS Practices</text><line stroke="#111111" stroke-opacity="0.3" stroke-width="1" x1="520" x2="5035" y1="895" y2="895" /><circle centre="(3756, 932.5)" cx="0" cy="0" fill="#ffffff" r="10" /><circle centre="(3664, 932.5)" cx="0" cy="0" fill="#ffffff" r="10" /><circle centre="(3537, 932.5)" cx="0" cy="0" fill="#ffffff" r="10" /><circle centre="(3433, 932.5)" cx="0" cy="0" fill="#ffffff" r="10" /><rect fill="#8cff66" height="75" stroke="#000000" stroke-dasharray="10, 0" stroke-width="4" width="455" x="3315" y="895" /><text lengthAdjust="spacingAndGlyphs" textLength="455" x="3315" y="932.5">Remote Authentication Dial In User Service (RADIUS)</text><line stroke="#111111" stroke-opacity="0.3" stroke-width="1" x1="520" x2="5035" y1="970" y2="970" /><circle centre="(3672, 1007.5)" cx="0" cy="0" fill="#ffffff" r="10" /><circle centre="(3663, 1007.5)" cx="0" cy="0" fill="#ffffff" r="10" /><circle centre="(3623, 1007.5)" cx="0" cy="0" fill="#ffffff" r="10" /><circle centre="(3590, 1007.5)" cx="0" cy="0" fill="#ffffff" r="10" /><circle centre="(3385, 1007.5)" cx="0" cy="0" fill="#ffffff" r="10" /><circle centre="(3315, 1007.5)" cx="0" cy="0" fill="#ffffff" r="10" /><rect fill="#8cff66" height="75" stroke="#000000" stroke-dasharray="10, 0" stroke-width="4" width="455" x="3315" y="970" /><text lengthAdjust="spacingAndGlyphs" textLength="455" x="3315" y="1007.5">RADIUS Accounting</text><line stroke="#111111" stroke-opacity="0.3" stroke-width="1" x1="520" x2="5035" y1="1045" y2="1045" /><circle centre="(3672, 1082.5)" cx="0" cy="0" fill="#ffffff" r="10" /><circle centre="(3663, 1082.5)" cx="0" cy="0" fill="#ffffff" r="10" /><circle centre="(3590, 1082.5)" cx="0" cy="0" fill="#ffffff" r="10" /><circle centre="(3385, 1082.5)" cx="0" cy="0" fill="#ffffff" r="10" /><circle centre="(3315, 1082.5)" cx="0" cy="0" fill="#ffffff" r="10" /><rect fill="#8cff66" height="75" stroke="#000000" stroke-dasharray="10, 0" stroke-width="4" width="783" x="2987" y="1045" /><text lengthAdjust="spacingAndGlyphs" textLength="783" x="2987" y="1082.5">RADIUS Extensions</text><line stroke="#111111" stroke-opacity="0.3" stroke-width="1" x1="520" x2="5035" y1="1120" y2="1120" /><circle centre="(3663, 1157.5)" cx="0" cy="0" fill="#ffffff" r="10" /><circle centre="(3590, 1157.5)" cx="0" cy="0" fill="#ffffff" r="10" /><circle centre="(3385, 1157.5)" cx="0" cy="0" fill="#ffffff" r="10" /><circle centre="(3316, 1157.5)" cx="0" cy="0" fill="#ffffff" r="10" /><circle centre="(3169, 1157.5)" cx="0" cy="0" fill="#ffffff" r="10" /><circle centre="(2987, 1157.5)" cx="0" cy="0" fill="#ffffff" r="10" /><rect fill="#8cff66" height="75" stroke="#000000" stroke-dasharray="10, 0" stroke-width="4" width="765" x="2488" y="1120" /><text lengthAdjust="spacingAndGlyphs" textLength="765" x="2488" y="1157.5">The Network Access Identifier</text><line stroke="#111111" stroke-opacity="0.3" stroke-width="1" x1="520" x2="5035" y1="1195" y2="1195" /><circle centre="(3212, 1232.5)" cx="0" cy="0" fill="#ffffff" r="10" /><circle centre="(3114, 1232.5)" cx="0" cy="0" fill="#ffffff" r="10" /><circle centre="(3005, 1232.5)" cx="0" cy="0" fill="#ffffff" r="10" /><circle centre="(2965, 1232.5)" cx="0" cy="0" fill="#ffffff" r="10" /><circle centre="(2935, 1232.5)" cx="0" cy="0" fill="#ffffff" r="10" /><circle centre="(2775, 1232.5)" cx="0" cy="0" fill="#ffffff" r="10" /><circle centre="(2727, 1232.5)" cx="0" cy="0" fill="#ffffff" r="10" /><circle centre="(2690, 1232.5)" cx="0" cy="0" fill="#ffffff" r="10" /><circle centre="(2683, 1232.5)" cx="0" cy="0" fill="#ffffff" r="10" /><circle centre="(2665, 1232.5)" cx="0" cy="0" fill="#ffffff" r="10" /><circle centre="(2588, 1232.5)" cx="0" cy="0" fill="#ffffff" r="10" /><circle centre="(2582, 1232.5)" cx="0" cy="0" fill="#ffffff" r="10" /><circle centre="(2488, 1232.5)" cx="0" cy="0" fill="#ffffff" r="10" /><rect fill="#66ffb3" height="75" stroke="#000000" stroke-dasharray="10, 0" stroke-width="4" width="927" x="3551" y="1195" /><text lengthAdjust="spacingAndGlyphs" textLength="927" x="3551" y="1232.5">Internet X.509 Public Key Infrastructure Certificate and Certificate Revocation List (CRL) Profile</text><line stroke="#111111" stroke-opacity="0.3" stroke-width="1" x1="520" x2="5035" y1="1270" y2="1270" /><circle centre="(4367, 1307.5)" cx="0" cy="0" fill="#ffffff" r="10" /><circle centre="(4282, 1307.5)" cx="0" cy="0" fill="#ffffff" r="10" /><circle centre="(4275, 1307.5)" cx="0" cy="0" fill="#ffffff" r="10" /><circle centre="(4272, 1307.5)" cx="0" cy="0" fill="#ffffff" r="10" /><circle centre="(4167, 1307.5)" cx="0" cy="0" fill="#ffffff" r="10" /><circle centre="(4149, 1307.5)" cx="0" cy="0" fill="#ffffff" r="10" /><circle centre="(4083, 1307.5)" cx="0" cy="0" fill="#ffffff" r="10" /><circle centre="(4051, 1307.5)" cx="0" cy="0" fill="#ffffff" r="10" /><circle centre="(4022, 1307.5)" cx="0" cy="0" fill="#ffffff" r="10" /><circle centre="(3944, 1307.5)" cx="0" cy="0" fill="#ffffff" r="10" /><circle centre="(3821, 1307.5)" cx="0" cy="0" fill="#ffffff" r="10" /><circle centre="(3694, 1307.5)" cx="0" cy="0" fill="#ffffff" r="10" /><circle centre="(3551, 1307.5)" cx="0" cy="0" fill="#ffffff" r="10" /><rect fill="#66ffb3" height="75" stroke="#000000" stroke-dasharray="10, 0" stroke-width="4" width="873" x="2319" y="1270" /><text lengthAdjust="spacingAndGlyphs" textLength="873" x="2319" y="1307.5">Security Architecture for the Internet Protocol</text><line stroke="#111111" stroke-opacity="0.3" stroke-width="1" x1="520" x2="5035" y1="1345" y2="1345" /><circle centre="(3076, 1382.5)" cx="0" cy="0" fill="#ffffff" r="10" /><circle centre="(3021, 1382.5)" cx="0" cy="0" fill="#ffffff" r="10" /><circle centre="(2985, 1382.5)" cx="0" cy="0" fill="#ffffff" r="10" /><circle centre="(2946, 1382.5)" cx="0" cy="0" fill="#ffffff" r="10" /><circle centre="(2841, 1382.5)" cx="0" cy="0" fill="#ffffff" r="10" /><circle centre="(2476, 1382.5)" cx="0" cy="0" fill="#ffffff" r="10" /><circle centre="(2319, 1382.5)" cx="0" cy="0" fill="#ffffff" r="10" /><rect fill="#66ffb3" height="75" stroke="#000000" stroke-dasharray="10, 0" stroke-width="4" width="467" x="2725" y="1345" /><text lengthAdjust="spacingAndGlyphs" textLength="467" x="2725" y="1382.5">IP Encapsulating Security Payload (ESP)</text><line stroke="#111111" stroke-opacity="0.3" stroke-width="1" x1="520" x2="5035" y1="1420" y2="1420" /><circle centre="(3021, 1457.5)" cx="0" cy="0" fill="#ffffff" r="10" /><circle centre="(2985, 1457.5)" cx="0" cy="0" fill="#ffffff" r="10" /><circle centre="(2932, 1457.5)" cx="0" cy="0" fill="#ffffff" r="10" /><circle centre="(2851, 1457.5)" cx="0" cy="0" fill="#ffffff" r="10" /><circle centre="(2802, 1457.5)" cx="0" cy="0" fill="#ffffff" r="10" /><circle centre="(2725, 1457.5)" cx="0" cy="0" fill="#ffffff" r="10" /><rect fill="#66ffb3" height="75" stroke="#000000" stroke-dasharray="10, 0" stroke-width="4" width="870" x="2322" y="1420" /><text lengthAdjust="spacingAndGlyphs" textLength="870" x="2322" y="1457.5">The Internet Key Exchange (IKE)</text><line stroke="#111111" stroke-opacity="0.3" stroke-width="1" x1="520" x2="5035" y1="1495" y2="1495" /><circle centre="(2985, 1532.5)" cx="0" cy="0" fill="#ffffff" r="10" /><circle centre="(2932, 1532.5)" cx="0" cy="0" fill="#ffffff" r="10" /><circle centre="(2844, 1532.5)" cx="0" cy="0" fill="#ffffff" r="10" /><circle centre="(2720, 1532.5)" cx="0" cy="0" fill="#ffffff" r="10" /><circle centre="(2580, 1532.5)" cx="0" cy="0" fill="#ffffff" r="10" /><circle centre="(2484, 1532.5)" cx="0" cy="0" fill="#ffffff" r="10" /><circle centre="(2481, 1532.5)" cx="0" cy="0" fill="#ffffff" r="10" /><circle centre="(2322, 1532.5)" cx="0" cy="0" fill="#ffffff" r="10" /><rect fill="#66ffb3" height="75" stroke="#000000" stroke-dasharray="10, 0" stroke-width="4" width="308" x="2246" y="1495" /><text lengthAdjust="spacingAndGlyphs" textLength="308" x="2246" y="1532.5">HMAC: Keyed-Hashing for Message Authentication</text><line stroke="#111111" stroke-opacity="0.3" stroke-width="1" x1="520" x2="5035" y1="1570" y2="1570" /><circle centre="(2246, 1607.5)" cx="0" cy="0" fill="#ffffff" r="10" /><rect fill="#66ffb3" height="75" stroke="#000000" stroke-dasharray="10, 0" stroke-width="4" width="150" x="790" y="1570" /><text lengthAdjust="spacingAndGlyphs" textLength="150" x="790" y="1607.5">The MD5 Message-Digest Algorithm</text><line stroke="#111111" stroke-opacity="0.3" stroke-width="1" x1="520" x2="5035" y1="1645" y2="1645" /><circle centre="(790, 1682.5)" cx="0" cy="0" fill="#ffffff" r="10" /><rect fill="#66d9ff" height="75" stroke="#000000" stroke-dasharray="10, 0" stroke-width="1" width="215" x="3677" y="1645" /><text lengthAdjust="spacingAndGlyphs" textLength="215" x="3677" y="1682.5">Differentiated Services and Tunnels</text><line stroke="#111111" stroke-opacity="0.3" stroke-width="1" x1="520" x2="5035" y1="1720" y2="1720" /><circle centre="(3813, 1757.5)" cx="0" cy="0" fill="#ffffff" r="10" /><circle centre="(3790, 1757.5)" cx="0" cy="0" fill="#ffffff" r="10" /><circle centre="(3677, 1757.5)" cx="0" cy="0" fill="#ffffff" r="10" /><rect fill="#6666ff" height="75" stroke="#000000" stroke-dasharray="10, 0" stroke-width="4" width="360" x="2801" y="1720" /><text lengthAdjust="spacingAndGlyphs" textLength="360" x="2801" y="1757.5">Guidelines for Writing an IANA Considerations Section in RFCs</text><line stroke="#111111" stroke-opacity="0.3" stroke-width="1" x1="520" x2="5035" y1="1795" y2="1795" /><circle centre="(3152, 1832.5)" cx="0" cy="0" fill="#ffffff" r="10" /><circle centre="(3031, 1832.5)" cx="0" cy="0" fill="#ffffff" r="10" /><circle centre="(2985, 1832.5)" cx="0" cy="0" fill="#ffffff" r="10" /><circle centre="(2918, 1832.5)" cx="0" cy="0" fill="#ffffff" r="10" /><circle centre="(2853, 1832.5)" cx="0" cy="0" fill="#ffffff" r="10" /><circle centre="(2801, 1832.5)" cx="0" cy="0" fill="#ffffff" r="10" /></svg>