<?xml version="1.0" encoding="utf-8" ?>
<svg baseProfile="full" height="1340" version="1.1" width="8225" xmlns="http://www.w3.org/2000/svg" xmlns:ev="http://www.w3.org/2001/xml-events" xmlns:xlink="http://www.w3.org/1999/xlink"><defs /><rect fill="#ffcccc" height="150" stroke="#000000" width="150" x="170" y="70" /><text lengthAdjust="spacing" textLength="[150]" writing-mode="tb" x="180" y="80">Applications Area</text><rect fill="#ffe6cc" height="450" stroke="#000000" width="150" x="170" y="220" /><text lengthAdjust="spacing" textLength="[150]" writing-mode="tb" x="180" y="230">Applications and Real-Time Area</text><rect fill="#d9ffcc" height="150" stroke="#000000" width="150" x="170" y="670" /><text lengthAdjust="spacing" textLength="[150]" writing-mode="tb" x="180" y="680">Internet Engineering Steering Group</text><rect fill="#ccffe6" height="150" stroke="#000000" width="150" x="170" y="820" /><text lengthAdjust="spacing" textLength="[150]" writing-mode="tb" x="180" y="830">Security Area</text><rect fill="#ccf2ff" height="150" stroke="#000000" width="150" x="170" y="970" /><text lengthAdjust="spacing" textLength="[150]" writing-mode="tb" x="180" y="980">General Area</text><rect fill="#ffcccc" height="150" stroke="#000000" width="7835" x="320" y="70" /><text lengthAdjust="spacing" textLength="[150]" x="330" y="90">JavaScript Object Notation</text><rect fill="#ffe6cc" height="150" stroke="#000000" width="7835" x="320" y="220" /><text lengthAdjust="spacing" textLength="[150]" x="330" y="240">Content Delivery Networks Interconnection</text><rect fill="#ffe6cc" height="150" stroke="#000000" width="7835" x="320" y="370" /><text lengthAdjust="spacing" textLength="[150]" x="330" y="390">Using TLS in Applications</text><rect fill="#ffe6cc" height="150" stroke="#000000" width="7835" x="320" y="520" /><text lengthAdjust="spacing" textLength="[150]" x="330" y="540">Hypertext Transfer Protocol</text><rect fill="#d9ffcc" height="150" stroke="#000000" width="7835" x="320" y="670" /><text lengthAdjust="spacing" textLength="[150]" x="330" y="690">General Area</text><rect fill="#ccffe6" height="150" stroke="#000000" width="7835" x="320" y="820" /><text lengthAdjust="spacing" textLength="[150]" x="330" y="840">Transport Layer Security</text><rect fill="#ccf2ff" height="150" stroke="#000000" width="7835" x="320" y="970" /><text lengthAdjust="spacing" textLength="[150]" x="330" y="990">Individual Submissions</text><line stroke="#000000" stroke-width="2" x1="520" x2="7905" y1="1195.0" y2="1195.0" /><line stroke="#000000" stroke-width="2" x1="520" x2="520" y1="1215.0" y2="1175.0" /><line stroke="#000000" stroke-width="2" x1="7905" x2="7905" y1="1215.0" y2="1175.0" /><text x="450" y="1230.0">1996-09-02 00:00:02</text><text x="7835" y="1230.0">2016-11-21 14:01:24</text><line stroke="#111111" stroke-opacity="0.3" stroke-width="2" x1="640" x2="640" y1="1120" y2="70" /><line stroke="#000000" stroke-width="2" x1="640" x2="640" y1="1205.0" y2="1185.0" /><text x="570" y="1160.0">1997-01-01 00:00:00</text><line stroke="#111111" stroke-opacity="0.3" stroke-width="2" x1="1005" x2="1005" y1="1120" y2="70" /><line stroke="#000000" stroke-width="2" x1="1005" x2="1005" y1="1205.0" y2="1185.0" /><text x="935" y="1160.0">1998-01-01 00:00:00</text><line stroke="#111111" stroke-opacity="0.3" stroke-width="2" x1="1370" x2="1370" y1="1120" y2="70" /><line stroke="#000000" stroke-width="2" x1="1370" x2="1370" y1="1205.0" y2="1185.0" /><text x="1300" y="1160.0">1999-01-01 00:00:00</text><line stroke="#111111" stroke-opacity="0.3" stroke-width="2" x1="1735" x2="1735" y1="1120" y2="70" /><line stroke="#000000" stroke-width="2" x1="1735" x2="1735" y1="1205.0" y2="1185.0" /><text x="1665" y="1160.0">2000-01-01 00:00:00</text><line stroke="#111111" stroke-opacity="0.3" stroke-width="2" x1="2101" x2="2101" y1="1120" y2="70" /><line stroke="#000000" stroke-width="2" x1="2101" x2="2101" y1="1205.0" y2="1185.0" /><text x="2031" y="1160.0">2001-01-01 00:00:00</text><line stroke="#111111" stroke-opacity="0.3" stroke-width="2" x1="2466" x2="2466" y1="1120" y2="70" /><line stroke="#000000" stroke-width="2" x1="2466" x2="2466" y1="1205.0" y2="1185.0" /><text x="2396" y="1160.0">2002-01-01 00:00:00</text><line stroke="#111111" stroke-opacity="0.3" stroke-width="2" x1="2831" x2="2831" y1="1120" y2="70" /><line stroke="#000000" stroke-width="2" x1="2831" x2="2831" y1="1205.0" y2="1185.0" /><text x="2761" y="1160.0">2003-01-01 00:00:00</text><line stroke="#111111" stroke-opacity="0.3" stroke-width="2" x1="3196" x2="3196" y1="1120" y2="70" /><line stroke="#000000" stroke-width="2" x1="3196" x2="3196" y1="1205.0" y2="1185.0" /><text x="3126" y="1160.0">2004-01-01 00:00:00</text><line stroke="#111111" stroke-opacity="0.3" stroke-width="2" x1="3562" x2="3562" y1="1120" y2="70" /><line stroke="#000000" stroke-width="2" x1="3562" x2="3562" y1="1205.0" y2="1185.0" /><text x="3492" y="1160.0">2005-01-01 00:00:00</text><line stroke="#111111" stroke-opacity="0.3" stroke-width="2" x1="3927" x2="3927" y1="1120" y2="70" /><line stroke="#000000" stroke-width="2" x1="3927" x2="3927" y1="1205.0" y2="1185.0" /><text x="3857" y="1160.0">2006-01-01 00:00:00</text><line stroke="#111111" stroke-opacity="0.3" stroke-width="2" x1="4292" x2="4292" y1="1120" y2="70" /><line stroke="#000000" stroke-width="2" x1="4292" x2="4292" y1="1205.0" y2="1185.0" /><text x="4222" y="1160.0">2007-01-01 00:00:00</text><line stroke="#111111" stroke-opacity="0.3" stroke-width="2" x1="4657" x2="4657" y1="1120" y2="70" /><line stroke="#000000" stroke-width="2" x1="4657" x2="4657" y1="1205.0" y2="1185.0" /><text x="4587" y="1160.0">2008-01-01 00:00:00</text><line stroke="#111111" stroke-opacity="0.3" stroke-width="2" x1="5023" x2="5023" y1="1120" y2="70" /><line stroke="#000000" stroke-width="2" x1="5023" x2="5023" y1="1205.0" y2="1185.0" /><text x="4953" y="1160.0">2009-01-01 00:00:00</text><line stroke="#111111" stroke-opacity="0.3" stroke-width="2" x1="5388" x2="5388" y1="1120" y2="70" /><line stroke="#000000" stroke-width="2" x1="5388" x2="5388" y1="1205.0" y2="1185.0" /><text x="5318" y="1160.0">2010-01-01 00:00:00</text><line stroke="#111111" stroke-opacity="0.3" stroke-width="2" x1="5753" x2="5753" y1="1120" y2="70" /><line stroke="#000000" stroke-width="2" x1="5753" x2="5753" y1="1205.0" y2="1185.0" /><text x="5683" y="1160.0">2011-01-01 00:00:00</text><line stroke="#111111" stroke-opacity="0.3" stroke-width="2" x1="6118" x2="6118" y1="1120" y2="70" /><line stroke="#000000" stroke-width="2" x1="6118" x2="6118" y1="1205.0" y2="1185.0" /><text x="6048" y="1160.0">2012-01-01 00:00:00</text><line stroke="#111111" stroke-opacity="0.3" stroke-width="2" x1="6484" x2="6484" y1="1120" y2="70" /><line stroke="#000000" stroke-width="2" x1="6484" x2="6484" y1="1205.0" y2="1185.0" /><text x="6414" y="1160.0">2013-01-01 00:00:00</text><line stroke="#111111" stroke-opacity="0.3" stroke-width="2" x1="6849" x2="6849" y1="1120" y2="70" /><line stroke="#000000" stroke-width="2" x1="6849" x2="6849" y1="1205.0" y2="1185.0" /><text x="6779" y="1160.0">2014-01-01 00:00:00</text><line stroke="#111111" stroke-opacity="0.3" stroke-width="2" x1="7214" x2="7214" y1="1120" y2="70" /><line stroke="#000000" stroke-width="2" x1="7214" x2="7214" y1="1205.0" y2="1185.0" /><text x="7144" y="1160.0">2015-01-01 00:00:00</text><line stroke="#111111" stroke-opacity="0.3" stroke-width="2" x1="7579" x2="7579" y1="1120" y2="70" /><line stroke="#000000" stroke-width="2" x1="7579" x2="7579" y1="1205.0" y2="1185.0" /><text x="7509" y="1160.0">2016-01-01 00:00:00</text><rect fill="#ff6666" height="75.0" stroke="#000000" stroke-dasharray="10, 0" stroke-width="4" width="0" x="6761" y="70.0" /><text lengthAdjust="spacingAndGlyphs" textLength="0" x="6761" y="107.5">The JavaScript Object Notation (JSON) Data Interchange Format</text><rect fill="#ff6666" height="75.0" stroke="#000000" stroke-dasharray="10, 0" stroke-width="4" width="325" x="6819" y="145.0" /><text lengthAdjust="spacingAndGlyphs" textLength="325" x="6819" y="182.5">The I-JSON Message Format</text><rect fill="#ffb366" height="18.75" stroke="#000000" stroke-dasharray="10, 0" stroke-width="4" width="1533" x="6244" y="220.0" /><text lengthAdjust="spacingAndGlyphs" textLength="1533" x="6244" y="229.375">Content Delivery Network Interconnection (CDNI) Metadata</text><rect fill="#ffb366" height="18.75" stroke="#000000" stroke-dasharray="10, 0" stroke-width="4" width="1356" x="6315" y="238.75" /><text lengthAdjust="spacingAndGlyphs" textLength="1356" x="6315" y="248.125">Content Distribution Network Interconnection (CDNI) Logging Interface</text><rect fill="#ffb366" height="18.75" stroke="#000000" stroke-dasharray="10, 0" stroke-width="1" width="128" x="7293" y="257.5" /><text lengthAdjust="spacingAndGlyphs" textLength="128" x="7293" y="266.875">Content Delivery Network Interconnection (CDNI) Media Type Registration</text><rect fill="#ffb366" height="18.75" stroke="#000000" stroke-dasharray="10, 0" stroke-width="4" width="836" x="6086" y="276.25" /><text lengthAdjust="spacingAndGlyphs" textLength="836" x="6086" y="285.625">Framework for Content Distribution Network Interconnection (CDNI)</text><rect fill="#ffb366" height="18.75" stroke="#000000" stroke-dasharray="10, 0" stroke-width="1" width="1068" x="5854" y="295.0" /><text lengthAdjust="spacingAndGlyphs" textLength="1068" x="5854" y="304.375">Content Distribution Network Interconnection (CDNI) Requirements</text><rect fill="#ffb366" height="18.75" stroke="#000000" stroke-dasharray="10, 0" stroke-width="1" width="425" x="5867" y="313.75" /><text lengthAdjust="spacingAndGlyphs" textLength="425" x="5867" y="323.125">Use Cases for Content Delivery Network Interconnection</text><rect fill="#ffb366" height="18.75" stroke="#000000" stroke-dasharray="10, 0" stroke-width="1" width="383" x="5854" y="332.5" /><text lengthAdjust="spacingAndGlyphs" textLength="383" x="5854" y="341.875">Content Distribution Network Interconnection (CDNI) Problem Statement</text><rect fill="#ffb366" height="18.75" stroke="#000000" stroke-dasharray="10, 0" stroke-width="10" width="1245" x="6532" y="351.25" /><text lengthAdjust="spacingAndGlyphs" textLength="1245" x="6532" y="360.625">Content Delivery Network Interconnection (CDNI) Request Routing: Footprint and Capabilities Semantics</text><rect fill="#ffb366" height="75.0" stroke="#000000" stroke-dasharray="10, 0" stroke-width="1" width="403" x="6785" y="370.0" /><text lengthAdjust="spacingAndGlyphs" textLength="403" x="6785" y="407.5">Recommendations for Secure Use of Transport Layer Security (TLS) and Datagram Transport Layer Security (DTLS)</text><rect fill="#ffb366" height="75.0" stroke="#000000" stroke-dasharray="10, 0" stroke-width="1" width="403" x="6785" y="445.0" /><text lengthAdjust="spacingAndGlyphs" textLength="403" x="6785" y="482.5">Recommendations for Secure Use of Transport Layer Security (TLS) and Datagram Transport Layer Security (DTLS)</text><rect fill="#ffb366" height="150.0" stroke="#000000" stroke-dasharray="10, 0" stroke-width="1" width="2359" x="4496" y="520.0" /><text lengthAdjust="spacingAndGlyphs" textLength="2359" x="4496" y="595.0">Hypertext Transfer Protocol (HTTP/1.1): Message Syntax and Routing</text><rect fill="#8cff66" height="75.0" stroke="#000000" stroke-dasharray="10, 0" stroke-width="4" width="1379" x="3267" y="670.0" /><text lengthAdjust="spacingAndGlyphs" textLength="1379" x="3267" y="707.5">Guidelines for Writing an IANA Considerations Section in RFCs</text><rect fill="#8cff66" height="75.0" stroke="#000000" stroke-dasharray="10, 0" stroke-width="4" width="1379" x="3267" y="745.0" /><text lengthAdjust="spacingAndGlyphs" textLength="1379" x="3267" y="782.5">Guidelines for Writing an IANA Considerations Section in RFCs</text><rect fill="#66ffb3" height="150.0" stroke="#000000" stroke-dasharray="10, 0" stroke-width="1" width="825" x="881" y="820.0" /><text lengthAdjust="spacingAndGlyphs" textLength="825" x="881" y="895.0">HTTP Over TLS</text><rect fill="#66d9ff" height="75.0" stroke="#000000" stroke-dasharray="10, 0" stroke-width="4" width="179" x="370" y="970.0" /><text lengthAdjust="spacingAndGlyphs" textLength="179" x="370" y="1007.5">Key words for use in RFCs to Indicate Requirement Levels</text><rect fill="#66d9ff" height="75.0" stroke="#000000" stroke-dasharray="10, 0" stroke-width="4" width="179" x="370" y="1045.0" /><text lengthAdjust="spacingAndGlyphs" textLength="179" x="370" y="1082.5">Key words for use in RFCs to Indicate Requirement Levels</text></svg>