<?xml version="1.0" encoding="utf-8" ?>
<svg baseProfile="full" height="1190" version="1.1" width="5183" xmlns="http://www.w3.org/2000/svg" xmlns:ev="http://www.w3.org/2001/xml-events" xmlns:xlink="http://www.w3.org/1999/xlink"><defs /><rect fill="#ffcccc" height="300" stroke="#000000" width="150" x="170" y="70" /><text lengthAdjust="spacing" textLength="[150]" writing-mode="tb" x="180" y="80">General Area</text><rect fill="#ffe6cc" height="300" stroke="#000000" width="150" x="170" y="370" /><text lengthAdjust="spacing" textLength="[150]" writing-mode="tb" x="180" y="380">Real-time Applications and Infrastructure Area</text><rect fill="#d9ffcc" height="150" stroke="#000000" width="150" x="170" y="670" /><text lengthAdjust="spacing" textLength="[150]" writing-mode="tb" x="180" y="680">Security Area</text><rect fill="#ccffe6" height="150" stroke="#000000" width="150" x="170" y="820" /><text lengthAdjust="spacing" textLength="[150]" writing-mode="tb" x="180" y="830">Applications Area</text><rect fill="#ffcccc" height="150" stroke="#000000" width="4793" x="320" y="70" /><text lengthAdjust="spacing" textLength="[150]" x="330" y="90">Individual Submissions</text><rect fill="#ffcccc" height="150" stroke="#000000" width="4793" x="320" y="220" /><text lengthAdjust="spacing" textLength="[150]" x="330" y="240">Intellectual Property Rights</text><rect fill="#ffe6cc" height="150" stroke="#000000" width="4793" x="320" y="370" /><text lengthAdjust="spacing" textLength="[150]" x="330" y="390">SIP for Instant Messaging and Presence Leveraging Extensions</text><rect fill="#ffe6cc" height="150" stroke="#000000" width="4793" x="320" y="520" /><text lengthAdjust="spacing" textLength="[150]" x="330" y="540">Session Initiation Protocol</text><rect fill="#d9ffcc" height="150" stroke="#000000" width="4793" x="320" y="670" /><text lengthAdjust="spacing" textLength="[150]" x="330" y="690">Transport Layer Security</text><rect fill="#ccffe6" height="150" stroke="#000000" width="4793" x="320" y="820" /><text lengthAdjust="spacing" textLength="[150]" x="330" y="840">Instant Messaging and Presence Protocol</text><line stroke="#000000" stroke-width="2" x1="520" x2="4863" y1="1045.0" y2="1045.0" /><line stroke="#000000" stroke-width="2" x1="520" x2="520" y1="1065.0" y2="1025.0" /><line stroke="#000000" stroke-width="2" x1="4863" x2="4863" y1="1065.0" y2="1025.0" /><text x="450" y="1080.0">1996-09-02 00:00:02</text><text x="4793" y="1080.0">2008-07-24 06:49:02</text><line stroke="#111111" stroke-opacity="0.3" stroke-width="2" x1="640" x2="640" y1="970" y2="70" /><line stroke="#000000" stroke-width="2" x1="640" x2="640" y1="1055.0" y2="1035.0" /><text x="570" y="1010.0">1997-01-01 00:00:00</text><line stroke="#111111" stroke-opacity="0.3" stroke-width="2" x1="1005" x2="1005" y1="970" y2="70" /><line stroke="#000000" stroke-width="2" x1="1005" x2="1005" y1="1055.0" y2="1035.0" /><text x="935" y="1010.0">1998-01-01 00:00:00</text><line stroke="#111111" stroke-opacity="0.3" stroke-width="2" x1="1370" x2="1370" y1="970" y2="70" /><line stroke="#000000" stroke-width="2" x1="1370" x2="1370" y1="1055.0" y2="1035.0" /><text x="1300" y="1010.0">1999-01-01 00:00:00</text><line stroke="#111111" stroke-opacity="0.3" stroke-width="2" x1="1735" x2="1735" y1="970" y2="70" /><line stroke="#000000" stroke-width="2" x1="1735" x2="1735" y1="1055.0" y2="1035.0" /><text x="1665" y="1010.0">2000-01-01 00:00:00</text><line stroke="#111111" stroke-opacity="0.3" stroke-width="2" x1="2101" x2="2101" y1="970" y2="70" /><line stroke="#000000" stroke-width="2" x1="2101" x2="2101" y1="1055.0" y2="1035.0" /><text x="2031" y="1010.0">2001-01-01 00:00:00</text><line stroke="#111111" stroke-opacity="0.3" stroke-width="2" x1="2466" x2="2466" y1="970" y2="70" /><line stroke="#000000" stroke-width="2" x1="2466" x2="2466" y1="1055.0" y2="1035.0" /><text x="2396" y="1010.0">2002-01-01 00:00:00</text><line stroke="#111111" stroke-opacity="0.3" stroke-width="2" x1="2831" x2="2831" y1="970" y2="70" /><line stroke="#000000" stroke-width="2" x1="2831" x2="2831" y1="1055.0" y2="1035.0" /><text x="2761" y="1010.0">2003-01-01 00:00:00</text><line stroke="#111111" stroke-opacity="0.3" stroke-width="2" x1="3196" x2="3196" y1="970" y2="70" /><line stroke="#000000" stroke-width="2" x1="3196" x2="3196" y1="1055.0" y2="1035.0" /><text x="3126" y="1010.0">2004-01-01 00:00:00</text><line stroke="#111111" stroke-opacity="0.3" stroke-width="2" x1="3562" x2="3562" y1="970" y2="70" /><line stroke="#000000" stroke-width="2" x1="3562" x2="3562" y1="1055.0" y2="1035.0" /><text x="3492" y="1010.0">2005-01-01 00:00:00</text><line stroke="#111111" stroke-opacity="0.3" stroke-width="2" x1="3927" x2="3927" y1="970" y2="70" /><line stroke="#000000" stroke-width="2" x1="3927" x2="3927" y1="1055.0" y2="1035.0" /><text x="3857" y="1010.0">2006-01-01 00:00:00</text><line stroke="#111111" stroke-opacity="0.3" stroke-width="2" x1="4292" x2="4292" y1="970" y2="70" /><line stroke="#000000" stroke-width="2" x1="4292" x2="4292" y1="1055.0" y2="1035.0" /><text x="4222" y="1010.0">2007-01-01 00:00:00</text><line stroke="#111111" stroke-opacity="0.3" stroke-width="2" x1="4657" x2="4657" y1="970" y2="70" /><line stroke="#000000" stroke-width="2" x1="4657" x2="4657" y1="1055.0" y2="1035.0" /><text x="4587" y="1010.0">2008-01-01 00:00:00</text><rect fill="#ff6666" height="50.0" stroke="#000000" stroke-dasharray="10, 5" stroke-width="4" width="0" x="4636" y="70.0" /><text lengthAdjust="spacingAndGlyphs" textLength="0" x="4636" y="95.0">Internet Official Protocol Standards</text><rect fill="#ff6666" height="50.0" stroke="#000000" stroke-dasharray="10, 0" stroke-width="4" width="179" x="370" y="120.0" /><text lengthAdjust="spacingAndGlyphs" textLength="179" x="370" y="145.0">Key words for use in RFCs to Indicate Requirement Levels</text><rect fill="#ff6666" height="50.0" stroke="#000000" stroke-dasharray="10, 5" stroke-width="4" width="179" x="370" y="170.0" /><text lengthAdjust="spacingAndGlyphs" textLength="179" x="370" y="195.0">Key words for use in RFCs to Indicate Requirement Levels</text><rect fill="#ff6666" height="150.0" stroke="#000000" stroke-dasharray="10, 0" stroke-width="1" width="620" x="4201" y="220.0" /><text lengthAdjust="spacingAndGlyphs" textLength="620" x="4201" y="295.0">Rights Contributors Provide to the IETF Trust</text><rect fill="#ffb366" height="37.5" stroke="#000000" stroke-dasharray="10, 0" stroke-width="4" width="1694" x="3067" y="370.0" /><text lengthAdjust="spacingAndGlyphs" textLength="1694" x="3067" y="388.75">Presence Information Data Format (PIDF) Extension for Partial Presence</text><rect fill="#ffb366" height="37.5" stroke="#000000" stroke-dasharray="10, 0" stroke-width="4" width="1016" x="3745" y="407.5" /><text lengthAdjust="spacingAndGlyphs" textLength="1016" x="3745" y="426.25">An Extensible Markup Language (XML) Patch Operations Framework Utilizing XML Path Language (XPath) Selectors</text><rect fill="#ffb366" height="37.5" stroke="#000000" stroke-dasharray="10, 0" stroke-width="4" width="1247" x="2042" y="445.0" /><text lengthAdjust="spacingAndGlyphs" textLength="1247" x="2042" y="463.75">A Presence Event Package for the Session Initiation Protocol (SIP)</text><rect fill="#ffb366" height="37.5" stroke="#000000" stroke-dasharray="10, 0" stroke-width="10" width="1809" x="2952" y="482.5" /><text lengthAdjust="spacingAndGlyphs" textLength="1809" x="2952" y="501.25">Session Initiation Protocol (SIP) Extension for Partial Notification of Presence Information</text><rect fill="#ffb366" height="75.0" stroke="#000000" stroke-dasharray="10, 0" stroke-width="4" width="363" x="2136" y="520.0" /><text lengthAdjust="spacingAndGlyphs" textLength="363" x="2136" y="557.5">Session Initiation Protocol (SIP)-Specific Event Notification</text><rect fill="#ffb366" height="75.0" stroke="#000000" stroke-dasharray="10, 0" stroke-width="4" width="716" x="1783" y="595.0" /><text lengthAdjust="spacingAndGlyphs" textLength="716" x="1783" y="632.5">SIP: Session Initiation Protocol</text><rect fill="#8cff66" height="150.0" stroke="#000000" stroke-dasharray="10, 0" stroke-width="4" width="1527" x="2365" y="670.0" /><text lengthAdjust="spacingAndGlyphs" textLength="1527" x="2365" y="745.0">The Transport Layer Security (TLS) Protocol Version 1.1</text><rect fill="#66ffb3" height="75.0" stroke="#000000" stroke-dasharray="10, 0" stroke-width="4" width="1097" x="2178" y="820.0" /><text lengthAdjust="spacingAndGlyphs" textLength="1097" x="2178" y="857.5">Presence Information Data Format (PIDF)</text><rect fill="#66ffb3" height="75.0" stroke="#000000" stroke-dasharray="10, 0" stroke-width="1" width="284" x="1332" y="895.0" /><text lengthAdjust="spacingAndGlyphs" textLength="284" x="1332" y="932.5">A Model for Presence and Instant Messaging</text></svg>