<?xml version="1.0" encoding="utf-8" ?>
<svg baseProfile="full" height="1565" version="1.1" width="8225" xmlns="http://www.w3.org/2000/svg" xmlns:ev="http://www.w3.org/2001/xml-events" xmlns:xlink="http://www.w3.org/1999/xlink"><defs /><rect fill="#ffcccc" height="150" stroke="#000000" width="150" x="170" y="70" /><text lengthAdjust="spacing" textLength="[150]" writing-mode="tb" x="180" y="80">Applications Area</text><rect fill="#ffe6cc" height="825" stroke="#000000" width="150" x="170" y="220" /><text lengthAdjust="spacing" textLength="[150]" writing-mode="tb" x="180" y="230">Applications and Real-Time Area</text><rect fill="#d9ffcc" height="150" stroke="#000000" width="150" x="170" y="1045" /><text lengthAdjust="spacing" textLength="[150]" writing-mode="tb" x="180" y="1055">Internet Engineering Steering Group</text><rect fill="#ccffe6" height="75" stroke="#000000" width="150" x="170" y="1195" /><text lengthAdjust="spacing" textLength="[150]" writing-mode="tb" x="180" y="1205">Security Area</text><rect fill="#ccf2ff" height="150" stroke="#000000" width="150" x="170" y="1270" /><text lengthAdjust="spacing" textLength="[150]" writing-mode="tb" x="180" y="1280">General Area</text><rect fill="#ffcccc" height="150" stroke="#000000" width="7835" x="320" y="70" /><text lengthAdjust="spacing" textLength="[150]" x="330" y="90">JavaScript Object Notation</text><rect fill="#ffe6cc" height="600" stroke="#000000" width="7835" x="320" y="220" /><text lengthAdjust="spacing" textLength="[150]" x="330" y="240">Content Delivery Networks Interconnection</text><rect fill="#ffe6cc" height="150" stroke="#000000" width="7835" x="320" y="820" /><text lengthAdjust="spacing" textLength="[150]" x="330" y="840">Using TLS in Applications</text><rect fill="#ffe6cc" height="75" stroke="#000000" width="7835" x="320" y="970" /><text lengthAdjust="spacing" textLength="[150]" x="330" y="990">Hypertext Transfer Protocol</text><rect fill="#d9ffcc" height="150" stroke="#000000" width="7835" x="320" y="1045" /><text lengthAdjust="spacing" textLength="[150]" x="330" y="1065">General Area</text><rect fill="#ccffe6" height="75" stroke="#000000" width="7835" x="320" y="1195" /><text lengthAdjust="spacing" textLength="[150]" x="330" y="1215">Transport Layer Security</text><rect fill="#ccf2ff" height="150" stroke="#000000" width="7835" x="320" y="1270" /><text lengthAdjust="spacing" textLength="[150]" x="330" y="1290">Individual Submissions</text><line stroke="#000000" stroke-width="2" x1="520" x2="7905" y1="1495" y2="1495" /><line stroke="#000000" stroke-width="2" x1="520" x2="520" y1="1515" y2="1475" /><line stroke="#000000" stroke-width="2" x1="7905" x2="7905" y1="1515" y2="1475" /><text x="450" y="1530">1996-09-02 00:00:02</text><text x="7835" y="1530">2016-11-21 14:01:24</text><line stroke="#111111" stroke-opacity="0.3" stroke-width="2" x1="640" x2="640" y1="1420" y2="70" /><line stroke="#000000" stroke-width="2" x1="640" x2="640" y1="1505" y2="1485" /><text x="570" y="1460">1997-01-01 00:00:00</text><line stroke="#111111" stroke-opacity="0.3" stroke-width="2" x1="1005" x2="1005" y1="1420" y2="70" /><line stroke="#000000" stroke-width="2" x1="1005" x2="1005" y1="1505" y2="1485" /><text x="935" y="1460">1998-01-01 00:00:00</text><line stroke="#111111" stroke-opacity="0.3" stroke-width="2" x1="1370" x2="1370" y1="1420" y2="70" /><line stroke="#000000" stroke-width="2" x1="1370" x2="1370" y1="1505" y2="1485" /><text x="1300" y="1460">1999-01-01 00:00:00</text><line stroke="#111111" stroke-opacity="0.3" stroke-width="2" x1="1735" x2="1735" y1="1420" y2="70" /><line stroke="#000000" stroke-width="2" x1="1735" x2="1735" y1="1505" y2="1485" /><text x="1665" y="1460">2000-01-01 00:00:00</text><line stroke="#111111" stroke-opacity="0.3" stroke-width="2" x1="2101" x2="2101" y1="1420" y2="70" /><line stroke="#000000" stroke-width="2" x1="2101" x2="2101" y1="1505" y2="1485" /><text x="2031" y="1460">2001-01-01 00:00:00</text><line stroke="#111111" stroke-opacity="0.3" stroke-width="2" x1="2466" x2="2466" y1="1420" y2="70" /><line stroke="#000000" stroke-width="2" x1="2466" x2="2466" y1="1505" y2="1485" /><text x="2396" y="1460">2002-01-01 00:00:00</text><line stroke="#111111" stroke-opacity="0.3" stroke-width="2" x1="2831" x2="2831" y1="1420" y2="70" /><line stroke="#000000" stroke-width="2" x1="2831" x2="2831" y1="1505" y2="1485" /><text x="2761" y="1460">2003-01-01 00:00:00</text><line stroke="#111111" stroke-opacity="0.3" stroke-width="2" x1="3196" x2="3196" y1="1420" y2="70" /><line stroke="#000000" stroke-width="2" x1="3196" x2="3196" y1="1505" y2="1485" /><text x="3126" y="1460">2004-01-01 00:00:00</text><line stroke="#111111" stroke-opacity="0.3" stroke-width="2" x1="3562" x2="3562" y1="1420" y2="70" /><line stroke="#000000" stroke-width="2" x1="3562" x2="3562" y1="1505" y2="1485" /><text x="3492" y="1460">2005-01-01 00:00:00</text><line stroke="#111111" stroke-opacity="0.3" stroke-width="2" x1="3927" x2="3927" y1="1420" y2="70" /><line stroke="#000000" stroke-width="2" x1="3927" x2="3927" y1="1505" y2="1485" /><text x="3857" y="1460">2006-01-01 00:00:00</text><line stroke="#111111" stroke-opacity="0.3" stroke-width="2" x1="4292" x2="4292" y1="1420" y2="70" /><line stroke="#000000" stroke-width="2" x1="4292" x2="4292" y1="1505" y2="1485" /><text x="4222" y="1460">2007-01-01 00:00:00</text><line stroke="#111111" stroke-opacity="0.3" stroke-width="2" x1="4657" x2="4657" y1="1420" y2="70" /><line stroke="#000000" stroke-width="2" x1="4657" x2="4657" y1="1505" y2="1485" /><text x="4587" y="1460">2008-01-01 00:00:00</text><line stroke="#111111" stroke-opacity="0.3" stroke-width="2" x1="5023" x2="5023" y1="1420" y2="70" /><line stroke="#000000" stroke-width="2" x1="5023" x2="5023" y1="1505" y2="1485" /><text x="4953" y="1460">2009-01-01 00:00:00</text><line stroke="#111111" stroke-opacity="0.3" stroke-width="2" x1="5388" x2="5388" y1="1420" y2="70" /><line stroke="#000000" stroke-width="2" x1="5388" x2="5388" y1="1505" y2="1485" /><text x="5318" y="1460">2010-01-01 00:00:00</text><line stroke="#111111" stroke-opacity="0.3" stroke-width="2" x1="5753" x2="5753" y1="1420" y2="70" /><line stroke="#000000" stroke-width="2" x1="5753" x2="5753" y1="1505" y2="1485" /><text x="5683" y="1460">2011-01-01 00:00:00</text><line stroke="#111111" stroke-opacity="0.3" stroke-width="2" x1="6118" x2="6118" y1="1420" y2="70" /><line stroke="#000000" stroke-width="2" x1="6118" x2="6118" y1="1505" y2="1485" /><text x="6048" y="1460">2012-01-01 00:00:00</text><line stroke="#111111" stroke-opacity="0.3" stroke-width="2" x1="6484" x2="6484" y1="1420" y2="70" /><line stroke="#000000" stroke-width="2" x1="6484" x2="6484" y1="1505" y2="1485" /><text x="6414" y="1460">2013-01-01 00:00:00</text><line stroke="#111111" stroke-opacity="0.3" stroke-width="2" x1="6849" x2="6849" y1="1420" y2="70" /><line stroke="#000000" stroke-width="2" x1="6849" x2="6849" y1="1505" y2="1485" /><text x="6779" y="1460">2014-01-01 00:00:00</text><line stroke="#111111" stroke-opacity="0.3" stroke-width="2" x1="7214" x2="7214" y1="1420" y2="70" /><line stroke="#000000" stroke-width="2" x1="7214" x2="7214" y1="1505" y2="1485" /><text x="7144" y="1460">2015-01-01 00:00:00</text><line stroke="#111111" stroke-opacity="0.3" stroke-width="2" x1="7579" x2="7579" y1="1420" y2="70" /><line stroke="#000000" stroke-width="2" x1="7579" x2="7579" y1="1505" y2="1485" /><text x="7509" y="1460">2016-01-01 00:00:00</text><rect fill="#ff6666" height="75" stroke="#000000" stroke-dasharray="10, 0" stroke-width="4" width="150" x="6911" y="70" /><text lengthAdjust="spacingAndGlyphs" textLength="150" x="6911" y="107.5">The JavaScript Object Notation (JSON) Data Interchange Format</text><line stroke="#777777" stroke-width="1" x1="520" x2="7905" y1="145" y2="145" /><rect fill="#ff6666" height="75" stroke="#000000" stroke-dasharray="10, 0" stroke-width="4" width="325" x="6969" y="145" /><text lengthAdjust="spacingAndGlyphs" textLength="325" x="6969" y="182.5">The I-JSON Message Format</text><line stroke="#777777" stroke-width="1" x1="520" x2="7905" y1="220" y2="220" /><rect fill="#ffb366" height="75" stroke="#000000" stroke-dasharray="10, 0" stroke-width="4" width="1533" x="6394" y="220" /><text lengthAdjust="spacingAndGlyphs" textLength="1533" x="6394" y="257.5">Content Delivery Network Interconnection (CDNI) Metadata</text><line stroke="#777777" stroke-width="1" x1="520" x2="7905" y1="295" y2="295" /><rect fill="#ffb366" height="75" stroke="#000000" stroke-dasharray="10, 0" stroke-width="4" width="1356" x="6465" y="295" /><text lengthAdjust="spacingAndGlyphs" textLength="1356" x="6465" y="332.5">Content Distribution Network Interconnection (CDNI) Logging Interface</text><line stroke="#777777" stroke-width="1" x1="520" x2="7905" y1="370" y2="370" /><rect fill="#ffb366" height="75" stroke="#000000" stroke-dasharray="10, 0" stroke-width="1" width="150" x="7443" y="370" /><text lengthAdjust="spacingAndGlyphs" textLength="150" x="7443" y="407.5">Content Delivery Network Interconnection (CDNI) Media Type Registration</text><line stroke="#777777" stroke-width="1" x1="520" x2="7905" y1="445" y2="445" /><rect fill="#ffb366" height="75" stroke="#000000" stroke-dasharray="10, 0" stroke-width="4" width="836" x="6236" y="445" /><text lengthAdjust="spacingAndGlyphs" textLength="836" x="6236" y="482.5">Framework for Content Distribution Network Interconnection (CDNI)</text><line stroke="#777777" stroke-width="1" x1="520" x2="7905" y1="520" y2="520" /><rect fill="#ffb366" height="75" stroke="#000000" stroke-dasharray="10, 0" stroke-width="1" width="1068" x="6004" y="520" /><text lengthAdjust="spacingAndGlyphs" textLength="1068" x="6004" y="557.5">Content Distribution Network Interconnection (CDNI) Requirements</text><line stroke="#777777" stroke-width="1" x1="520" x2="7905" y1="595" y2="595" /><rect fill="#ffb366" height="75" stroke="#000000" stroke-dasharray="10, 0" stroke-width="1" width="425" x="6017" y="595" /><text lengthAdjust="spacingAndGlyphs" textLength="425" x="6017" y="632.5">Use Cases for Content Delivery Network Interconnection</text><line stroke="#777777" stroke-width="1" x1="520" x2="7905" y1="670" y2="670" /><rect fill="#ffb366" height="75" stroke="#000000" stroke-dasharray="10, 0" stroke-width="1" width="383" x="6004" y="670" /><text lengthAdjust="spacingAndGlyphs" textLength="383" x="6004" y="707.5">Content Distribution Network Interconnection (CDNI) Problem Statement</text><line stroke="#777777" stroke-width="1" x1="520" x2="7905" y1="745" y2="745" /><rect fill="#ffb366" height="75" stroke="#000000" stroke-dasharray="10, 0" stroke-width="10" width="1245" x="6682" y="745" /><text lengthAdjust="spacingAndGlyphs" textLength="1245" x="6682" y="782.5">Content Delivery Network Interconnection (CDNI) Request Routing: Footprint and Capabilities Semantics</text><line stroke="#777777" stroke-width="1" x1="520" x2="7905" y1="820" y2="820" /><rect fill="#ffb366" height="75" stroke="#000000" stroke-dasharray="10, 0" stroke-width="1" width="403" x="6935" y="820" /><text lengthAdjust="spacingAndGlyphs" textLength="403" x="6935" y="857.5">Recommendations for Secure Use of Transport Layer Security (TLS) and Datagram Transport Layer Security (DTLS)</text><line stroke="#777777" stroke-width="1" x1="520" x2="7905" y1="895" y2="895" /><rect fill="#ffb366" height="75" stroke="#000000" stroke-dasharray="10, 0" stroke-width="1" width="403" x="6935" y="895" /><text lengthAdjust="spacingAndGlyphs" textLength="403" x="6935" y="932.5">Recommendations for Secure Use of Transport Layer Security (TLS) and Datagram Transport Layer Security (DTLS)</text><line stroke="#777777" stroke-width="1" x1="520" x2="7905" y1="970" y2="970" /><rect fill="#ffb366" height="75" stroke="#000000" stroke-dasharray="10, 0" stroke-width="1" width="2359" x="4646" y="970" /><text lengthAdjust="spacingAndGlyphs" textLength="2359" x="4646" y="1007.5">Hypertext Transfer Protocol (HTTP/1.1): Message Syntax and Routing</text><line stroke="#777777" stroke-width="1" x1="520" x2="7905" y1="1045" y2="1045" /><rect fill="#8cff66" height="75" stroke="#000000" stroke-dasharray="10, 0" stroke-width="4" width="1379" x="3417" y="1045" /><text lengthAdjust="spacingAndGlyphs" textLength="1379" x="3417" y="1082.5">Guidelines for Writing an IANA Considerations Section in RFCs</text><line stroke="#777777" stroke-width="1" x1="520" x2="7905" y1="1120" y2="1120" /><rect fill="#8cff66" height="75" stroke="#000000" stroke-dasharray="10, 0" stroke-width="4" width="1379" x="3417" y="1120" /><text lengthAdjust="spacingAndGlyphs" textLength="1379" x="3417" y="1157.5">Guidelines for Writing an IANA Considerations Section in RFCs</text><line stroke="#777777" stroke-width="1" x1="520" x2="7905" y1="1195" y2="1195" /><rect fill="#66ffb3" height="75" stroke="#000000" stroke-dasharray="10, 0" stroke-width="1" width="825" x="1031" y="1195" /><text lengthAdjust="spacingAndGlyphs" textLength="825" x="1031" y="1232.5">HTTP Over TLS</text><line stroke="#777777" stroke-width="1" x1="520" x2="7905" y1="1270" y2="1270" /><rect fill="#66d9ff" height="75" stroke="#000000" stroke-dasharray="10, 0" stroke-width="4" width="179" x="520" y="1270" /><text lengthAdjust="spacingAndGlyphs" textLength="179" x="520" y="1307.5">Key words for use in RFCs to Indicate Requirement Levels</text><line stroke="#777777" stroke-width="1" x1="520" x2="7905" y1="1345" y2="1345" /><rect fill="#66d9ff" height="75" stroke="#000000" stroke-dasharray="10, 0" stroke-width="4" width="179" x="520" y="1345" /><text lengthAdjust="spacingAndGlyphs" textLength="179" x="520" y="1382.5">Key words for use in RFCs to Indicate Requirement Levels</text><line stroke="#777777" stroke-width="1" x1="520" x2="7905" y1="1420" y2="1420" /></svg>