<?xml version="1.0" encoding="utf-8" ?>
<svg baseProfile="full" height="1340" version="1.1" width="4402" xmlns="http://www.w3.org/2000/svg" xmlns:ev="http://www.w3.org/2001/xml-events" xmlns:xlink="http://www.w3.org/1999/xlink"><defs /><rect fill="#ffcccc" height="300" stroke="#000000" width="150" x="170" y="70" /><text lengthAdjust="spacing" textLength="[150]" writing-mode="tb" x="180" y="80">General Area</text><rect fill="#ffe6cc" height="150" stroke="#000000" width="150" x="170" y="370" /><text lengthAdjust="spacing" textLength="[150]" writing-mode="tb" x="180" y="380">Sub-IP Area</text><rect fill="#d9ffcc" height="450" stroke="#000000" width="150" x="170" y="520" /><text lengthAdjust="spacing" textLength="[150]" writing-mode="tb" x="180" y="530">Routing Area</text><rect fill="#ccffe6" height="150" stroke="#000000" width="150" x="170" y="970" /><text lengthAdjust="spacing" textLength="[150]" writing-mode="tb" x="180" y="980">Transport Area</text><rect fill="#ffcccc" height="150" stroke="#000000" width="4012" x="320" y="70" /><text lengthAdjust="spacing" textLength="[150]" x="330" y="90">Intellectual Property Rights</text><rect fill="#ffcccc" height="150" stroke="#000000" width="4012" x="320" y="220" /><text lengthAdjust="spacing" textLength="[150]" x="330" y="240">Individual Submissions</text><rect fill="#ffe6cc" height="150" stroke="#000000" width="4012" x="320" y="370" /><text lengthAdjust="spacing" textLength="[150]" x="330" y="390">Internet Traffic Engineering</text><rect fill="#d9ffcc" height="150" stroke="#000000" width="4012" x="320" y="520" /><text lengthAdjust="spacing" textLength="[150]" x="330" y="540">Multiprotocol Label Switching</text><rect fill="#d9ffcc" height="150" stroke="#000000" width="4012" x="320" y="670" /><text lengthAdjust="spacing" textLength="[150]" x="330" y="690">IS-IS for IP Internets</text><rect fill="#d9ffcc" height="150" stroke="#000000" width="4012" x="320" y="820" /><text lengthAdjust="spacing" textLength="[150]" x="330" y="840">Open Shortest Path First IGP</text><rect fill="#ccffe6" height="150" stroke="#000000" width="4012" x="320" y="970" /><text lengthAdjust="spacing" textLength="[150]" x="330" y="990">Resource Reservation Setup Protocol</text><line stroke="#000000" stroke-width="2" x1="520" x2="4082" y1="1195.0" y2="1195.0" /><line stroke="#000000" stroke-width="2" x1="520" x2="520" y1="1215.0" y2="1175.0" /><line stroke="#000000" stroke-width="2" x1="4082" x2="4082" y1="1215.0" y2="1175.0" /><text x="450" y="1230.0">1996-09-02 00:00:02</text><text x="4012" y="1230.0">2006-06-04 10:46:54</text><line stroke="#111111" stroke-opacity="0.3" stroke-width="2" x1="640" x2="640" y1="1120" y2="70" /><line stroke="#000000" stroke-width="2" x1="640" x2="640" y1="1205.0" y2="1185.0" /><text x="570" y="1160.0">1997-01-01 00:00:00</text><line stroke="#111111" stroke-opacity="0.3" stroke-width="2" x1="1005" x2="1005" y1="1120" y2="70" /><line stroke="#000000" stroke-width="2" x1="1005" x2="1005" y1="1205.0" y2="1185.0" /><text x="935" y="1160.0">1998-01-01 00:00:00</text><line stroke="#111111" stroke-opacity="0.3" stroke-width="2" x1="1370" x2="1370" y1="1120" y2="70" /><line stroke="#000000" stroke-width="2" x1="1370" x2="1370" y1="1205.0" y2="1185.0" /><text x="1300" y="1160.0">1999-01-01 00:00:00</text><line stroke="#111111" stroke-opacity="0.3" stroke-width="2" x1="1735" x2="1735" y1="1120" y2="70" /><line stroke="#000000" stroke-width="2" x1="1735" x2="1735" y1="1205.0" y2="1185.0" /><text x="1665" y="1160.0">2000-01-01 00:00:00</text><line stroke="#111111" stroke-opacity="0.3" stroke-width="2" x1="2101" x2="2101" y1="1120" y2="70" /><line stroke="#000000" stroke-width="2" x1="2101" x2="2101" y1="1205.0" y2="1185.0" /><text x="2031" y="1160.0">2001-01-01 00:00:00</text><line stroke="#111111" stroke-opacity="0.3" stroke-width="2" x1="2466" x2="2466" y1="1120" y2="70" /><line stroke="#000000" stroke-width="2" x1="2466" x2="2466" y1="1205.0" y2="1185.0" /><text x="2396" y="1160.0">2002-01-01 00:00:00</text><line stroke="#111111" stroke-opacity="0.3" stroke-width="2" x1="2831" x2="2831" y1="1120" y2="70" /><line stroke="#000000" stroke-width="2" x1="2831" x2="2831" y1="1205.0" y2="1185.0" /><text x="2761" y="1160.0">2003-01-01 00:00:00</text><line stroke="#111111" stroke-opacity="0.3" stroke-width="2" x1="3196" x2="3196" y1="1120" y2="70" /><line stroke="#000000" stroke-width="2" x1="3196" x2="3196" y1="1205.0" y2="1185.0" /><text x="3126" y="1160.0">2004-01-01 00:00:00</text><line stroke="#111111" stroke-opacity="0.3" stroke-width="2" x1="3562" x2="3562" y1="1120" y2="70" /><line stroke="#000000" stroke-width="2" x1="3562" x2="3562" y1="1205.0" y2="1185.0" /><text x="3492" y="1160.0">2005-01-01 00:00:00</text><line stroke="#111111" stroke-opacity="0.3" stroke-width="2" x1="3927" x2="3927" y1="1120" y2="70" /><line stroke="#000000" stroke-width="2" x1="3927" x2="3927" y1="1205.0" y2="1185.0" /><text x="3857" y="1160.0">2006-01-01 00:00:00</text><rect fill="#ff6666" height="150.0" stroke="#000000" stroke-dasharray="10, 0" stroke-width="1" width="620" x="4201" y="70.0" /><text lengthAdjust="spacingAndGlyphs" textLength="620" x="4201" y="145.0">Rights Contributors Provide to the IETF Trust</text><rect fill="#ff6666" height="75.0" stroke="#000000" stroke-dasharray="10, 0" stroke-width="4" width="179" x="370" y="220.0" /><text lengthAdjust="spacingAndGlyphs" textLength="179" x="370" y="257.5">Key words for use in RFCs to Indicate Requirement Levels</text><rect fill="#ff6666" height="75.0" stroke="#000000" stroke-dasharray="10, 0" stroke-width="4" width="179" x="370" y="295.0" /><text lengthAdjust="spacingAndGlyphs" textLength="179" x="370" y="332.5">Key words for use in RFCs to Indicate Requirement Levels</text><rect fill="#ffb366" height="75.0" stroke="#000000" stroke-dasharray="10, 0" stroke-width="1" width="441" x="3131" y="370.0" /><text lengthAdjust="spacingAndGlyphs" textLength="441" x="3131" y="407.5">Requirements for Inter-Area MPLS Traffic Engineering</text><rect fill="#ffb366" height="75.0" stroke="#000000" stroke-dasharray="10, 0" stroke-width="1" width="902" x="2829" y="445.0" /><text lengthAdjust="spacingAndGlyphs" textLength="902" x="2829" y="482.5">MPLS Inter-Autonomous System (AS) Traffic Engineering (TE) Requirements</text><rect fill="#8cff66" height="50.0" stroke="#000000" stroke-dasharray="10, 0" stroke-width="4" width="1186" x="2372" y="520.0" /><text lengthAdjust="spacingAndGlyphs" textLength="1186" x="2372" y="545.0">Fast Reroute Extensions to RSVP-TE for LSP Tunnels</text><rect fill="#8cff66" height="50.0" stroke="#000000" stroke-dasharray="10, 0" stroke-width="4" width="1107" x="1178" y="570.0" /><text lengthAdjust="spacingAndGlyphs" textLength="1107" x="1178" y="595.0">RSVP-TE: Extensions to RSVP for LSP Tunnels</text><rect fill="#8cff66" height="50.0" stroke="#000000" stroke-dasharray="10, 0" stroke-width="10" width="1154" x="2788" y="620.0" /><text lengthAdjust="spacingAndGlyphs" textLength="1154" x="2788" y="645.0">Definition of a Record Route Object (RRO) Node-Id Sub-Object</text><rect fill="#8cff66" height="150.0" stroke="#000000" stroke-dasharray="10, 0" stroke-width="4" width="1966" x="1252" y="670.0" /><text lengthAdjust="spacingAndGlyphs" textLength="1966" x="1252" y="745.0">Intermediate System to Intermediate System (IS-IS) Extensions for Traffic Engineering (TE)</text><rect fill="#8cff66" height="150.0" stroke="#000000" stroke-dasharray="10, 0" stroke-width="4" width="1624" x="1330" y="820.0" /><text lengthAdjust="spacingAndGlyphs" textLength="1624" x="1330" y="895.0">Traffic Engineering (TE) Extensions to OSPF Version 2</text><rect fill="#66ffb3" height="150.0" stroke="#000000" stroke-dasharray="10, 0" stroke-width="4" width="1143" x="-410" y="970.0" /><text lengthAdjust="spacingAndGlyphs" textLength="1143" x="-410" y="1045.0">Resource ReSerVation Protocol (RSVP) -- Version 1 Functional Specification</text></svg>