<?xml version="1.0" encoding="utf-8" ?>
<svg baseProfile="full" height="1565" version="1.1" width="8225" xmlns="http://www.w3.org/2000/svg" xmlns:ev="http://www.w3.org/2001/xml-events" xmlns:xlink="http://www.w3.org/1999/xlink"><defs /><rect fill="#ffcccc" height="150" stroke="#000000" width="150" x="170" y="70" /><text lengthAdjust="spacing" textLength="[150]" writing-mode="tb" x="180" y="80">Applications Area</text><rect fill="#ffe6cc" height="825" stroke="#000000" width="150" x="170" y="220" /><text lengthAdjust="spacing" textLength="[150]" writing-mode="tb" x="180" y="230">Applications and Real-Time Area</text><rect fill="#d9ffcc" height="150" stroke="#000000" width="150" x="170" y="1045" /><text lengthAdjust="spacing" textLength="[150]" writing-mode="tb" x="180" y="1055">Internet Engineering Steering Group</text><rect fill="#ccffe6" height="75" stroke="#000000" width="150" x="170" y="1195" /><text lengthAdjust="spacing" textLength="[150]" writing-mode="tb" x="180" y="1205">Security Area</text><rect fill="#ccf2ff" height="150" stroke="#000000" width="150" x="170" y="1270" /><text lengthAdjust="spacing" textLength="[150]" writing-mode="tb" x="180" y="1280">General Area</text><rect fill="#ffcccc" height="150" stroke="#000000" width="7835" x="320" y="70" /><text lengthAdjust="spacing" textLength="[150]" x="330" y="90">JavaScript Object Notation</text><line stroke="#000000" stroke-width="2" x1="520" x2="520" y1="70" y2="220" /><rect fill="#ffe6cc" height="600" stroke="#000000" width="7835" x="320" y="220" /><text lengthAdjust="spacing" textLength="[150]" x="330" y="240">Content Delivery Networks Interconnection</text><line stroke="#000000" stroke-width="2" x1="520" x2="520" y1="220" y2="820" /><rect fill="#ffe6cc" height="150" stroke="#000000" width="7835" x="320" y="820" /><text lengthAdjust="spacing" textLength="[150]" x="330" y="840">Using TLS in Applications</text><line stroke="#000000" stroke-width="2" x1="520" x2="520" y1="820" y2="970" /><rect fill="#ffe6cc" height="75" stroke="#000000" width="7835" x="320" y="970" /><text lengthAdjust="spacing" textLength="[150]" x="330" y="990">Hypertext Transfer Protocol</text><line stroke="#000000" stroke-width="2" x1="520" x2="520" y1="970" y2="1045" /><rect fill="#d9ffcc" height="150" stroke="#000000" width="7835" x="320" y="1045" /><text lengthAdjust="spacing" textLength="[150]" x="330" y="1065">General Area</text><line stroke="#000000" stroke-width="2" x1="520" x2="520" y1="1045" y2="1195" /><rect fill="#ccffe6" height="75" stroke="#000000" width="7835" x="320" y="1195" /><text lengthAdjust="spacing" textLength="[150]" x="330" y="1215">Transport Layer Security</text><line stroke="#000000" stroke-width="2" x1="520" x2="520" y1="1195" y2="1270" /><rect fill="#ccf2ff" height="150" stroke="#000000" width="7835" x="320" y="1270" /><text lengthAdjust="spacing" textLength="[150]" x="330" y="1290">Individual Submissions</text><line stroke="#000000" stroke-width="2" x1="520" x2="520" y1="1270" y2="1420" /><line stroke="#000000" stroke-width="2" x1="520" x2="7905" y1="1495" y2="1495" /><line stroke="#000000" stroke-width="2" x1="520" x2="520" y1="1515" y2="1475" /><line stroke="#000000" stroke-width="2" x1="7905" x2="7905" y1="1515" y2="1475" /><text x="450" y="1530">1996-09-02 00:00:02</text><text x="7835" y="1530">2016-11-21 14:01:24</text><line stroke="#111111" stroke-opacity="0.3" stroke-width="2" x1="640" x2="640" y1="1420" y2="70" /><line stroke="#000000" stroke-width="2" x1="640" x2="640" y1="1505" y2="1485" /><text x="570" y="1460">1997-01-01 00:00:00</text><line stroke="#111111" stroke-opacity="0.3" stroke-width="2" x1="1005" x2="1005" y1="1420" y2="70" /><line stroke="#000000" stroke-width="2" x1="1005" x2="1005" y1="1505" y2="1485" /><text x="935" y="1460">1998-01-01 00:00:00</text><line stroke="#111111" stroke-opacity="0.3" stroke-width="2" x1="1370" x2="1370" y1="1420" y2="70" /><line stroke="#000000" stroke-width="2" x1="1370" x2="1370" y1="1505" y2="1485" /><text x="1300" y="1460">1999-01-01 00:00:00</text><line stroke="#111111" stroke-opacity="0.3" stroke-width="2" x1="1735" x2="1735" y1="1420" y2="70" /><line stroke="#000000" stroke-width="2" x1="1735" x2="1735" y1="1505" y2="1485" /><text x="1665" y="1460">2000-01-01 00:00:00</text><line stroke="#111111" stroke-opacity="0.3" stroke-width="2" x1="2101" x2="2101" y1="1420" y2="70" /><line stroke="#000000" stroke-width="2" x1="2101" x2="2101" y1="1505" y2="1485" /><text x="2031" y="1460">2001-01-01 00:00:00</text><line stroke="#111111" stroke-opacity="0.3" stroke-width="2" x1="2466" x2="2466" y1="1420" y2="70" /><line stroke="#000000" stroke-width="2" x1="2466" x2="2466" y1="1505" y2="1485" /><text x="2396" y="1460">2002-01-01 00:00:00</text><line stroke="#111111" stroke-opacity="0.3" stroke-width="2" x1="2831" x2="2831" y1="1420" y2="70" /><line stroke="#000000" stroke-width="2" x1="2831" x2="2831" y1="1505" y2="1485" /><text x="2761" y="1460">2003-01-01 00:00:00</text><line stroke="#111111" stroke-opacity="0.3" stroke-width="2" x1="3196" x2="3196" y1="1420" y2="70" /><line stroke="#000000" stroke-width="2" x1="3196" x2="3196" y1="1505" y2="1485" /><text x="3126" y="1460">2004-01-01 00:00:00</text><line stroke="#111111" stroke-opacity="0.3" stroke-width="2" x1="3562" x2="3562" y1="1420" y2="70" /><line stroke="#000000" stroke-width="2" x1="3562" x2="3562" y1="1505" y2="1485" /><text x="3492" y="1460">2005-01-01 00:00:00</text><line stroke="#111111" stroke-opacity="0.3" stroke-width="2" x1="3927" x2="3927" y1="1420" y2="70" /><line stroke="#000000" stroke-width="2" x1="3927" x2="3927" y1="1505" y2="1485" /><text x="3857" y="1460">2006-01-01 00:00:00</text><line stroke="#111111" stroke-opacity="0.3" stroke-width="2" x1="4292" x2="4292" y1="1420" y2="70" /><line stroke="#000000" stroke-width="2" x1="4292" x2="4292" y1="1505" y2="1485" /><text x="4222" y="1460">2007-01-01 00:00:00</text><line stroke="#111111" stroke-opacity="0.3" stroke-width="2" x1="4657" x2="4657" y1="1420" y2="70" /><line stroke="#000000" stroke-width="2" x1="4657" x2="4657" y1="1505" y2="1485" /><text x="4587" y="1460">2008-01-01 00:00:00</text><line stroke="#111111" stroke-opacity="0.3" stroke-width="2" x1="5023" x2="5023" y1="1420" y2="70" /><line stroke="#000000" stroke-width="2" x1="5023" x2="5023" y1="1505" y2="1485" /><text x="4953" y="1460">2009-01-01 00:00:00</text><line stroke="#111111" stroke-opacity="0.3" stroke-width="2" x1="5388" x2="5388" y1="1420" y2="70" /><line stroke="#000000" stroke-width="2" x1="5388" x2="5388" y1="1505" y2="1485" /><text x="5318" y="1460">2010-01-01 00:00:00</text><line stroke="#111111" stroke-opacity="0.3" stroke-width="2" x1="5753" x2="5753" y1="1420" y2="70" /><line stroke="#000000" stroke-width="2" x1="5753" x2="5753" y1="1505" y2="1485" /><text x="5683" y="1460">2011-01-01 00:00:00</text><line stroke="#111111" stroke-opacity="0.3" stroke-width="2" x1="6118" x2="6118" y1="1420" y2="70" /><line stroke="#000000" stroke-width="2" x1="6118" x2="6118" y1="1505" y2="1485" /><text x="6048" y="1460">2012-01-01 00:00:00</text><line stroke="#111111" stroke-opacity="0.3" stroke-width="2" x1="6484" x2="6484" y1="1420" y2="70" /><line stroke="#000000" stroke-width="2" x1="6484" x2="6484" y1="1505" y2="1485" /><text x="6414" y="1460">2013-01-01 00:00:00</text><line stroke="#111111" stroke-opacity="0.3" stroke-width="2" x1="6849" x2="6849" y1="1420" y2="70" /><line stroke="#000000" stroke-width="2" x1="6849" x2="6849" y1="1505" y2="1485" /><text x="6779" y="1460">2014-01-01 00:00:00</text><line stroke="#111111" stroke-opacity="0.3" stroke-width="2" x1="7214" x2="7214" y1="1420" y2="70" /><line stroke="#000000" stroke-width="2" x1="7214" x2="7214" y1="1505" y2="1485" /><text x="7144" y="1460">2015-01-01 00:00:00</text><line stroke="#111111" stroke-opacity="0.3" stroke-width="2" x1="7579" x2="7579" y1="1420" y2="70" /><line stroke="#000000" stroke-width="2" x1="7579" x2="7579" y1="1505" y2="1485" /><text x="7509" y="1460">2016-01-01 00:00:00</text><rect fill="#ff6666" height="75" stroke="#000000" stroke-dasharray="10, 0" stroke-width="4" width="150" x="6911" y="70" /><text lengthAdjust="spacingAndGlyphs" textLength="150" x="6911" y="107.5">The JavaScript Object Notation (JSON) Data Interchange Format</text><line stroke="#111111" stroke-opacity="0.3" stroke-width="1" x1="520" x2="7905" y1="145" y2="145" /><rect fill="#ff6666" height="75" stroke="#000000" stroke-dasharray="10, 0" stroke-width="4" width="325" x="6969" y="145" /><text lengthAdjust="spacingAndGlyphs" textLength="325" x="6969" y="182.5">The I-JSON Message Format</text><line stroke="#111111" stroke-opacity="0.3" stroke-width="1" x1="520" x2="7905" y1="220" y2="220" /><circle centre="(7241, 257.5)" cx="0" cy="0" fill="#ffffff" r="10" /><circle centre="(7201, 257.5)" cx="0" cy="0" fill="#ffffff" r="10" /><circle centre="(7181, 257.5)" cx="0" cy="0" fill="#ffffff" r="10" /><circle centre="(7066, 257.5)" cx="0" cy="0" fill="#ffffff" r="10" /><circle centre="(7030, 257.5)" cx="0" cy="0" fill="#ffffff" r="10" /><circle centre="(7013, 257.5)" cx="0" cy="0" fill="#ffffff" r="10" /><circle centre="(6969, 257.5)" cx="0" cy="0" fill="#ffffff" r="10" /><rect fill="#ffb366" height="75" stroke="#000000" stroke-dasharray="10, 0" stroke-width="4" width="1533" x="6394" y="220" /><text lengthAdjust="spacingAndGlyphs" textLength="1533" x="6394" y="257.5">Content Delivery Network Interconnection (CDNI) Metadata</text><line stroke="#111111" stroke-opacity="0.3" stroke-width="1" x1="520" x2="7905" y1="295" y2="295" /><circle centre="(7820, 332.5)" cx="0" cy="0" fill="#ffffff" r="10" /><circle centre="(7794, 332.5)" cx="0" cy="0" fill="#ffffff" r="10" /><circle centre="(7769, 332.5)" cx="0" cy="0" fill="#ffffff" r="10" /><circle centre="(7742, 332.5)" cx="0" cy="0" fill="#ffffff" r="10" /><circle centre="(7720, 332.5)" cx="0" cy="0" fill="#ffffff" r="10" /><circle centre="(7698, 332.5)" cx="0" cy="0" fill="#ffffff" r="10" /><circle centre="(7682, 332.5)" cx="0" cy="0" fill="#ffffff" r="10" /><circle centre="(7682, 332.5)" cx="0" cy="0" fill="#ffffff" r="10" /><circle centre="(7660, 332.5)" cx="0" cy="0" fill="#ffffff" r="10" /><circle centre="(7506, 332.5)" cx="0" cy="0" fill="#ffffff" r="10" /><circle centre="(7422, 332.5)" cx="0" cy="0" fill="#ffffff" r="10" /><circle centre="(7401, 332.5)" cx="0" cy="0" fill="#ffffff" r="10" /><circle centre="(7277, 332.5)" cx="0" cy="0" fill="#ffffff" r="10" /><circle centre="(7149, 332.5)" cx="0" cy="0" fill="#ffffff" r="10" /><circle centre="(7033, 332.5)" cx="0" cy="0" fill="#ffffff" r="10" /><circle centre="(6894, 332.5)" cx="0" cy="0" fill="#ffffff" r="10" /><circle centre="(6894, 332.5)" cx="0" cy="0" fill="#ffffff" r="10" /><circle centre="(6824, 332.5)" cx="0" cy="0" fill="#ffffff" r="10" /><circle centre="(6778, 332.5)" cx="0" cy="0" fill="#ffffff" r="10" /><circle centre="(6680, 332.5)" cx="0" cy="0" fill="#ffffff" r="10" /><circle centre="(6540, 332.5)" cx="0" cy="0" fill="#ffffff" r="10" /><circle centre="(6394, 332.5)" cx="0" cy="0" fill="#ffffff" r="10" /><rect fill="#ffb366" height="75" stroke="#000000" stroke-dasharray="10, 0" stroke-width="4" width="1356" x="6465" y="295" /><text lengthAdjust="spacingAndGlyphs" textLength="1356" x="6465" y="332.5">Content Distribution Network Interconnection (CDNI) Logging Interface</text><line stroke="#111111" stroke-opacity="0.3" stroke-width="1" x1="520" x2="7905" y1="370" y2="370" /><circle centre="(7739, 407.5)" cx="0" cy="0" fill="#ffffff" r="10" /><circle centre="(7725, 407.5)" cx="0" cy="0" fill="#ffffff" r="10" /><circle centre="(7677, 407.5)" cx="0" cy="0" fill="#ffffff" r="10" /><circle centre="(7674, 407.5)" cx="0" cy="0" fill="#ffffff" r="10" /><circle centre="(7657, 407.5)" cx="0" cy="0" fill="#ffffff" r="10" /><circle centre="(7641, 407.5)" cx="0" cy="0" fill="#ffffff" r="10" /><circle centre="(7521, 407.5)" cx="0" cy="0" fill="#ffffff" r="10" /><circle centre="(7503, 407.5)" cx="0" cy="0" fill="#ffffff" r="10" /><circle centre="(7401, 407.5)" cx="0" cy="0" fill="#ffffff" r="10" /><circle centre="(7296, 407.5)" cx="0" cy="0" fill="#ffffff" r="10" /><circle centre="(7292, 407.5)" cx="0" cy="0" fill="#ffffff" r="10" /><circle centre="(7282, 407.5)" cx="0" cy="0" fill="#ffffff" r="10" /><circle centre="(7249, 407.5)" cx="0" cy="0" fill="#ffffff" r="10" /><circle centre="(7147, 407.5)" cx="0" cy="0" fill="#ffffff" r="10" /><circle centre="(7054, 407.5)" cx="0" cy="0" fill="#ffffff" r="10" /><circle centre="(7034, 407.5)" cx="0" cy="0" fill="#ffffff" r="10" /><circle centre="(6933, 407.5)" cx="0" cy="0" fill="#ffffff" r="10" /><circle centre="(6911, 407.5)" cx="0" cy="0" fill="#ffffff" r="10" /><circle centre="(6893, 407.5)" cx="0" cy="0" fill="#ffffff" r="10" /><circle centre="(6775, 407.5)" cx="0" cy="0" fill="#ffffff" r="10" /><circle centre="(6767, 407.5)" cx="0" cy="0" fill="#ffffff" r="10" /><circle centre="(6754, 407.5)" cx="0" cy="0" fill="#ffffff" r="10" /><circle centre="(6677, 407.5)" cx="0" cy="0" fill="#ffffff" r="10" /><circle centre="(6660, 407.5)" cx="0" cy="0" fill="#ffffff" r="10" /><circle centre="(6635, 407.5)" cx="0" cy="0" fill="#ffffff" r="10" /><circle centre="(6631, 407.5)" cx="0" cy="0" fill="#ffffff" r="10" /><circle centre="(6537, 407.5)" cx="0" cy="0" fill="#ffffff" r="10" /><circle centre="(6465, 407.5)" cx="0" cy="0" fill="#ffffff" r="10" /><rect fill="#ffb366" height="75" stroke="#000000" stroke-dasharray="10, 0" stroke-width="1" width="150" x="7443" y="370" /><text lengthAdjust="spacingAndGlyphs" textLength="150" x="7443" y="407.5">Content Delivery Network Interconnection (CDNI) Media Type Registration</text><line stroke="#111111" stroke-opacity="0.3" stroke-width="1" x1="520" x2="7905" y1="445" y2="445" /><circle centre="(7500, 482.5)" cx="0" cy="0" fill="#ffffff" r="10" /><circle centre="(7497, 482.5)" cx="0" cy="0" fill="#ffffff" r="10" /><circle centre="(7491, 482.5)" cx="0" cy="0" fill="#ffffff" r="10" /><circle centre="(7486, 482.5)" cx="0" cy="0" fill="#ffffff" r="10" /><circle centre="(7486, 482.5)" cx="0" cy="0" fill="#ffffff" r="10" /><circle centre="(7486, 482.5)" cx="0" cy="0" fill="#ffffff" r="10" /><circle centre="(7443, 482.5)" cx="0" cy="0" fill="#ffffff" r="10" /><rect fill="#ffb366" height="75" stroke="#000000" stroke-dasharray="10, 0" stroke-width="4" width="836" x="6236" y="445" /><text lengthAdjust="spacingAndGlyphs" textLength="836" x="6236" y="482.5">Framework for Content Distribution Network Interconnection (CDNI)</text><line stroke="#111111" stroke-opacity="0.3" stroke-width="1" x1="520" x2="7905" y1="520" y2="520" /><circle centre="(7006, 557.5)" cx="0" cy="0" fill="#ffffff" r="10" /><circle centre="(6999, 557.5)" cx="0" cy="0" fill="#ffffff" r="10" /><circle centre="(6995, 557.5)" cx="0" cy="0" fill="#ffffff" r="10" /><circle centre="(6974, 557.5)" cx="0" cy="0" fill="#ffffff" r="10" /><circle centre="(6911, 557.5)" cx="0" cy="0" fill="#ffffff" r="10" /><circle centre="(6879, 557.5)" cx="0" cy="0" fill="#ffffff" r="10" /><circle centre="(6868, 557.5)" cx="0" cy="0" fill="#ffffff" r="10" /><circle centre="(6813, 557.5)" cx="0" cy="0" fill="#ffffff" r="10" /><circle centre="(6778, 557.5)" cx="0" cy="0" fill="#ffffff" r="10" /><circle centre="(6736, 557.5)" cx="0" cy="0" fill="#ffffff" r="10" /><circle centre="(6717, 557.5)" cx="0" cy="0" fill="#ffffff" r="10" /><circle centre="(6533, 557.5)" cx="0" cy="0" fill="#ffffff" r="10" /><circle centre="(6470, 557.5)" cx="0" cy="0" fill="#ffffff" r="10" /><circle centre="(6316, 557.5)" cx="0" cy="0" fill="#ffffff" r="10" /><circle centre="(6236, 557.5)" cx="0" cy="0" fill="#ffffff" r="10" /><rect fill="#ffb366" height="75" stroke="#000000" stroke-dasharray="10, 0" stroke-width="1" width="1068" x="6004" y="520" /><text lengthAdjust="spacingAndGlyphs" textLength="1068" x="6004" y="557.5">Content Distribution Network Interconnection (CDNI) Requirements</text><line stroke="#111111" stroke-opacity="0.3" stroke-width="1" x1="520" x2="7905" y1="595" y2="595" /><circle centre="(6879, 632.5)" cx="0" cy="0" fill="#ffffff" r="10" /><circle centre="(6866, 632.5)" cx="0" cy="0" fill="#ffffff" r="10" /><circle centre="(6863, 632.5)" cx="0" cy="0" fill="#ffffff" r="10" /><circle centre="(6842, 632.5)" cx="0" cy="0" fill="#ffffff" r="10" /><circle centre="(6814, 632.5)" cx="0" cy="0" fill="#ffffff" r="10" /><circle centre="(6792, 632.5)" cx="0" cy="0" fill="#ffffff" r="10" /><circle centre="(6778, 632.5)" cx="0" cy="0" fill="#ffffff" r="10" /><circle centre="(6737, 632.5)" cx="0" cy="0" fill="#ffffff" r="10" /><circle centre="(6666, 632.5)" cx="0" cy="0" fill="#ffffff" r="10" /><circle centre="(6661, 632.5)" cx="0" cy="0" fill="#ffffff" r="10" /><circle centre="(6635, 632.5)" cx="0" cy="0" fill="#ffffff" r="10" /><circle centre="(6583, 632.5)" cx="0" cy="0" fill="#ffffff" r="10" /><circle centre="(6538, 632.5)" cx="0" cy="0" fill="#ffffff" r="10" /><circle centre="(6456, 632.5)" cx="0" cy="0" fill="#ffffff" r="10" /><circle centre="(6275, 632.5)" cx="0" cy="0" fill="#ffffff" r="10" /><circle centre="(6094, 632.5)" cx="0" cy="0" fill="#ffffff" r="10" /><circle centre="(6044, 632.5)" cx="0" cy="0" fill="#ffffff" r="10" /><circle centre="(6004, 632.5)" cx="0" cy="0" fill="#ffffff" r="10" /><rect fill="#ffb366" height="75" stroke="#000000" stroke-dasharray="10, 0" stroke-width="1" width="425" x="6017" y="595" /><text lengthAdjust="spacingAndGlyphs" textLength="425" x="6017" y="632.5">Use Cases for Content Delivery Network Interconnection</text><line stroke="#111111" stroke-opacity="0.3" stroke-width="1" x1="520" x2="7905" y1="670" y2="670" /><circle centre="(6340, 707.5)" cx="0" cy="0" fill="#ffffff" r="10" /><circle centre="(6310, 707.5)" cx="0" cy="0" fill="#ffffff" r="10" /><circle centre="(6288, 707.5)" cx="0" cy="0" fill="#ffffff" r="10" /><circle centre="(6281, 707.5)" cx="0" cy="0" fill="#ffffff" r="10" /><circle centre="(6263, 707.5)" cx="0" cy="0" fill="#ffffff" r="10" /><circle centre="(6262, 707.5)" cx="0" cy="0" fill="#ffffff" r="10" /><circle centre="(6204, 707.5)" cx="0" cy="0" fill="#ffffff" r="10" /><circle centre="(6148, 707.5)" cx="0" cy="0" fill="#ffffff" r="10" /><circle centre="(6136, 707.5)" cx="0" cy="0" fill="#ffffff" r="10" /><circle centre="(6107, 707.5)" cx="0" cy="0" fill="#ffffff" r="10" /><circle centre="(6017, 707.5)" cx="0" cy="0" fill="#ffffff" r="10" /><rect fill="#ffb366" height="75" stroke="#000000" stroke-dasharray="10, 0" stroke-width="1" width="383" x="6004" y="670" /><text lengthAdjust="spacingAndGlyphs" textLength="383" x="6004" y="707.5">Content Distribution Network Interconnection (CDNI) Problem Statement</text><line stroke="#111111" stroke-opacity="0.3" stroke-width="1" x1="520" x2="7905" y1="745" y2="745" /><circle centre="(6295, 782.5)" cx="0" cy="0" fill="#ffffff" r="10" /><circle centre="(6293, 782.5)" cx="0" cy="0" fill="#ffffff" r="10" /><circle centre="(6259, 782.5)" cx="0" cy="0" fill="#ffffff" r="10" /><circle centre="(6242, 782.5)" cx="0" cy="0" fill="#ffffff" r="10" /><circle centre="(6188, 782.5)" cx="0" cy="0" fill="#ffffff" r="10" /><circle centre="(6139, 782.5)" cx="0" cy="0" fill="#ffffff" r="10" /><circle centre="(6134, 782.5)" cx="0" cy="0" fill="#ffffff" r="10" /><circle centre="(6056, 782.5)" cx="0" cy="0" fill="#ffffff" r="10" /><circle centre="(6004, 782.5)" cx="0" cy="0" fill="#ffffff" r="10" /><rect fill="#ffb366" height="75" stroke="#000000" stroke-dasharray="10, 0" stroke-width="10" width="1245" x="6682" y="745" /><text lengthAdjust="spacingAndGlyphs" textLength="1245" x="6682" y="782.5">Content Delivery Network Interconnection (CDNI) Request Routing: Footprint and Capabilities Semantics</text><line stroke="#111111" stroke-opacity="0.3" stroke-width="1" x1="520" x2="7905" y1="820" y2="820" /><circle centre="(7720, 857.5)" cx="0" cy="0" fill="#ffffff" r="10" /><circle centre="(7714, 857.5)" cx="0" cy="0" fill="#ffffff" r="10" /><circle centre="(7698, 857.5)" cx="0" cy="0" fill="#ffffff" r="10" /><circle centre="(7693, 857.5)" cx="0" cy="0" fill="#ffffff" r="10" /><circle centre="(7683, 857.5)" cx="0" cy="0" fill="#ffffff" r="10" /><circle centre="(7682, 857.5)" cx="0" cy="0" fill="#ffffff" r="10" /><circle centre="(7674, 857.5)" cx="0" cy="0" fill="#ffffff" r="10" /><circle centre="(7674, 857.5)" cx="0" cy="0" fill="#ffffff" r="10" /><circle centre="(7647, 857.5)" cx="0" cy="0" fill="#ffffff" r="10" /><circle centre="(7643, 857.5)" cx="0" cy="0" fill="#ffffff" r="10" /><circle centre="(7642, 857.5)" cx="0" cy="0" fill="#ffffff" r="10" /><circle centre="(7521, 857.5)" cx="0" cy="0" fill="#ffffff" r="10" /><circle centre="(7505, 857.5)" cx="0" cy="0" fill="#ffffff" r="10" /><circle centre="(7444, 857.5)" cx="0" cy="0" fill="#ffffff" r="10" /><circle centre="(7282, 857.5)" cx="0" cy="0" fill="#ffffff" r="10" /><circle centre="(7276, 857.5)" cx="0" cy="0" fill="#ffffff" r="10" /><circle centre="(7149, 857.5)" cx="0" cy="0" fill="#ffffff" r="10" /><circle centre="(7050, 857.5)" cx="0" cy="0" fill="#ffffff" r="10" /><circle centre="(6894, 857.5)" cx="0" cy="0" fill="#ffffff" r="10" /><circle centre="(6778, 857.5)" cx="0" cy="0" fill="#ffffff" r="10" /><circle centre="(6682, 857.5)" cx="0" cy="0" fill="#ffffff" r="10" /><rect fill="#ffb366" height="75" stroke="#000000" stroke-dasharray="10, 0" stroke-width="1" width="403" x="6935" y="820" /><text lengthAdjust="spacingAndGlyphs" textLength="403" x="6935" y="857.5">Recommendations for Secure Use of Transport Layer Security (TLS) and Datagram Transport Layer Security (DTLS)</text><line stroke="#111111" stroke-opacity="0.3" stroke-width="1" x1="520" x2="7905" y1="895" y2="895" /><circle centre="(7265, 932.5)" cx="0" cy="0" fill="#ffffff" r="10" /><circle centre="(7265, 932.5)" cx="0" cy="0" fill="#ffffff" r="10" /><circle centre="(7256, 932.5)" cx="0" cy="0" fill="#ffffff" r="10" /><circle centre="(7190, 932.5)" cx="0" cy="0" fill="#ffffff" r="10" /><circle centre="(7164, 932.5)" cx="0" cy="0" fill="#ffffff" r="10" /><circle centre="(7145, 932.5)" cx="0" cy="0" fill="#ffffff" r="10" /><circle centre="(7135, 932.5)" cx="0" cy="0" fill="#ffffff" r="10" /><circle centre="(7122, 932.5)" cx="0" cy="0" fill="#ffffff" r="10" /><circle centre="(7113, 932.5)" cx="0" cy="0" fill="#ffffff" r="10" /><circle centre="(7085, 932.5)" cx="0" cy="0" fill="#ffffff" r="10" /><circle centre="(7023, 932.5)" cx="0" cy="0" fill="#ffffff" r="10" /><circle centre="(6935, 932.5)" cx="0" cy="0" fill="#ffffff" r="10" /><rect fill="#ffb366" height="75" stroke="#000000" stroke-dasharray="10, 0" stroke-width="1" width="403" x="6935" y="895" /><text lengthAdjust="spacingAndGlyphs" textLength="403" x="6935" y="932.5">Recommendations for Secure Use of Transport Layer Security (TLS) and Datagram Transport Layer Security (DTLS)</text><line stroke="#111111" stroke-opacity="0.3" stroke-width="1" x1="520" x2="7905" y1="970" y2="970" /><circle centre="(7265, 1007.5)" cx="0" cy="0" fill="#ffffff" r="10" /><circle centre="(7265, 1007.5)" cx="0" cy="0" fill="#ffffff" r="10" /><circle centre="(7256, 1007.5)" cx="0" cy="0" fill="#ffffff" r="10" /><circle centre="(7190, 1007.5)" cx="0" cy="0" fill="#ffffff" r="10" /><circle centre="(7164, 1007.5)" cx="0" cy="0" fill="#ffffff" r="10" /><circle centre="(7145, 1007.5)" cx="0" cy="0" fill="#ffffff" r="10" /><circle centre="(7135, 1007.5)" cx="0" cy="0" fill="#ffffff" r="10" /><circle centre="(7122, 1007.5)" cx="0" cy="0" fill="#ffffff" r="10" /><circle centre="(7113, 1007.5)" cx="0" cy="0" fill="#ffffff" r="10" /><circle centre="(7085, 1007.5)" cx="0" cy="0" fill="#ffffff" r="10" /><circle centre="(7023, 1007.5)" cx="0" cy="0" fill="#ffffff" r="10" /><circle centre="(6935, 1007.5)" cx="0" cy="0" fill="#ffffff" r="10" /><rect fill="#ffb366" height="75" stroke="#000000" stroke-dasharray="10, 0" stroke-width="1" width="2359" x="4646" y="970" /><text lengthAdjust="spacingAndGlyphs" textLength="2359" x="4646" y="1007.5">Hypertext Transfer Protocol (HTTP/1.1): Message Syntax and Routing</text><line stroke="#111111" stroke-opacity="0.3" stroke-width="1" x1="520" x2="7905" y1="1045" y2="1045" /><circle centre="(6886, 1082.5)" cx="0" cy="0" fill="#ffffff" r="10" /><circle centre="(6805, 1082.5)" cx="0" cy="0" fill="#ffffff" r="10" /><circle centre="(6752, 1082.5)" cx="0" cy="0" fill="#ffffff" r="10" /><circle centre="(6680, 1082.5)" cx="0" cy="0" fill="#ffffff" r="10" /><circle centre="(6538, 1082.5)" cx="0" cy="0" fill="#ffffff" r="10" /><circle centre="(6396, 1082.5)" cx="0" cy="0" fill="#ffffff" r="10" /><circle centre="(6316, 1082.5)" cx="0" cy="0" fill="#ffffff" r="10" /><circle centre="(6190, 1082.5)" cx="0" cy="0" fill="#ffffff" r="10" /><circle centre="(6121, 1082.5)" cx="0" cy="0" fill="#ffffff" r="10" /><circle centre="(6057, 1082.5)" cx="0" cy="0" fill="#ffffff" r="10" /><circle centre="(5989, 1082.5)" cx="0" cy="0" fill="#ffffff" r="10" /><circle centre="(5945, 1082.5)" cx="0" cy="0" fill="#ffffff" r="10" /><circle centre="(5861, 1082.5)" cx="0" cy="0" fill="#ffffff" r="10" /><circle centre="(5826, 1082.5)" cx="0" cy="0" fill="#ffffff" r="10" /><circle centre="(5686, 1082.5)" cx="0" cy="0" fill="#ffffff" r="10" /><circle centre="(5604, 1082.5)" cx="0" cy="0" fill="#ffffff" r="10" /><circle centre="(5581, 1082.5)" cx="0" cy="0" fill="#ffffff" r="10" /><circle centre="(5455, 1082.5)" cx="0" cy="0" fill="#ffffff" r="10" /><circle centre="(5322, 1082.5)" cx="0" cy="0" fill="#ffffff" r="10" /><circle centre="(5217, 1082.5)" cx="0" cy="0" fill="#ffffff" r="10" /><circle centre="(5091, 1082.5)" cx="0" cy="0" fill="#ffffff" r="10" /><circle centre="(4979, 1082.5)" cx="0" cy="0" fill="#ffffff" r="10" /><circle centre="(4899, 1082.5)" cx="0" cy="0" fill="#ffffff" r="10" /><circle centre="(4826, 1082.5)" cx="0" cy="0" fill="#ffffff" r="10" /><circle centre="(4713, 1082.5)" cx="0" cy="0" fill="#ffffff" r="10" /><circle centre="(4669, 1082.5)" cx="0" cy="0" fill="#ffffff" r="10" /><circle centre="(4646, 1082.5)" cx="0" cy="0" fill="#ffffff" r="10" /><rect fill="#8cff66" height="75" stroke="#000000" stroke-dasharray="10, 0" stroke-width="4" width="1379" x="3417" y="1045" /><text lengthAdjust="spacingAndGlyphs" textLength="1379" x="3417" y="1082.5">Guidelines for Writing an IANA Considerations Section in RFCs</text><line stroke="#111111" stroke-opacity="0.3" stroke-width="1" x1="520" x2="7905" y1="1120" y2="1120" /><circle centre="(4743, 1157.5)" cx="0" cy="0" fill="#ffffff" r="10" /><circle centre="(4570, 1157.5)" cx="0" cy="0" fill="#ffffff" r="10" /><circle centre="(4485, 1157.5)" cx="0" cy="0" fill="#ffffff" r="10" /><circle centre="(4360, 1157.5)" cx="0" cy="0" fill="#ffffff" r="10" /><circle centre="(4189, 1157.5)" cx="0" cy="0" fill="#ffffff" r="10" /><circle centre="(3993, 1157.5)" cx="0" cy="0" fill="#ffffff" r="10" /><circle centre="(3862, 1157.5)" cx="0" cy="0" fill="#ffffff" r="10" /><circle centre="(3741, 1157.5)" cx="0" cy="0" fill="#ffffff" r="10" /><circle centre="(3456, 1157.5)" cx="0" cy="0" fill="#ffffff" r="10" /><circle centre="(3417, 1157.5)" cx="0" cy="0" fill="#ffffff" r="10" /><rect fill="#8cff66" height="75" stroke="#000000" stroke-dasharray="10, 0" stroke-width="4" width="1379" x="3417" y="1120" /><text lengthAdjust="spacingAndGlyphs" textLength="1379" x="3417" y="1157.5">Guidelines for Writing an IANA Considerations Section in RFCs</text><line stroke="#111111" stroke-opacity="0.3" stroke-width="1" x1="520" x2="7905" y1="1195" y2="1195" /><circle centre="(4743, 1232.5)" cx="0" cy="0" fill="#ffffff" r="10" /><circle centre="(4570, 1232.5)" cx="0" cy="0" fill="#ffffff" r="10" /><circle centre="(4485, 1232.5)" cx="0" cy="0" fill="#ffffff" r="10" /><circle centre="(4360, 1232.5)" cx="0" cy="0" fill="#ffffff" r="10" /><circle centre="(4189, 1232.5)" cx="0" cy="0" fill="#ffffff" r="10" /><circle centre="(3993, 1232.5)" cx="0" cy="0" fill="#ffffff" r="10" /><circle centre="(3862, 1232.5)" cx="0" cy="0" fill="#ffffff" r="10" /><circle centre="(3741, 1232.5)" cx="0" cy="0" fill="#ffffff" r="10" /><circle centre="(3456, 1232.5)" cx="0" cy="0" fill="#ffffff" r="10" /><circle centre="(3417, 1232.5)" cx="0" cy="0" fill="#ffffff" r="10" /><rect fill="#66ffb3" height="75" stroke="#000000" stroke-dasharray="10, 0" stroke-width="1" width="825" x="1031" y="1195" /><text lengthAdjust="spacingAndGlyphs" textLength="825" x="1031" y="1232.5">HTTP Over TLS</text><line stroke="#111111" stroke-opacity="0.3" stroke-width="1" x1="520" x2="7905" y1="1270" y2="1270" /><circle centre="(1622, 1307.5)" cx="0" cy="0" fill="#ffffff" r="10" /><circle centre="(1423, 1307.5)" cx="0" cy="0" fill="#ffffff" r="10" /><circle centre="(1081, 1307.5)" cx="0" cy="0" fill="#ffffff" r="10" /><circle centre="(1031, 1307.5)" cx="0" cy="0" fill="#ffffff" r="10" /><rect fill="#66d9ff" height="75" stroke="#000000" stroke-dasharray="10, 0" stroke-width="4" width="179" x="520" y="1270" /><text lengthAdjust="spacingAndGlyphs" textLength="179" x="520" y="1307.5">Key words for use in RFCs to Indicate Requirement Levels</text><line stroke="#111111" stroke-opacity="0.3" stroke-width="1" x1="520" x2="7905" y1="1345" y2="1345" /><circle centre="(520, 1382.5)" cx="0" cy="0" fill="#ffffff" r="10" /><rect fill="#66d9ff" height="75" stroke="#000000" stroke-dasharray="10, 0" stroke-width="4" width="179" x="520" y="1345" /><text lengthAdjust="spacingAndGlyphs" textLength="179" x="520" y="1382.5">Key words for use in RFCs to Indicate Requirement Levels</text><line stroke="#111111" stroke-opacity="0.3" stroke-width="1" x1="520" x2="7905" y1="1420" y2="1420" /><circle centre="(520, 1457.5)" cx="0" cy="0" fill="#ffffff" r="10" /></svg>