<?xml version="1.0" encoding="utf-8" ?>
<svg baseProfile="full" height="1340" version="1.1" width="7947" xmlns="http://www.w3.org/2000/svg" xmlns:ev="http://www.w3.org/2001/xml-events" xmlns:xlink="http://www.w3.org/1999/xlink"><defs /><style type="text/css"><![CDATA[.tooltip {pointer-events:all; opacity:0;transition: opacity 0.3s;}rect:hover + .tooltip {pointer-events: all;opacity:1}rect {pointer-events:all}]]></style><rect fill="#ffcccc" height="150" stroke="#000000" width="150" x="170" y="70" /><text lengthAdjust="spacing" textLength="[150]" writing-mode="tb" x="180" y="80">Applications Area</text><rect fill="#ffe6cc" height="750" stroke="#000000" width="150" x="170" y="220" /><text lengthAdjust="spacing" textLength="[150]" writing-mode="tb" x="180" y="230">Applications and Real-Time Area</text><rect fill="#d9ffcc" height="75" stroke="#000000" width="150" x="170" y="970" /><text lengthAdjust="spacing" textLength="[150]" writing-mode="tb" x="180" y="980">Internet Engineering Steering Group</text><rect fill="#ccffe6" height="75" stroke="#000000" width="150" x="170" y="1045" /><text lengthAdjust="spacing" textLength="[150]" writing-mode="tb" x="180" y="1055">General Area</text><rect fill="#ccf2ff" height="75" stroke="#000000" width="150" x="170" y="1120" /><text lengthAdjust="spacing" textLength="[150]" writing-mode="tb" x="180" y="1130">Security Area</text><rect fill="#ffcccc" height="150" stroke="#000000" width="7457" x="320" y="70" /><text lengthAdjust="spacing" textLength="[150]" x="330" y="90">JavaScript Object Notation</text><line stroke="#000000" stroke-width="2" x1="370" x2="370" y1="70" y2="220" /><rect fill="#ffe6cc" height="600" stroke="#000000" width="7457" x="320" y="220" /><text lengthAdjust="spacing" textLength="[150]" x="330" y="240">Content Delivery Networks Interconnection</text><line stroke="#000000" stroke-width="2" x1="370" x2="370" y1="220" y2="820" /><rect fill="#ffe6cc" height="75" stroke="#000000" width="7457" x="320" y="820" /><text lengthAdjust="spacing" textLength="[150]" x="330" y="840">Hypertext Transfer Protocol</text><line stroke="#000000" stroke-width="2" x1="370" x2="370" y1="820" y2="895" /><rect fill="#ffe6cc" height="75" stroke="#000000" width="7457" x="320" y="895" /><text lengthAdjust="spacing" textLength="[150]" x="330" y="915">Using TLS in Applications</text><line stroke="#000000" stroke-width="2" x1="370" x2="370" y1="895" y2="970" /><rect fill="#d9ffcc" height="75" stroke="#000000" width="7457" x="320" y="970" /><text lengthAdjust="spacing" textLength="[150]" x="330" y="990">General Area</text><line stroke="#000000" stroke-width="2" x1="370" x2="370" y1="970" y2="1045" /><rect fill="#ccffe6" height="75" stroke="#000000" width="7457" x="320" y="1045" /><text lengthAdjust="spacing" textLength="[150]" x="330" y="1065">Individual Submissions</text><line stroke="#000000" stroke-width="2" x1="370" x2="370" y1="1045" y2="1120" /><rect fill="#ccf2ff" height="75" stroke="#000000" width="7457" x="320" y="1120" /><text lengthAdjust="spacing" textLength="[150]" x="330" y="1140">Transport Layer Security</text><line stroke="#000000" stroke-width="2" x1="370" x2="370" y1="1120" y2="1195" /><line stroke="#000000" stroke-width="2" x1="370" x2="7777" y1="1270" y2="1270" /><line stroke="#000000" stroke-width="2" x1="370" x2="370" y1="1290" y2="1250" /><line stroke="#000000" stroke-width="2" x1="7777" x2="7777" y1="1290" y2="1250" /><text x="300" y="1305">1996-09-02 00:00:02</text><text x="7707" y="1305">2016-12-13 18:12:32</text><line stroke="#111111" stroke-opacity="0.3" stroke-width="2" x1="490" x2="490" y1="1195" y2="70" /><line stroke="#000000" stroke-width="2" x1="490" x2="490" y1="1280" y2="1260" /><text x="420" y="1235">1997-01-01 00:00:00</text><line stroke="#111111" stroke-opacity="0.3" stroke-width="2" x1="855" x2="855" y1="1195" y2="70" /><line stroke="#000000" stroke-width="2" x1="855" x2="855" y1="1280" y2="1260" /><text x="785" y="1235">1998-01-01 00:00:00</text><line stroke="#111111" stroke-opacity="0.3" stroke-width="2" x1="1220" x2="1220" y1="1195" y2="70" /><line stroke="#000000" stroke-width="2" x1="1220" x2="1220" y1="1280" y2="1260" /><text x="1150" y="1235">1999-01-01 00:00:00</text><line stroke="#111111" stroke-opacity="0.3" stroke-width="2" x1="1585" x2="1585" y1="1195" y2="70" /><line stroke="#000000" stroke-width="2" x1="1585" x2="1585" y1="1280" y2="1260" /><text x="1515" y="1235">2000-01-01 00:00:00</text><line stroke="#111111" stroke-opacity="0.3" stroke-width="2" x1="1951" x2="1951" y1="1195" y2="70" /><line stroke="#000000" stroke-width="2" x1="1951" x2="1951" y1="1280" y2="1260" /><text x="1881" y="1235">2001-01-01 00:00:00</text><line stroke="#111111" stroke-opacity="0.3" stroke-width="2" x1="2316" x2="2316" y1="1195" y2="70" /><line stroke="#000000" stroke-width="2" x1="2316" x2="2316" y1="1280" y2="1260" /><text x="2246" y="1235">2002-01-01 00:00:00</text><line stroke="#111111" stroke-opacity="0.3" stroke-width="2" x1="2681" x2="2681" y1="1195" y2="70" /><line stroke="#000000" stroke-width="2" x1="2681" x2="2681" y1="1280" y2="1260" /><text x="2611" y="1235">2003-01-01 00:00:00</text><line stroke="#111111" stroke-opacity="0.3" stroke-width="2" x1="3046" x2="3046" y1="1195" y2="70" /><line stroke="#000000" stroke-width="2" x1="3046" x2="3046" y1="1280" y2="1260" /><text x="2976" y="1235">2004-01-01 00:00:00</text><line stroke="#111111" stroke-opacity="0.3" stroke-width="2" x1="3412" x2="3412" y1="1195" y2="70" /><line stroke="#000000" stroke-width="2" x1="3412" x2="3412" y1="1280" y2="1260" /><text x="3342" y="1235">2005-01-01 00:00:00</text><line stroke="#111111" stroke-opacity="0.3" stroke-width="2" x1="3777" x2="3777" y1="1195" y2="70" /><line stroke="#000000" stroke-width="2" x1="3777" x2="3777" y1="1280" y2="1260" /><text x="3707" y="1235">2006-01-01 00:00:00</text><line stroke="#111111" stroke-opacity="0.3" stroke-width="2" x1="4142" x2="4142" y1="1195" y2="70" /><line stroke="#000000" stroke-width="2" x1="4142" x2="4142" y1="1280" y2="1260" /><text x="4072" y="1235">2007-01-01 00:00:00</text><line stroke="#111111" stroke-opacity="0.3" stroke-width="2" x1="4507" x2="4507" y1="1195" y2="70" /><line stroke="#000000" stroke-width="2" x1="4507" x2="4507" y1="1280" y2="1260" /><text x="4437" y="1235">2008-01-01 00:00:00</text><line stroke="#111111" stroke-opacity="0.3" stroke-width="2" x1="4873" x2="4873" y1="1195" y2="70" /><line stroke="#000000" stroke-width="2" x1="4873" x2="4873" y1="1280" y2="1260" /><text x="4803" y="1235">2009-01-01 00:00:00</text><line stroke="#111111" stroke-opacity="0.3" stroke-width="2" x1="5238" x2="5238" y1="1195" y2="70" /><line stroke="#000000" stroke-width="2" x1="5238" x2="5238" y1="1280" y2="1260" /><text x="5168" y="1235">2010-01-01 00:00:00</text><line stroke="#111111" stroke-opacity="0.3" stroke-width="2" x1="5603" x2="5603" y1="1195" y2="70" /><line stroke="#000000" stroke-width="2" x1="5603" x2="5603" y1="1280" y2="1260" /><text x="5533" y="1235">2011-01-01 00:00:00</text><line stroke="#111111" stroke-opacity="0.3" stroke-width="2" x1="5968" x2="5968" y1="1195" y2="70" /><line stroke="#000000" stroke-width="2" x1="5968" x2="5968" y1="1280" y2="1260" /><text x="5898" y="1235">2012-01-01 00:00:00</text><line stroke="#111111" stroke-opacity="0.3" stroke-width="2" x1="6334" x2="6334" y1="1195" y2="70" /><line stroke="#000000" stroke-width="2" x1="6334" x2="6334" y1="1280" y2="1260" /><text x="6264" y="1235">2013-01-01 00:00:00</text><line stroke="#111111" stroke-opacity="0.3" stroke-width="2" x1="6699" x2="6699" y1="1195" y2="70" /><line stroke="#000000" stroke-width="2" x1="6699" x2="6699" y1="1280" y2="1260" /><text x="6629" y="1235">2014-01-01 00:00:00</text><line stroke="#111111" stroke-opacity="0.3" stroke-width="2" x1="7064" x2="7064" y1="1195" y2="70" /><line stroke="#000000" stroke-width="2" x1="7064" x2="7064" y1="1280" y2="1260" /><text x="6994" y="1235">2015-01-01 00:00:00</text><line stroke="#111111" stroke-opacity="0.3" stroke-width="2" x1="7429" x2="7429" y1="1195" y2="70" /><line stroke="#000000" stroke-width="2" x1="7429" x2="7429" y1="1280" y2="1260" /><text x="7359" y="1235">2016-01-01 00:00:00</text><rect fill="#ff6666" height="75" stroke="#000000" stroke-dasharray="10, 0" stroke-width="4" width="325" x="6819" y="70" /><g class="tooltip css"><text x="6819" y="70">I-JSON (short for "Internet JSON") is a restricted profile of JSON designed to maximize interoperability and increase confidence that software can process it successfully with predictable results.</text><rect fill="#ff6666" height="75" stroke="#000000" stroke-dasharray="10, 0" stroke-width="4" width="325" x="6769" y="145" /></g><line stroke="#000000" stroke-opacity="0.67" stroke-width="1" x1="7091" x2="7091" y1="145" y2="70" /><line stroke="#000000" stroke-opacity="0.67" stroke-width="1" x1="7051" x2="7051" y1="145" y2="70" /><line stroke="#000000" stroke-opacity="0.67" stroke-width="1" x1="7031" x2="7031" y1="145" y2="70" /><line stroke="#000000" stroke-opacity="0.67" stroke-width="1" x1="6916" x2="6916" y1="145" y2="70" /><line stroke="#000000" stroke-opacity="0.67" stroke-width="1" x1="6880" x2="6880" y1="145" y2="70" /><line stroke="#000000" stroke-opacity="0.67" stroke-width="1" x1="6863" x2="6863" y1="145" y2="70" /><line stroke="#000000" stroke-opacity="0.67" stroke-width="1" x1="6819" x2="6819" y1="145" y2="70" /><text lengthAdjust="spacingAndGlyphs" textLength="325" x="6819" y="107.5">The I-JSON Message Format</text><line stroke="#111111" stroke-opacity="0.3" stroke-width="1" x1="370" x2="7777" y1="145" y2="145" /><rect fill="#ff6666" height="75" stroke="#000000" stroke-dasharray="10, 0" stroke-width="4" width="150" x="6761" y="145" /><g class="tooltip css"><text x="6761" y="145">JavaScript Object Notation (JSON) is a lightweight, text-based, language-independent data interchange format. It was derived from the ECMAScript Programming Language Standard. JSON defines a small set of formatting rules for the portable representation of structured data.</text><rect fill="#ff6666" height="75" stroke="#000000" stroke-dasharray="10, 0" stroke-width="4" width="150" x="6711" y="220" /></g><text lengthAdjust="spacingAndGlyphs" textLength="150" x="6761" y="182.5">The JavaScript Object Notation (JSON) Data Interchange Format</text><line stroke="#111111" stroke-opacity="0.3" stroke-width="1" x1="370" x2="7777" y1="220" y2="220" /><rect fill="#ffb366" height="75" stroke="#000000" stroke-dasharray="10, 0" stroke-width="4" width="1533" x="6244" y="220" /><g class="tooltip css"><text x="6244" y="220">The Content Delivery Network Interconnection (CDNI) Metadata interface enables interconnected Content Delivery Networks (CDNs) to exchange content distribution metadata in order to enable content acquisition and delivery.  The CDNI Metadata associated with a piece of content provides a downstream CDN with sufficient information for the downstream CDN to service content requests on behalf of an upstream CDN.  This document describes both a base set of CDNI Metadata and the protocol for exchanging that metadata.</text><rect fill="#ffb366" height="75" stroke="#000000" stroke-dasharray="10, 0" stroke-width="4" width="1533" x="6194" y="295" /></g><line stroke="#000000" stroke-opacity="0.67" stroke-width="1" x1="7670" x2="7670" y1="295" y2="220" /><line stroke="#000000" stroke-opacity="0.67" stroke-width="1" x1="7644" x2="7644" y1="295" y2="220" /><line stroke="#000000" stroke-opacity="0.67" stroke-width="1" x1="7619" x2="7619" y1="295" y2="220" /><line stroke="#000000" stroke-opacity="0.67" stroke-width="1" x1="7592" x2="7592" y1="295" y2="220" /><line stroke="#000000" stroke-opacity="0.67" stroke-width="1" x1="7570" x2="7570" y1="295" y2="220" /><line stroke="#000000" stroke-opacity="0.67" stroke-width="1" x1="7548" x2="7548" y1="295" y2="220" /><line stroke="#000000" stroke-opacity="0.67" stroke-width="1" x1="7532" x2="7532" y1="295" y2="220" /><line stroke="#000000" stroke-opacity="0.67" stroke-width="1" x1="7532" x2="7532" y1="295" y2="220" /><line stroke="#000000" stroke-opacity="0.67" stroke-width="1" x1="7510" x2="7510" y1="295" y2="220" /><line stroke="#000000" stroke-opacity="0.67" stroke-width="1" x1="7356" x2="7356" y1="295" y2="220" /><line stroke="#000000" stroke-opacity="0.67" stroke-width="1" x1="7272" x2="7272" y1="295" y2="220" /><line stroke="#000000" stroke-opacity="0.67" stroke-width="1" x1="7251" x2="7251" y1="295" y2="220" /><line stroke="#000000" stroke-opacity="0.67" stroke-width="1" x1="7127" x2="7127" y1="295" y2="220" /><line stroke="#000000" stroke-opacity="0.67" stroke-width="1" x1="6999" x2="6999" y1="295" y2="220" /><line stroke="#000000" stroke-opacity="0.67" stroke-width="1" x1="6883" x2="6883" y1="295" y2="220" /><line stroke="#000000" stroke-opacity="0.67" stroke-width="1" x1="6744" x2="6744" y1="295" y2="220" /><line stroke="#000000" stroke-opacity="0.67" stroke-width="1" x1="6744" x2="6744" y1="295" y2="220" /><line stroke="#000000" stroke-opacity="0.67" stroke-width="1" x1="6674" x2="6674" y1="295" y2="220" /><line stroke="#000000" stroke-opacity="0.67" stroke-width="1" x1="6628" x2="6628" y1="295" y2="220" /><line stroke="#000000" stroke-opacity="0.67" stroke-width="1" x1="6530" x2="6530" y1="295" y2="220" /><line stroke="#000000" stroke-opacity="0.67" stroke-width="1" x1="6390" x2="6390" y1="295" y2="220" /><line stroke="#000000" stroke-opacity="0.67" stroke-width="1" x1="6244" x2="6244" y1="295" y2="220" /><text lengthAdjust="spacingAndGlyphs" textLength="1533" x="6244" y="257.5">Content Delivery Network Interconnection (CDNI) Metadata</text><line stroke="#111111" stroke-opacity="0.3" stroke-width="1" x1="370" x2="7777" y1="295" y2="295" /><rect fill="#ffb366" height="75" stroke="#000000" stroke-dasharray="10, 0" stroke-width="4" width="836" x="6086" y="295" /><g class="tooltip css"><text x="6086" y="295">This document presents a framework for Content Distribution Network Interconnection (CDNI).  The purpose of the framework is to provide an overall picture of the problem space of CDNI and to describe the relationships among the various components necessary to interconnect CDNs.  CDNI requires the specification of interfaces and mechanisms to address issues such as request routing, distribution metadata exchange, and logging information exchange across CDNs.  The intent of this document is to outline what each interface needs to accomplish and to describe how these interfaces and mechanisms fit together, while leaving their detailed specification to other documents.  This document, in combination with RFC 6707, obsoletes RFC 3466.</text><rect fill="#ffb366" height="75" stroke="#000000" stroke-dasharray="10, 0" stroke-width="4" width="836" x="6036" y="370" /></g><line stroke="#000000" stroke-opacity="0.67" stroke-width="1" x1="6856" x2="6856" y1="370" y2="295" /><line stroke="#000000" stroke-opacity="0.67" stroke-width="1" x1="6849" x2="6849" y1="370" y2="295" /><line stroke="#000000" stroke-opacity="0.67" stroke-width="1" x1="6845" x2="6845" y1="370" y2="295" /><line stroke="#000000" stroke-opacity="0.67" stroke-width="1" x1="6824" x2="6824" y1="370" y2="295" /><line stroke="#000000" stroke-opacity="0.67" stroke-width="1" x1="6761" x2="6761" y1="370" y2="295" /><line stroke="#000000" stroke-opacity="0.67" stroke-width="1" x1="6729" x2="6729" y1="370" y2="295" /><line stroke="#000000" stroke-opacity="0.67" stroke-width="1" x1="6718" x2="6718" y1="370" y2="295" /><line stroke="#000000" stroke-opacity="0.67" stroke-width="1" x1="6663" x2="6663" y1="370" y2="295" /><line stroke="#000000" stroke-opacity="0.67" stroke-width="1" x1="6628" x2="6628" y1="370" y2="295" /><line stroke="#000000" stroke-opacity="0.67" stroke-width="1" x1="6586" x2="6586" y1="370" y2="295" /><line stroke="#000000" stroke-opacity="0.67" stroke-width="1" x1="6567" x2="6567" y1="370" y2="295" /><line stroke="#000000" stroke-opacity="0.67" stroke-width="1" x1="6383" x2="6383" y1="370" y2="295" /><line stroke="#000000" stroke-opacity="0.67" stroke-width="1" x1="6320" x2="6320" y1="370" y2="295" /><line stroke="#000000" stroke-opacity="0.67" stroke-width="1" x1="6166" x2="6166" y1="370" y2="295" /><line stroke="#000000" stroke-opacity="0.67" stroke-width="1" x1="6086" x2="6086" y1="370" y2="295" /><text lengthAdjust="spacingAndGlyphs" textLength="836" x="6086" y="332.5">Framework for Content Distribution Network Interconnection (CDNI)</text><line stroke="#111111" stroke-opacity="0.3" stroke-width="1" x1="370" x2="7777" y1="370" y2="370" /><rect fill="#ffb366" height="75" stroke="#000000" stroke-dasharray="10, 0" stroke-width="1" width="1068" x="5854" y="370" /><g class="tooltip css"><text x="5854" y="370">Content delivery is frequently provided by specifically architected and provisioned Content Delivery Networks (CDNs). As a result of significant growth in content delivered over IP networks, existing CDN providers are scaling up their infrastructure. Many Network Service Providers (NSPs) and Enterprise Service Providers (ESPs) are also deploying their own CDNs. To deliver contents from the Content Service Provider (CSP) to end users, the contents may traverse across multiple CDNs. This creates a need for interconnecting (previously) standalone CDNs so that they can collectively act as a single delivery platform from the CSP to the end users.</text><rect fill="#ffb366" height="75" stroke="#000000" stroke-dasharray="10, 0" stroke-width="1" width="1068" x="5804" y="445" /></g><line stroke="#000000" stroke-opacity="0.67" stroke-width="1" x1="6729" x2="6729" y1="445" y2="370" /><line stroke="#000000" stroke-opacity="0.67" stroke-width="1" x1="6716" x2="6716" y1="445" y2="370" /><line stroke="#000000" stroke-opacity="0.67" stroke-width="1" x1="6713" x2="6713" y1="445" y2="370" /><line stroke="#000000" stroke-opacity="0.67" stroke-width="1" x1="6692" x2="6692" y1="445" y2="370" /><line stroke="#000000" stroke-opacity="0.67" stroke-width="1" x1="6664" x2="6664" y1="445" y2="370" /><line stroke="#000000" stroke-opacity="0.67" stroke-width="1" x1="6642" x2="6642" y1="445" y2="370" /><line stroke="#000000" stroke-opacity="0.67" stroke-width="1" x1="6628" x2="6628" y1="445" y2="370" /><line stroke="#000000" stroke-opacity="0.67" stroke-width="1" x1="6587" x2="6587" y1="445" y2="370" /><line stroke="#000000" stroke-opacity="0.67" stroke-width="1" x1="6516" x2="6516" y1="445" y2="370" /><line stroke="#000000" stroke-opacity="0.67" stroke-width="1" x1="6511" x2="6511" y1="445" y2="370" /><line stroke="#000000" stroke-opacity="0.67" stroke-width="1" x1="6485" x2="6485" y1="445" y2="370" /><line stroke="#000000" stroke-opacity="0.67" stroke-width="1" x1="6433" x2="6433" y1="445" y2="370" /><line stroke="#000000" stroke-opacity="0.67" stroke-width="1" x1="6388" x2="6388" y1="445" y2="370" /><line stroke="#000000" stroke-opacity="0.67" stroke-width="1" x1="6306" x2="6306" y1="445" y2="370" /><line stroke="#000000" stroke-opacity="0.67" stroke-width="1" x1="6125" x2="6125" y1="445" y2="370" /><line stroke="#000000" stroke-opacity="0.67" stroke-width="1" x1="5944" x2="5944" y1="445" y2="370" /><line stroke="#000000" stroke-opacity="0.67" stroke-width="1" x1="5894" x2="5894" y1="445" y2="370" /><line stroke="#000000" stroke-opacity="0.67" stroke-width="1" x1="5854" x2="5854" y1="445" y2="370" /><text lengthAdjust="spacingAndGlyphs" textLength="1068" x="5854" y="407.5">Content Distribution Network Interconnection (CDNI) Requirements</text><line stroke="#111111" stroke-opacity="0.3" stroke-width="1" x1="370" x2="7777" y1="445" y2="445" /><rect fill="#ffb366" height="75" stroke="#000000" stroke-dasharray="10, 0" stroke-width="1" width="383" x="5854" y="445" /><g class="tooltip css"><text x="5854" y="445">Content Delivery Networks (CDNs) provide numerous benefits for cacheable content: reduced delivery cost, improved quality of experience for End Users, and increased robustness of delivery. For these reasons, they are frequently used for large-scale content delivery. As a result, existing CDN Providers are scaling up their infrastructure, and many Network Service Providers (NSPs) are deploying their own CDNs. It is generally desirable that a given content item can be delivered to an End User regardless of that End User's location or attachment network. This is the motivation for interconnecting standalone CDNs so they can interoperate as an open content delivery infrastructure for the end-to-end delivery of content from Content Service Providers (CSPs) to End Users. However, no standards or open specifications currently exist to facilitate such CDN Interconnection.</text><rect fill="#ffb366" height="75" stroke="#000000" stroke-dasharray="10, 0" stroke-width="1" width="383" x="5804" y="520" /></g><line stroke="#000000" stroke-opacity="0.67" stroke-width="1" x1="6145" x2="6145" y1="520" y2="445" /><line stroke="#000000" stroke-opacity="0.67" stroke-width="1" x1="6143" x2="6143" y1="520" y2="445" /><line stroke="#000000" stroke-opacity="0.67" stroke-width="1" x1="6109" x2="6109" y1="520" y2="445" /><line stroke="#000000" stroke-opacity="0.67" stroke-width="1" x1="6092" x2="6092" y1="520" y2="445" /><line stroke="#000000" stroke-opacity="0.67" stroke-width="1" x1="6038" x2="6038" y1="520" y2="445" /><line stroke="#000000" stroke-opacity="0.67" stroke-width="1" x1="5989" x2="5989" y1="520" y2="445" /><line stroke="#000000" stroke-opacity="0.67" stroke-width="1" x1="5984" x2="5984" y1="520" y2="445" /><line stroke="#000000" stroke-opacity="0.67" stroke-width="1" x1="5906" x2="5906" y1="520" y2="445" /><line stroke="#000000" stroke-opacity="0.67" stroke-width="1" x1="5854" x2="5854" y1="520" y2="445" /><text lengthAdjust="spacingAndGlyphs" textLength="383" x="5854" y="482.5">Content Distribution Network Interconnection (CDNI) Problem Statement</text><line stroke="#111111" stroke-opacity="0.3" stroke-width="1" x1="370" x2="7777" y1="520" y2="520" /><rect fill="#ffb366" height="75" stroke="#000000" stroke-dasharray="10, 0" stroke-width="4" width="1356" x="6315" y="520" /><g class="tooltip css"><text x="6315" y="520">This memo specifies the Logging interface between a downstream Content Distribution Network (dCDN) and an upstream CDN (uCDN) that are interconnected as per the CDN Interconnection (CDNI) framework.  First, it describes a reference model for CDNI logging.  Then, it specifies the CDNI Logging File format and the actual protocol for exchange of CDNI Logging Files.</text><rect fill="#ffb366" height="75" stroke="#000000" stroke-dasharray="10, 0" stroke-width="4" width="1356" x="6265" y="595" /></g><line stroke="#000000" stroke-opacity="0.67" stroke-width="1" x1="7589" x2="7589" y1="595" y2="520" /><line stroke="#000000" stroke-opacity="0.67" stroke-width="1" x1="7575" x2="7575" y1="595" y2="520" /><line stroke="#000000" stroke-opacity="0.67" stroke-width="1" x1="7527" x2="7527" y1="595" y2="520" /><line stroke="#000000" stroke-opacity="0.67" stroke-width="1" x1="7524" x2="7524" y1="595" y2="520" /><line stroke="#000000" stroke-opacity="0.67" stroke-width="1" x1="7507" x2="7507" y1="595" y2="520" /><line stroke="#000000" stroke-opacity="0.67" stroke-width="1" x1="7491" x2="7491" y1="595" y2="520" /><line stroke="#000000" stroke-opacity="0.67" stroke-width="1" x1="7371" x2="7371" y1="595" y2="520" /><line stroke="#000000" stroke-opacity="0.67" stroke-width="1" x1="7353" x2="7353" y1="595" y2="520" /><line stroke="#000000" stroke-opacity="0.67" stroke-width="1" x1="7251" x2="7251" y1="595" y2="520" /><line stroke="#000000" stroke-opacity="0.67" stroke-width="1" x1="7146" x2="7146" y1="595" y2="520" /><line stroke="#000000" stroke-opacity="0.67" stroke-width="1" x1="7142" x2="7142" y1="595" y2="520" /><line stroke="#000000" stroke-opacity="0.67" stroke-width="1" x1="7132" x2="7132" y1="595" y2="520" /><line stroke="#000000" stroke-opacity="0.67" stroke-width="1" x1="7099" x2="7099" y1="595" y2="520" /><line stroke="#000000" stroke-opacity="0.67" stroke-width="1" x1="6997" x2="6997" y1="595" y2="520" /><line stroke="#000000" stroke-opacity="0.67" stroke-width="1" x1="6904" x2="6904" y1="595" y2="520" /><line stroke="#000000" stroke-opacity="0.67" stroke-width="1" x1="6884" x2="6884" y1="595" y2="520" /><line stroke="#000000" stroke-opacity="0.67" stroke-width="1" x1="6783" x2="6783" y1="595" y2="520" /><line stroke="#000000" stroke-opacity="0.67" stroke-width="1" x1="6761" x2="6761" y1="595" y2="520" /><line stroke="#000000" stroke-opacity="0.67" stroke-width="1" x1="6743" x2="6743" y1="595" y2="520" /><line stroke="#000000" stroke-opacity="0.67" stroke-width="1" x1="6625" x2="6625" y1="595" y2="520" /><line stroke="#000000" stroke-opacity="0.67" stroke-width="1" x1="6617" x2="6617" y1="595" y2="520" /><line stroke="#000000" stroke-opacity="0.67" stroke-width="1" x1="6604" x2="6604" y1="595" y2="520" /><line stroke="#000000" stroke-opacity="0.67" stroke-width="1" x1="6527" x2="6527" y1="595" y2="520" /><line stroke="#000000" stroke-opacity="0.67" stroke-width="1" x1="6510" x2="6510" y1="595" y2="520" /><line stroke="#000000" stroke-opacity="0.67" stroke-width="1" x1="6485" x2="6485" y1="595" y2="520" /><line stroke="#000000" stroke-opacity="0.67" stroke-width="1" x1="6481" x2="6481" y1="595" y2="520" /><line stroke="#000000" stroke-opacity="0.67" stroke-width="1" x1="6387" x2="6387" y1="595" y2="520" /><line stroke="#000000" stroke-opacity="0.67" stroke-width="1" x1="6315" x2="6315" y1="595" y2="520" /><text lengthAdjust="spacingAndGlyphs" textLength="1356" x="6315" y="557.5">Content Distribution Network Interconnection (CDNI) Logging Interface</text><line stroke="#111111" stroke-opacity="0.3" stroke-width="1" x1="370" x2="7777" y1="595" y2="595" /><rect fill="#ffb366" height="75" stroke="#000000" stroke-dasharray="10, 0" stroke-width="1" width="425" x="5867" y="595" /><g class="tooltip css"><text x="5867" y="595">Content Delivery Networks (CDNs) are commonly used for improving the End User experience of a content delivery service while keeping cost at a reasonable level.  This document focuses on use cases that correspond to identified industry needs and that are expected to be realized once open interfaces and protocols supporting the interconnection of CDNs are specified and implemented.  This document can be used to motivate the definition of the requirements to be supported by CDN Interconnection (CDNI) interfaces.  It obsoletes RFC 3570.  This document is not an Internet Standards Track specification; it is published for informational purposes.</text><rect fill="#ffb366" height="75" stroke="#000000" stroke-dasharray="10, 0" stroke-width="1" width="425" x="5817" y="670" /></g><line stroke="#000000" stroke-opacity="0.67" stroke-width="1" x1="6190" x2="6190" y1="670" y2="595" /><line stroke="#000000" stroke-opacity="0.67" stroke-width="1" x1="6160" x2="6160" y1="670" y2="595" /><line stroke="#000000" stroke-opacity="0.67" stroke-width="1" x1="6138" x2="6138" y1="670" y2="595" /><line stroke="#000000" stroke-opacity="0.67" stroke-width="1" x1="6131" x2="6131" y1="670" y2="595" /><line stroke="#000000" stroke-opacity="0.67" stroke-width="1" x1="6113" x2="6113" y1="670" y2="595" /><line stroke="#000000" stroke-opacity="0.67" stroke-width="1" x1="6112" x2="6112" y1="670" y2="595" /><line stroke="#000000" stroke-opacity="0.67" stroke-width="1" x1="6054" x2="6054" y1="670" y2="595" /><line stroke="#000000" stroke-opacity="0.67" stroke-width="1" x1="5998" x2="5998" y1="670" y2="595" /><line stroke="#000000" stroke-opacity="0.67" stroke-width="1" x1="5986" x2="5986" y1="670" y2="595" /><line stroke="#000000" stroke-opacity="0.67" stroke-width="1" x1="5957" x2="5957" y1="670" y2="595" /><line stroke="#000000" stroke-opacity="0.67" stroke-width="1" x1="5867" x2="5867" y1="670" y2="595" /><text lengthAdjust="spacingAndGlyphs" textLength="425" x="5867" y="632.5">Use Cases for Content Delivery Network Interconnection</text><line stroke="#111111" stroke-opacity="0.3" stroke-width="1" x1="370" x2="7777" y1="670" y2="670" /><rect fill="#ffb366" height="75" stroke="#000000" stroke-dasharray="10, 0" stroke-width="1" width="150" x="7293" y="670" /><g class="tooltip css"><text x="7293" y="670">This document defines the standard media type used by the Content Delivery Network Interconnection (CDNI) protocol suite, including the registration procedure and recommended usage of the required payload- type parameter.</text><rect fill="#ffb366" height="75" stroke="#000000" stroke-dasharray="10, 0" stroke-width="1" width="150" x="7243" y="745" /></g><line stroke="#000000" stroke-opacity="0.67" stroke-width="1" x1="7350" x2="7350" y1="745" y2="670" /><line stroke="#000000" stroke-opacity="0.67" stroke-width="1" x1="7347" x2="7347" y1="745" y2="670" /><line stroke="#000000" stroke-opacity="0.67" stroke-width="1" x1="7341" x2="7341" y1="745" y2="670" /><line stroke="#000000" stroke-opacity="0.67" stroke-width="1" x1="7336" x2="7336" y1="745" y2="670" /><line stroke="#000000" stroke-opacity="0.67" stroke-width="1" x1="7336" x2="7336" y1="745" y2="670" /><line stroke="#000000" stroke-opacity="0.67" stroke-width="1" x1="7336" x2="7336" y1="745" y2="670" /><line stroke="#000000" stroke-opacity="0.67" stroke-width="1" x1="7293" x2="7293" y1="745" y2="670" /><text lengthAdjust="spacingAndGlyphs" textLength="150" x="7293" y="707.5">Content Delivery Network Interconnection (CDNI) Media Type Registration</text><line stroke="#111111" stroke-opacity="0.3" stroke-width="1" x1="370" x2="7777" y1="745" y2="745" /><rect fill="#ffb366" height="75" stroke="#000000" stroke-dasharray="10, 0" stroke-width="10" width="1245" x="6532" y="745" /><g class="tooltip css"><text x="6532" y="745">This document captures the semantics of the "Footprint and Capabilities Advertisement" part of the Content Delivery Network Interconnection (CDNI) Request Routing interface, i.e., the desired meaning of "Footprint" and "Capabilities" in the CDNI context and what the "Footprint &amp; Capabilities Advertisement interface (FCI)" offers within CDNI.  The document also provides guidelines for the CDNI FCI protocol.  It further defines a Base Advertisement Object, the necessary registries for capabilities and footprints, and guidelines on how these registries can be extended in the future.</text><rect fill="#ffb366" height="75" stroke="#000000" stroke-dasharray="10, 0" stroke-width="10" width="1245" x="6482" y="820" /></g><line stroke="#000000" stroke-opacity="0.67" stroke-width="1" x1="7570" x2="7570" y1="820" y2="745" /><line stroke="#000000" stroke-opacity="0.67" stroke-width="1" x1="7564" x2="7564" y1="820" y2="745" /><line stroke="#000000" stroke-opacity="0.67" stroke-width="1" x1="7548" x2="7548" y1="820" y2="745" /><line stroke="#000000" stroke-opacity="0.67" stroke-width="1" x1="7543" x2="7543" y1="820" y2="745" /><line stroke="#000000" stroke-opacity="0.67" stroke-width="1" x1="7533" x2="7533" y1="820" y2="745" /><line stroke="#000000" stroke-opacity="0.67" stroke-width="1" x1="7532" x2="7532" y1="820" y2="745" /><line stroke="#000000" stroke-opacity="0.67" stroke-width="1" x1="7524" x2="7524" y1="820" y2="745" /><line stroke="#000000" stroke-opacity="0.67" stroke-width="1" x1="7524" x2="7524" y1="820" y2="745" /><line stroke="#000000" stroke-opacity="0.67" stroke-width="1" x1="7497" x2="7497" y1="820" y2="745" /><line stroke="#000000" stroke-opacity="0.67" stroke-width="1" x1="7493" x2="7493" y1="820" y2="745" /><line stroke="#000000" stroke-opacity="0.67" stroke-width="1" x1="7492" x2="7492" y1="820" y2="745" /><line stroke="#000000" stroke-opacity="0.67" stroke-width="1" x1="7371" x2="7371" y1="820" y2="745" /><line stroke="#000000" stroke-opacity="0.67" stroke-width="1" x1="7355" x2="7355" y1="820" y2="745" /><line stroke="#000000" stroke-opacity="0.67" stroke-width="1" x1="7294" x2="7294" y1="820" y2="745" /><line stroke="#000000" stroke-opacity="0.67" stroke-width="1" x1="7132" x2="7132" y1="820" y2="745" /><line stroke="#000000" stroke-opacity="0.67" stroke-width="1" x1="7126" x2="7126" y1="820" y2="745" /><line stroke="#000000" stroke-opacity="0.67" stroke-width="1" x1="6999" x2="6999" y1="820" y2="745" /><line stroke="#000000" stroke-opacity="0.67" stroke-width="1" x1="6900" x2="6900" y1="820" y2="745" /><line stroke="#000000" stroke-opacity="0.67" stroke-width="1" x1="6744" x2="6744" y1="820" y2="745" /><line stroke="#000000" stroke-opacity="0.67" stroke-width="1" x1="6628" x2="6628" y1="820" y2="745" /><line stroke="#000000" stroke-opacity="0.67" stroke-width="1" x1="6532" x2="6532" y1="820" y2="745" /><text lengthAdjust="spacingAndGlyphs" textLength="1245" x="6532" y="782.5">Content Delivery Network Interconnection (CDNI) Request Routing: Footprint and Capabilities Semantics</text><line stroke="#111111" stroke-opacity="0.3" stroke-width="1" x1="370" x2="7777" y1="820" y2="820" /><rect fill="#ffb366" height="75" stroke="#000000" stroke-dasharray="10, 0" stroke-width="1" width="2359" x="4496" y="820" /><g class="tooltip css"><text x="4496" y="820">The Hypertext Transfer Protocol (HTTP) is a stateless application-level protocol for distributed, collaborative, hypertext information systems.  This document provides an overview of HTTP architecture and its associated terminology, defines the "http" and "https" Uniform Resource Identifier (URI) schemes, defines the HTTP/1.1 message syntax and parsing requirements, and describes related security concerns for implementations.</text><rect fill="#ffb366" height="75" stroke="#000000" stroke-dasharray="10, 0" stroke-width="1" width="2359" x="4446" y="895" /></g><line stroke="#000000" stroke-opacity="0.67" stroke-width="1" x1="6736" x2="6736" y1="895" y2="820" /><line stroke="#000000" stroke-opacity="0.67" stroke-width="1" x1="6655" x2="6655" y1="895" y2="820" /><line stroke="#000000" stroke-opacity="0.67" stroke-width="1" x1="6602" x2="6602" y1="895" y2="820" /><line stroke="#000000" stroke-opacity="0.67" stroke-width="1" x1="6530" x2="6530" y1="895" y2="820" /><line stroke="#000000" stroke-opacity="0.67" stroke-width="1" x1="6388" x2="6388" y1="895" y2="820" /><line stroke="#000000" stroke-opacity="0.67" stroke-width="1" x1="6246" x2="6246" y1="895" y2="820" /><line stroke="#000000" stroke-opacity="0.67" stroke-width="1" x1="6166" x2="6166" y1="895" y2="820" /><line stroke="#000000" stroke-opacity="0.67" stroke-width="1" x1="6040" x2="6040" y1="895" y2="820" /><line stroke="#000000" stroke-opacity="0.67" stroke-width="1" x1="5971" x2="5971" y1="895" y2="820" /><line stroke="#000000" stroke-opacity="0.67" stroke-width="1" x1="5907" x2="5907" y1="895" y2="820" /><line stroke="#000000" stroke-opacity="0.67" stroke-width="1" x1="5839" x2="5839" y1="895" y2="820" /><line stroke="#000000" stroke-opacity="0.67" stroke-width="1" x1="5795" x2="5795" y1="895" y2="820" /><line stroke="#000000" stroke-opacity="0.67" stroke-width="1" x1="5711" x2="5711" y1="895" y2="820" /><line stroke="#000000" stroke-opacity="0.67" stroke-width="1" x1="5676" x2="5676" y1="895" y2="820" /><line stroke="#000000" stroke-opacity="0.67" stroke-width="1" x1="5536" x2="5536" y1="895" y2="820" /><line stroke="#000000" stroke-opacity="0.67" stroke-width="1" x1="5454" x2="5454" y1="895" y2="820" /><line stroke="#000000" stroke-opacity="0.67" stroke-width="1" x1="5431" x2="5431" y1="895" y2="820" /><line stroke="#000000" stroke-opacity="0.67" stroke-width="1" x1="5305" x2="5305" y1="895" y2="820" /><line stroke="#000000" stroke-opacity="0.67" stroke-width="1" x1="5172" x2="5172" y1="895" y2="820" /><line stroke="#000000" stroke-opacity="0.67" stroke-width="1" x1="5067" x2="5067" y1="895" y2="820" /><line stroke="#000000" stroke-opacity="0.67" stroke-width="1" x1="4941" x2="4941" y1="895" y2="820" /><line stroke="#000000" stroke-opacity="0.67" stroke-width="1" x1="4829" x2="4829" y1="895" y2="820" /><line stroke="#000000" stroke-opacity="0.67" stroke-width="1" x1="4749" x2="4749" y1="895" y2="820" /><line stroke="#000000" stroke-opacity="0.67" stroke-width="1" x1="4676" x2="4676" y1="895" y2="820" /><line stroke="#000000" stroke-opacity="0.67" stroke-width="1" x1="4563" x2="4563" y1="895" y2="820" /><line stroke="#000000" stroke-opacity="0.67" stroke-width="1" x1="4519" x2="4519" y1="895" y2="820" /><line stroke="#000000" stroke-opacity="0.67" stroke-width="1" x1="4496" x2="4496" y1="895" y2="820" /><text lengthAdjust="spacingAndGlyphs" textLength="2359" x="4496" y="857.5">Hypertext Transfer Protocol (HTTP/1.1): Message Syntax and Routing</text><line stroke="#111111" stroke-opacity="0.3" stroke-width="1" x1="370" x2="7777" y1="895" y2="895" /><rect fill="#ffb366" height="75" stroke="#000000" stroke-dasharray="10, 0" stroke-width="1" width="403" x="6785" y="895" /><g class="tooltip css"><text x="6785" y="895">Transport Layer Security (TLS) and Datagram Transport Layer Security (DTLS) are widely used to protect data exchanged over application protocols such as HTTP, SMTP, IMAP, POP, SIP, and XMPP.  Over the last few years, several serious attacks on TLS have emerged, including attacks on its most commonly used cipher suites and their modes of operation.  This document provides recommendations for improving the security of deployed services that use TLS and DTLS.  The recommendations are applicable to the majority of use cases.</text><rect fill="#ffb366" height="75" stroke="#000000" stroke-dasharray="10, 0" stroke-width="1" width="403" x="6735" y="970" /></g><line stroke="#000000" stroke-opacity="0.67" stroke-width="1" x1="7115" x2="7115" y1="970" y2="895" /><line stroke="#000000" stroke-opacity="0.67" stroke-width="1" x1="7115" x2="7115" y1="970" y2="895" /><line stroke="#000000" stroke-opacity="0.67" stroke-width="1" x1="7106" x2="7106" y1="970" y2="895" /><line stroke="#000000" stroke-opacity="0.67" stroke-width="1" x1="7040" x2="7040" y1="970" y2="895" /><line stroke="#000000" stroke-opacity="0.67" stroke-width="1" x1="7014" x2="7014" y1="970" y2="895" /><line stroke="#000000" stroke-opacity="0.67" stroke-width="1" x1="6995" x2="6995" y1="970" y2="895" /><line stroke="#000000" stroke-opacity="0.67" stroke-width="1" x1="6985" x2="6985" y1="970" y2="895" /><line stroke="#000000" stroke-opacity="0.67" stroke-width="1" x1="6972" x2="6972" y1="970" y2="895" /><line stroke="#000000" stroke-opacity="0.67" stroke-width="1" x1="6963" x2="6963" y1="970" y2="895" /><line stroke="#000000" stroke-opacity="0.67" stroke-width="1" x1="6935" x2="6935" y1="970" y2="895" /><line stroke="#000000" stroke-opacity="0.67" stroke-width="1" x1="6873" x2="6873" y1="970" y2="895" /><line stroke="#000000" stroke-opacity="0.67" stroke-width="1" x1="6785" x2="6785" y1="970" y2="895" /><text lengthAdjust="spacingAndGlyphs" textLength="403" x="6785" y="932.5">Recommendations for Secure Use of Transport Layer Security (TLS) and Datagram Transport Layer Security (DTLS)</text><line stroke="#111111" stroke-opacity="0.3" stroke-width="1" x1="370" x2="7777" y1="970" y2="970" /><rect fill="#8cff66" height="75" stroke="#000000" stroke-dasharray="10, 0" stroke-width="4" width="1379" x="3267" y="970" /><g class="tooltip css"><text x="3267" y="970">Many protocols make use of identifiers consisting of constants and other well-known values. Even after a protocol has been defined and deployment has begun, new values may need to be assigned (e.g., for a new option type in DHCP, or a new encryption or authentication transform for IPsec). To ensure that such quantities have consistent values and interpretations across all implementations, their assignment must be administered by a central authority. For IETF protocols, that role is provided by the Internet Assigned Numbers Authority (IANA).</text><rect fill="#8cff66" height="75" stroke="#000000" stroke-dasharray="10, 0" stroke-width="4" width="1379" x="3217" y="1045" /></g><line stroke="#000000" stroke-opacity="0.67" stroke-width="1" x1="4593" x2="4593" y1="1045" y2="970" /><line stroke="#000000" stroke-opacity="0.67" stroke-width="1" x1="4420" x2="4420" y1="1045" y2="970" /><line stroke="#000000" stroke-opacity="0.67" stroke-width="1" x1="4335" x2="4335" y1="1045" y2="970" /><line stroke="#000000" stroke-opacity="0.67" stroke-width="1" x1="4210" x2="4210" y1="1045" y2="970" /><line stroke="#000000" stroke-opacity="0.67" stroke-width="1" x1="4039" x2="4039" y1="1045" y2="970" /><line stroke="#000000" stroke-opacity="0.67" stroke-width="1" x1="3843" x2="3843" y1="1045" y2="970" /><line stroke="#000000" stroke-opacity="0.67" stroke-width="1" x1="3712" x2="3712" y1="1045" y2="970" /><line stroke="#000000" stroke-opacity="0.67" stroke-width="1" x1="3591" x2="3591" y1="1045" y2="970" /><line stroke="#000000" stroke-opacity="0.67" stroke-width="1" x1="3306" x2="3306" y1="1045" y2="970" /><line stroke="#000000" stroke-opacity="0.67" stroke-width="1" x1="3267" x2="3267" y1="1045" y2="970" /><text lengthAdjust="spacingAndGlyphs" textLength="1379" x="3267" y="1007.5">Guidelines for Writing an IANA Considerations Section in RFCs</text><line stroke="#111111" stroke-opacity="0.3" stroke-width="1" x1="370" x2="7777" y1="1045" y2="1045" /><rect fill="#66ffb3" height="75" stroke="#000000" stroke-dasharray="10, 0" stroke-width="4" width="179" x="370" y="1045" /><g class="tooltip css"><text x="370" y="1045">In many standards track documents several words are used to signify the requirements in the specification.  These words are often capitalized.  This document defines these words as they should be interpreted in IETF documents.  This document specifies an Internet Best Current Practices for the Internet Community, and requests discussion and suggestions for improvements.</text><rect fill="#66ffb3" height="75" stroke="#000000" stroke-dasharray="10, 0" stroke-width="4" width="179" x="320" y="1120" /></g><line stroke="#000000" stroke-opacity="0.67" stroke-width="1" x1="370" x2="370" y1="1120" y2="1045" /><text lengthAdjust="spacingAndGlyphs" textLength="179" x="370" y="1082.5">Key words for use in RFCs to Indicate Requirement Levels</text><line stroke="#111111" stroke-opacity="0.3" stroke-width="1" x1="370" x2="7777" y1="1120" y2="1120" /><rect fill="#66d9ff" height="75" stroke="#000000" stroke-dasharray="10, 0" stroke-width="1" width="825" x="881" y="1120" /><g class="tooltip css"><text x="881" y="1120">This memo describes how to use Transport Layer Security (TLS) to secure Hypertext Transfer Protocol (HTTP) connections over the Internet.  This memo provides information for the Internet community.</text><rect fill="#66d9ff" height="75" stroke="#000000" stroke-dasharray="10, 0" stroke-width="1" width="825" x="831" y="1195" /></g><line stroke="#000000" stroke-opacity="0.67" stroke-width="1" x1="1472" x2="1472" y1="1195" y2="1120" /><line stroke="#000000" stroke-opacity="0.67" stroke-width="1" x1="1273" x2="1273" y1="1195" y2="1120" /><line stroke="#000000" stroke-opacity="0.67" stroke-width="1" x1="931" x2="931" y1="1195" y2="1120" /><line stroke="#000000" stroke-opacity="0.67" stroke-width="1" x1="881" x2="881" y1="1195" y2="1120" /><text lengthAdjust="spacingAndGlyphs" textLength="825" x="881" y="1157.5">HTTP Over TLS</text><line stroke="#111111" stroke-opacity="0.3" stroke-width="1" x1="370" x2="7777" y1="1195" y2="1195" /></svg>