<?xml version="1.0" encoding="utf-8" ?>
<svg baseProfile="full" height="965" onload="init(evt)" version="1.1" width="5772" xmlns="http://www.w3.org/2000/svg" xmlns:ev="http://www.w3.org/2001/xml-events" xmlns:xlink="http://www.w3.org/1999/xlink"><defs /><style type="text/css"><![CDATA[.tooltip{width:30px; text-align:justify; word-break:break-all; white-space:pre-wrap}.tooltip_bg{fill: white; opacity: 0.85}]]></style>

    <script type="text/ecmascript">
    <![CDATA[
      function init(evt)
      {
        if ( window.svgDocument == null )
        {
          svgDocument = evt.target.ownerDocument;
        }
        tooltip_bg = svgDocument.getElementById('tooltip_bg');
        draft = svgDocument.getElementById('draft');
        abstract = svgDocument.getElementById('abstract');
      }
      function ShowTooltip(evt, mouseovertext)
        {
          draft.setAttributeNS(null,"x",evt.clientX+11);
          draft.setAttributeNS(null,"y",evt.clientY+27);
          abstract.setAttributeNS(null,"x",evt.clientX+11);
          abstract.setAttributeNS(null,"y",evt.clientY+45);

          draft.firstChild.data = 'blahblahblah\nblehblehbleh';
          abstract.firstChild.data = 'hahahahaha\nheheheheheh';

          draft.setAttributeNS(null,"visibility","visible");
          abstract.setAttributeNS(null,"visibility","visible");

          console.log(draft.firstChild.data)
          console.log(abstract.firstChild.data)

          tooltip_bg.setAttributeNS(null,"x",evt.clientX+8);
          tooltip_bg.setAttributeNS(null,"y",evt.clientY+15);
          tooltip_bg.setAttributeNS(null,"visibility","visible");
          console.log("Show tooltip!")
        }

        function HideTooltip()
        {
          tooltip_bg.setAttributeNS(null,"visibility","hidden");
        }
    ]]>
    </script>

    <rect fill="#ffcccc" height="150" stroke="#000000" width="150" x="170" y="70" /><text lengthAdjust="spacing" textLength="150" writing-mode="tb" x="180" y="80">General Area</text><rect fill="#ffe6cc" height="375" stroke="#000000" width="150" x="170" y="220" /><text lengthAdjust="spacing" textLength="150" writing-mode="tb" x="180" y="230">Routing Area</text><rect fill="#d9ffcc" height="75" stroke="#000000" width="150" x="170" y="595" /><text lengthAdjust="spacing" textLength="150" writing-mode="tb" x="180" y="605">Transport Area</text><rect fill="#ccffe6" height="150" stroke="#000000" width="150" x="170" y="670" /><text lengthAdjust="spacing" textLength="150" writing-mode="tb" x="180" y="680">Sub-IP Area</text><rect fill="#ffcccc" height="75" stroke="#000000" width="5282" x="320" y="70" /><text lengthAdjust="spacing" textLength="150" x="330" y="90">Individual Submissions</text><line stroke="#000000" stroke-width="2" x1="370" x2="370" y1="70" y2="145" /><rect fill="#ffcccc" height="75" stroke="#000000" width="5282" x="320" y="145" /><text lengthAdjust="spacing" textLength="150" x="330" y="165">Intellectual Property Rights</text><line stroke="#000000" stroke-width="2" x1="370" x2="370" y1="145" y2="220" /><rect fill="#ffe6cc" height="225" stroke="#000000" width="5282" x="320" y="220" /><text lengthAdjust="spacing" textLength="150" x="330" y="240">Multiprotocol Label Switching</text><line stroke="#000000" stroke-width="2" x1="370" x2="370" y1="220" y2="445" /><rect fill="#ffe6cc" height="75" stroke="#000000" width="5282" x="320" y="445" /><text lengthAdjust="spacing" textLength="150" x="330" y="465">Open Shortest Path First IGP</text><line stroke="#000000" stroke-width="2" x1="370" x2="370" y1="445" y2="520" /><rect fill="#ffe6cc" height="75" stroke="#000000" width="5282" x="320" y="520" /><text lengthAdjust="spacing" textLength="150" x="330" y="540">IS-IS for IP Internets</text><line stroke="#000000" stroke-width="2" x1="370" x2="370" y1="520" y2="595" /><rect fill="#d9ffcc" height="75" stroke="#000000" width="5282" x="320" y="595" /><text lengthAdjust="spacing" textLength="150" x="330" y="615">Resource Reservation Setup Protocol</text><line stroke="#000000" stroke-width="2" x1="370" x2="370" y1="595" y2="670" /><rect fill="#ccffe6" height="150" stroke="#000000" width="5282" x="320" y="670" /><text lengthAdjust="spacing" textLength="150" x="330" y="690">Internet Traffic Engineering</text><line stroke="#000000" stroke-width="2" x1="370" x2="370" y1="670" y2="820" /><line stroke="#000000" stroke-width="2" x1="370" x2="5602" y1="895" y2="895" /><line stroke="#000000" stroke-width="2" x1="370" x2="370" y1="915" y2="875" /><line stroke="#000000" stroke-width="2" x1="5602" x2="5602" y1="915" y2="875" /><text x="300" y="930">1994-07-15 00:00:03</text><text x="5532" y="930">2008-11-10 18:50:39</text><line stroke="#111111" stroke-opacity="0.3" stroke-width="2" x1="539" x2="539" y1="820" y2="70" /><line stroke="#000000" stroke-width="2" x1="539" x2="539" y1="905" y2="885" /><text x="469" y="860">1995-01-01 00:00:00</text><line stroke="#111111" stroke-opacity="0.3" stroke-width="2" x1="904" x2="904" y1="820" y2="70" /><line stroke="#000000" stroke-width="2" x1="904" x2="904" y1="905" y2="885" /><text x="834" y="860">1996-01-01 00:00:00</text><line stroke="#111111" stroke-opacity="0.3" stroke-width="2" x1="1270" x2="1270" y1="820" y2="70" /><line stroke="#000000" stroke-width="2" x1="1270" x2="1270" y1="905" y2="885" /><text x="1200" y="860">1997-01-01 00:00:00</text><line stroke="#111111" stroke-opacity="0.3" stroke-width="2" x1="1635" x2="1635" y1="820" y2="70" /><line stroke="#000000" stroke-width="2" x1="1635" x2="1635" y1="905" y2="885" /><text x="1565" y="860">1998-01-01 00:00:00</text><line stroke="#111111" stroke-opacity="0.3" stroke-width="2" x1="2000" x2="2000" y1="820" y2="70" /><line stroke="#000000" stroke-width="2" x1="2000" x2="2000" y1="905" y2="885" /><text x="1930" y="860">1999-01-01 00:00:00</text><line stroke="#111111" stroke-opacity="0.3" stroke-width="2" x1="2365" x2="2365" y1="820" y2="70" /><line stroke="#000000" stroke-width="2" x1="2365" x2="2365" y1="905" y2="885" /><text x="2295" y="860">2000-01-01 00:00:00</text><line stroke="#111111" stroke-opacity="0.3" stroke-width="2" x1="2731" x2="2731" y1="820" y2="70" /><line stroke="#000000" stroke-width="2" x1="2731" x2="2731" y1="905" y2="885" /><text x="2661" y="860">2001-01-01 00:00:00</text><line stroke="#111111" stroke-opacity="0.3" stroke-width="2" x1="3096" x2="3096" y1="820" y2="70" /><line stroke="#000000" stroke-width="2" x1="3096" x2="3096" y1="905" y2="885" /><text x="3026" y="860">2002-01-01 00:00:00</text><line stroke="#111111" stroke-opacity="0.3" stroke-width="2" x1="3461" x2="3461" y1="820" y2="70" /><line stroke="#000000" stroke-width="2" x1="3461" x2="3461" y1="905" y2="885" /><text x="3391" y="860">2003-01-01 00:00:00</text><line stroke="#111111" stroke-opacity="0.3" stroke-width="2" x1="3826" x2="3826" y1="820" y2="70" /><line stroke="#000000" stroke-width="2" x1="3826" x2="3826" y1="905" y2="885" /><text x="3756" y="860">2004-01-01 00:00:00</text><line stroke="#111111" stroke-opacity="0.3" stroke-width="2" x1="4192" x2="4192" y1="820" y2="70" /><line stroke="#000000" stroke-width="2" x1="4192" x2="4192" y1="905" y2="885" /><text x="4122" y="860">2005-01-01 00:00:00</text><line stroke="#111111" stroke-opacity="0.3" stroke-width="2" x1="4557" x2="4557" y1="820" y2="70" /><line stroke="#000000" stroke-width="2" x1="4557" x2="4557" y1="905" y2="885" /><text x="4487" y="860">2006-01-01 00:00:00</text><line stroke="#111111" stroke-opacity="0.3" stroke-width="2" x1="4922" x2="4922" y1="820" y2="70" /><line stroke="#000000" stroke-width="2" x1="4922" x2="4922" y1="905" y2="885" /><text x="4852" y="860">2007-01-01 00:00:00</text><line stroke="#111111" stroke-opacity="0.3" stroke-width="2" x1="5287" x2="5287" y1="820" y2="70" /><line stroke="#000000" stroke-width="2" x1="5287" x2="5287" y1="905" y2="885" /><text x="5217" y="860">2008-01-01 00:00:00</text><rect fill="#ff6666" height="75" onmousemove="ShowTooltip(evt, &quot;In many standards track documents several words are used to signify the requirements in the specification.  These words are often capitalized.  This document defines these words as they should be interpreted in IETF documents.  This document specifies an Internet Best Current Practices for the Internet Community, and requests discussion and suggestions for improvements.&quot;)" onmouseout="HideTooltip()" stroke="#000000" stroke-width="4" width="179" x="1149" y="70" /><line stroke="#000000" stroke-opacity="0.67" stroke-width="1" x1="1149" x2="1149" y1="145" y2="70" /><text lengthAdjust="spacingAndGlyphs" textLength="179" x="1149" y="107.5">Key words for use in RFCs to Indicate Requirement Levels</text><line stroke="#111111" stroke-opacity="0.3" stroke-width="1" x1="370" x2="5602" y1="145" y2="145" /><rect fill="#ff6666" height="75" onmousemove="ShowTooltip(evt, &quot;The IETF policies about rights in Contributions to the IETF are designed to ensure that such Contributions can be made available to the IETF and Internet communities while permitting the authors to retain as many rights as possible.  This memo details the IETF policies on rights in Contributions to the IETF.  It also describes the objectives that the policies are designed to meet.  This memo obsoletes RFCs 3978 and 4748 and, with BCP 79 and RFC 5377, replaces Section 10 of RFC 2026.  This document specifies an Internet Best Current Practices for the Internet Community, and requests discussion and suggestions for improvements.&quot;)" onmouseout="HideTooltip()" stroke="#000000" stroke-width="1" width="620" x="4981" y="145" /><line stroke="#000000" stroke-opacity="0.67" stroke-width="1" x1="5413" x2="5413" y1="220" y2="145" /><line stroke="#000000" stroke-opacity="0.67" stroke-width="1" x1="5370" x2="5370" y1="220" y2="145" /><line stroke="#000000" stroke-opacity="0.67" stroke-width="1" x1="5322" x2="5322" y1="220" y2="145" /><line stroke="#000000" stroke-opacity="0.67" stroke-width="1" x1="5305" x2="5305" y1="220" y2="145" /><line stroke="#000000" stroke-opacity="0.67" stroke-width="1" x1="5291" x2="5291" y1="220" y2="145" /><line stroke="#000000" stroke-opacity="0.67" stroke-width="1" x1="5260" x2="5260" y1="220" y2="145" /><line stroke="#000000" stroke-opacity="0.67" stroke-width="1" x1="5242" x2="5242" y1="220" y2="145" /><line stroke="#000000" stroke-opacity="0.67" stroke-width="1" x1="5212" x2="5212" y1="220" y2="145" /><line stroke="#000000" stroke-opacity="0.67" stroke-width="1" x1="5100" x2="5100" y1="220" y2="145" /><line stroke="#000000" stroke-opacity="0.67" stroke-width="1" x1="4981" x2="4981" y1="220" y2="145" /><text lengthAdjust="spacingAndGlyphs" textLength="620" x="4981" y="182.5">Rights Contributors Provide to the IETF Trust</text><line stroke="#111111" stroke-opacity="0.3" stroke-width="1" x1="370" x2="5602" y1="220" y2="220" /><rect fill="#ffb366" height="75" onmousemove="ShowTooltip(evt, &quot;This document defines RSVP-TE extensions to establish backup label-switched path (LSP) tunnels for local repair of LSP tunnels. These mechanisms enable the re-direction of traffic onto backup LSP tunnels in 10s of milliseconds, in the event of a failure.&quot;)" onmouseout="HideTooltip()" stroke="#000000" stroke-width="4" width="1186" x="3152" y="220" /><line stroke="#000000" stroke-opacity="0.67" stroke-width="1" x1="4077" x2="4077" y1="295" y2="220" /><line stroke="#000000" stroke-opacity="0.67" stroke-width="1" x1="4002" x2="4002" y1="295" y2="220" /><line stroke="#000000" stroke-opacity="0.67" stroke-width="1" x1="3958" x2="3958" y1="295" y2="220" /><line stroke="#000000" stroke-opacity="0.67" stroke-width="1" x1="3873" x2="3873" y1="295" y2="220" /><line stroke="#000000" stroke-opacity="0.67" stroke-width="1" x1="3644" x2="3644" y1="295" y2="220" /><line stroke="#000000" stroke-opacity="0.67" stroke-width="1" x1="3522" x2="3522" y1="295" y2="220" /><line stroke="#000000" stroke-opacity="0.67" stroke-width="1" x1="3405" x2="3405" y1="295" y2="220" /><line stroke="#000000" stroke-opacity="0.67" stroke-width="1" x1="3152" x2="3152" y1="295" y2="220" /><text lengthAdjust="spacingAndGlyphs" textLength="1186" x="3152" y="257.5">Fast Reroute Extensions to RSVP-TE for LSP Tunnels</text><line stroke="#111111" stroke-opacity="0.3" stroke-width="1" x1="370" x2="5602" y1="295" y2="295" /><rect fill="#ffb366" height="75" onmousemove="ShowTooltip(evt, &quot;This document describes the use of RSVP (Resource Reservation Protocol), including all the necessary extensions, to establish label-switched paths (LSPs) in MPLS (Multi-Protocol Label Switching).  Since the flow along an LSP is completely identified by the label applied at the ingress node of the path, these paths may be treated as tunnels.  A key application of LSP tunnels is traffic engineering with MPLS as specified in RFC 2702. [STANDARDS-TRACK]&quot;)" onmouseout="HideTooltip()" stroke="#000000" stroke-width="4" width="1107" x="1958" y="295" /><line stroke="#000000" stroke-opacity="0.67" stroke-width="1" x1="2980" x2="2980" y1="370" y2="295" /><line stroke="#000000" stroke-opacity="0.67" stroke-width="1" x1="2789" x2="2789" y1="370" y2="295" /><line stroke="#000000" stroke-opacity="0.67" stroke-width="1" x1="2602" x2="2602" y1="370" y2="295" /><line stroke="#000000" stroke-opacity="0.67" stroke-width="1" x1="2558" x2="2558" y1="370" y2="295" /><line stroke="#000000" stroke-opacity="0.67" stroke-width="1" x1="2434" x2="2434" y1="370" y2="295" /><line stroke="#000000" stroke-opacity="0.67" stroke-width="1" x1="2272" x2="2272" y1="370" y2="295" /><line stroke="#000000" stroke-opacity="0.67" stroke-width="1" x1="2253" x2="2253" y1="370" y2="295" /><line stroke="#000000" stroke-opacity="0.67" stroke-width="1" x1="2083" x2="2083" y1="370" y2="295" /><line stroke="#000000" stroke-opacity="0.67" stroke-width="1" x1="2056" x2="2056" y1="370" y2="295" /><line stroke="#000000" stroke-opacity="0.67" stroke-width="1" x1="1958" x2="1958" y1="370" y2="295" /><text lengthAdjust="spacingAndGlyphs" textLength="1107" x="1958" y="332.5">RSVP-TE: Extensions to RSVP for LSP Tunnels</text><line stroke="#111111" stroke-opacity="0.3" stroke-width="1" x1="370" x2="5602" y1="370" y2="370" /><rect fill="#ffb366" height="75" onmousemove="ShowTooltip(evt, &quot;In the context of MPLS TE Fast Reroute, the Merge Point (MP) address is required at the Point of Local Repair (PLR) in order to select a backup tunnel intersecting a fast reroutable Traffic Engineering Label Switched Path (TE LSP) on a downstream Label Switching Router (LSR).  However, existing protocol mechanisms are not sufficient to find an MP address in multi-domain routing networks where a domain is defined as an Interior Gateway Protocol (IGP) area or an Autonomous System (AS).  Hence, the current MPLS Fast Reroute mechanism cannot be used in order to protect inter-domain TE LSPs from a failure of an Area Border Router (ABR) or Autonomous System Border Router (ASBR).  This document specifies the use of existing Record Route Object (RRO) IPv4 and IPv6 sub-objects (with a new flag defined) thus defining the node-id sub-object in order to solve this issue.  The MPLS Fast Reroute mechanism mentioned in this document refers to the &quot;Facility backup&quot; MPLS TE Fast Reroute method. [STANDARDS-TRACK]&quot;)" onmouseout="HideTooltip()" stroke="#000000" stroke-width="10" width="1154" x="3568" y="370" /><line stroke="#000000" stroke-opacity="0.67" stroke-width="1" x1="4527" x2="4527" y1="445" y2="370" /><line stroke="#000000" stroke-opacity="0.67" stroke-width="1" x1="4343" x2="4343" y1="445" y2="370" /><line stroke="#000000" stroke-opacity="0.67" stroke-width="1" x1="4231" x2="4231" y1="445" y2="370" /><line stroke="#000000" stroke-opacity="0.67" stroke-width="1" x1="4220" x2="4220" y1="445" y2="370" /><line stroke="#000000" stroke-opacity="0.67" stroke-width="1" x1="4206" x2="4206" y1="445" y2="370" /><line stroke="#000000" stroke-opacity="0.67" stroke-width="1" x1="3858" x2="3858" y1="445" y2="370" /><line stroke="#000000" stroke-opacity="0.67" stroke-width="1" x1="3599" x2="3599" y1="445" y2="370" /><line stroke="#000000" stroke-opacity="0.67" stroke-width="1" x1="3568" x2="3568" y1="445" y2="370" /><text lengthAdjust="spacingAndGlyphs" textLength="1154" x="3568" y="407.5">Definition of a Record Route Object (RRO) Node-Id Sub-Object</text><line stroke="#111111" stroke-opacity="0.3" stroke-width="1" x1="370" x2="5602" y1="445" y2="445" /><rect fill="#ffb366" height="75" onmousemove="ShowTooltip(evt, &quot;This document describes extensions to the OSPF protocol version 2 to support intra-area Traffic Engineering (TE), using Opaque Link State Advertisements.&quot;)" onmouseout="HideTooltip()" stroke="#000000" stroke-width="4" width="1624" x="2110" y="445" /><line stroke="#000000" stroke-opacity="0.67" stroke-width="1" x1="3630" x2="3630" y1="520" y2="445" /><line stroke="#000000" stroke-opacity="0.67" stroke-width="1" x1="3392" x2="3392" y1="520" y2="445" /><line stroke="#000000" stroke-opacity="0.67" stroke-width="1" x1="3366" x2="3366" y1="520" y2="445" /><line stroke="#000000" stroke-opacity="0.67" stroke-width="1" x1="3335" x2="3335" y1="520" y2="445" /><line stroke="#000000" stroke-opacity="0.67" stroke-width="1" x1="3005" x2="3005" y1="520" y2="445" /><line stroke="#000000" stroke-opacity="0.67" stroke-width="1" x1="2900" x2="2900" y1="520" y2="445" /><line stroke="#000000" stroke-opacity="0.67" stroke-width="1" x1="2791" x2="2791" y1="520" y2="445" /><line stroke="#000000" stroke-opacity="0.67" stroke-width="1" x1="2643" x2="2643" y1="520" y2="445" /><line stroke="#000000" stroke-opacity="0.67" stroke-width="1" x1="2605" x2="2605" y1="520" y2="445" /><line stroke="#000000" stroke-opacity="0.67" stroke-width="1" x1="2300" x2="2300" y1="520" y2="445" /><line stroke="#000000" stroke-opacity="0.67" stroke-width="1" x1="2110" x2="2110" y1="520" y2="445" /><text lengthAdjust="spacingAndGlyphs" textLength="1624" x="2110" y="482.5">Traffic Engineering (TE) Extensions to OSPF Version 2</text><line stroke="#111111" stroke-opacity="0.3" stroke-width="1" x1="370" x2="5602" y1="520" y2="520" /><rect fill="#ffb366" height="75" onmousemove="ShowTooltip(evt, &quot;This document describes extensions to the Intermediate System to Intermediate System (IS-IS) protocol to support Traffic Engineering (TE).  This document extends the IS-IS protocol by specifying new information that an Intermediate System (router) can place in Link State Protocol (LSP) Data Units.  This information describes additional details regarding the state of the network that are useful for traffic engineering computations.  This memo provides information for the Internet community.&quot;)" onmouseout="HideTooltip()" stroke="#000000" stroke-width="4" width="1966" x="2032" y="520" /><line stroke="#000000" stroke-opacity="0.67" stroke-width="1" x1="3677" x2="3677" y1="595" y2="520" /><line stroke="#000000" stroke-opacity="0.67" stroke-width="1" x1="2963" x2="2963" y1="595" y2="520" /><line stroke="#000000" stroke-opacity="0.67" stroke-width="1" x1="2903" x2="2903" y1="595" y2="520" /><line stroke="#000000" stroke-opacity="0.67" stroke-width="1" x1="2614" x2="2614" y1="595" y2="520" /><line stroke="#000000" stroke-opacity="0.67" stroke-width="1" x1="2178" x2="2178" y1="595" y2="520" /><line stroke="#000000" stroke-opacity="0.67" stroke-width="1" x1="2032" x2="2032" y1="595" y2="520" /><text lengthAdjust="spacingAndGlyphs" textLength="1966" x="2032" y="557.5">Intermediate System to Intermediate System (IS-IS) Extensions for Traffic Engineering (TE)</text><line stroke="#111111" stroke-opacity="0.3" stroke-width="1" x1="370" x2="5602" y1="595" y2="595" /><rect fill="#8cff66" height="75" onmousemove="ShowTooltip(evt, &quot;This memo describes version 1 of RSVP, a resource reservation setup protocol designed for an integrated services Internet.  RSVP provides receiver-initiated setup of resource reservations for multicast or unicast data flows, with good scaling and robustness properties. [STANDARDS-TRACK]&quot;)" onmouseout="HideTooltip()" stroke="#000000" stroke-width="4" width="1143" x="370" y="595" /><line stroke="#000000" stroke-opacity="0.67" stroke-width="1" x1="1418" x2="1418" y1="670" y2="595" /><line stroke="#000000" stroke-opacity="0.67" stroke-width="1" x1="1213" x2="1213" y1="670" y2="595" /><line stroke="#000000" stroke-opacity="0.67" stroke-width="1" x1="1150" x2="1150" y1="670" y2="595" /><line stroke="#000000" stroke-opacity="0.67" stroke-width="1" x1="1032" x2="1032" y1="670" y2="595" /><line stroke="#000000" stroke-opacity="0.67" stroke-width="1" x1="982" x2="982" y1="670" y2="595" /><line stroke="#000000" stroke-opacity="0.67" stroke-width="1" x1="957" x2="957" y1="670" y2="595" /><line stroke="#000000" stroke-opacity="0.67" stroke-width="1" x1="948" x2="948" y1="670" y2="595" /><line stroke="#000000" stroke-opacity="0.67" stroke-width="1" x1="866" x2="866" y1="670" y2="595" /><line stroke="#000000" stroke-opacity="0.67" stroke-width="1" x1="727" x2="727" y1="670" y2="595" /><line stroke="#000000" stroke-opacity="0.67" stroke-width="1" x1="712" x2="712" y1="670" y2="595" /><line stroke="#000000" stroke-opacity="0.67" stroke-width="1" x1="622" x2="622" y1="670" y2="595" /><line stroke="#000000" stroke-opacity="0.67" stroke-width="1" x1="563" x2="563" y1="670" y2="595" /><line stroke="#000000" stroke-opacity="0.67" stroke-width="1" x1="370" x2="370" y1="670" y2="595" /><text lengthAdjust="spacingAndGlyphs" textLength="1143" x="370" y="632.5">Resource ReSerVation Protocol (RSVP) -- Version 1 Functional Specification</text><line stroke="#111111" stroke-opacity="0.3" stroke-width="1" x1="370" x2="5602" y1="670" y2="670" /><rect fill="#66ffb3" height="75" onmousemove="ShowTooltip(evt, &quot;This document lists a detailed set of functional requirements for the support of inter-area MPLS Traffic Engineering (inter-area MPLS TE).  It is intended that solutions that specify procedures and protocol extensions for inter-area MPLS TE satisfy these requirements.  This memo provides information for the Internet community.&quot;)" onmouseout="HideTooltip()" stroke="#000000" stroke-width="1" width="441" x="3911" y="670" /><line stroke="#000000" stroke-opacity="0.67" stroke-width="1" x1="4148" x2="4148" y1="745" y2="670" /><line stroke="#000000" stroke-opacity="0.67" stroke-width="1" x1="4000" x2="4000" y1="745" y2="670" /><line stroke="#000000" stroke-opacity="0.67" stroke-width="1" x1="3951" x2="3951" y1="745" y2="670" /><line stroke="#000000" stroke-opacity="0.67" stroke-width="1" x1="3911" x2="3911" y1="745" y2="670" /><text lengthAdjust="spacingAndGlyphs" textLength="441" x="3911" y="707.5">Requirements for Inter-Area MPLS Traffic Engineering</text><line stroke="#111111" stroke-opacity="0.3" stroke-width="1" x1="370" x2="5602" y1="745" y2="745" /><rect fill="#66ffb3" height="75" onmousemove="ShowTooltip(evt, &quot;This document discusses requirements for the support of inter-AS MPLS Traffic Engineering (MPLS TE).  Its main objective is to present a set of requirements and scenarios which would result in general guidelines for the definition, selection, and specification development for any technical solution(s) meeting these requirements and supporting the scenarios.  This memo provides information for the Internet community.&quot;)" onmouseout="HideTooltip()" stroke="#000000" stroke-width="1" width="902" x="3609" y="745" /><line stroke="#000000" stroke-opacity="0.67" stroke-width="1" x1="4083" x2="4083" y1="820" y2="745" /><line stroke="#000000" stroke-opacity="0.67" stroke-width="1" x1="4051" x2="4051" y1="820" y2="745" /><line stroke="#000000" stroke-opacity="0.67" stroke-width="1" x1="3995" x2="3995" y1="820" y2="745" /><line stroke="#000000" stroke-opacity="0.67" stroke-width="1" x1="3862" x2="3862" y1="820" y2="745" /><line stroke="#000000" stroke-opacity="0.67" stroke-width="1" x1="3847" x2="3847" y1="820" y2="745" /><line stroke="#000000" stroke-opacity="0.67" stroke-width="1" x1="3840" x2="3840" y1="820" y2="745" /><line stroke="#000000" stroke-opacity="0.67" stroke-width="1" x1="3805" x2="3805" y1="820" y2="745" /><line stroke="#000000" stroke-opacity="0.67" stroke-width="1" x1="3783" x2="3783" y1="820" y2="745" /><line stroke="#000000" stroke-opacity="0.67" stroke-width="1" x1="3760" x2="3760" y1="820" y2="745" /><line stroke="#000000" stroke-opacity="0.67" stroke-width="1" x1="3609" x2="3609" y1="820" y2="745" /><text lengthAdjust="spacingAndGlyphs" textLength="902" x="3609" y="782.5">MPLS Inter-Autonomous System (AS) Traffic Engineering (TE) Requirements</text><line stroke="#111111" stroke-opacity="0.3" stroke-width="1" x1="370" x2="5602" y1="820" y2="820" /><rect height="1" id="tooltip_bg" rx="4" ry="4" visibility="hidden" width="1" x="0" y="0" /><text id="draft" visibility="hidden">Draft:</text><text id="abstract" visibility="hidden">Abstract:</text></svg>